{"glyphs":{"0":{"ha":935,"x_min":0,"x_max":0,"o":"m 467 -22 b 67 492 221 -22 67 175 b 467 1008 67 808 221 1008 b 868 492 714 1008 868 810 b 467 -22 868 176 714 -22 m 467 115 b 713 492 625 115 713 249 b 467 871 713 736 625 871 b 222 492 310 871 222 736 b 467 115 222 249 310 115 "},"1":{"ha":564,"x_min":0,"x_max":0,"o":"m 263 703 l 54 703 l 54 824 l 139 824 b 294 986 251 824 294 863 l 413 986 l 413 0 l 263 0 "},"2":{"ha":875,"x_min":0,"x_max":0,"o":"m 82 0 b 451 511 82 224 168 361 b 638 715 586 582 638 624 b 460 871 638 807 578 871 b 242 675 333 871 261 801 l 86 685 b 460 1008 107 883 240 1008 b 793 718 669 1008 793 890 b 526 389 793 567 725 494 b 264 138 356 297 269 204 l 793 138 l 793 0 l 82 0 "},"3":{"ha":868,"x_min":0,"x_max":0,"o":"m 429 -22 b 67 265 201 -22 75 93 l 221 274 b 429 115 232 161 313 115 b 646 281 547 115 646 161 b 428 454 646 399 558 454 l 346 454 l 346 585 l 428 585 b 613 728 533 585 613 624 b 432 871 613 819 553 871 b 243 742 313 871 254 821 l 89 750 b 432 1008 107 904 228 1008 b 768 739 643 1008 768 904 b 597 528 768 635 708 563 b 801 275 725 493 801 401 b 429 -22 801 88 651 -22 "},"4":{"ha":874,"x_min":0,"x_max":0,"o":"m 536 206 l 39 206 l 39 333 l 518 986 l 686 986 l 686 342 l 807 342 l 807 206 l 686 206 l 686 0 l 536 0 m 536 342 l 536 778 l 210 342 "},"5":{"ha":890,"x_min":0,"x_max":0,"o":"m 443 -22 b 82 260 224 -22 96 92 l 236 269 b 443 115 250 167 328 115 b 653 321 572 115 653 192 b 442 529 653 447 574 529 b 251 425 353 529 281 489 l 96 425 l 163 986 l 740 986 l 740 849 l 296 849 l 261 575 b 476 657 311 628 389 657 b 808 321 675 657 808 515 b 443 -22 808 117 660 -22 "},"6":{"ha":839,"x_min":0,"x_max":0,"o":"m 428 -22 b 67 422 194 -22 67 139 b 465 1008 67 749 175 1008 b 782 767 646 1008 744 913 l 633 754 b 465 872 611 826 565 872 b 219 543 325 872 238 765 b 457 658 265 608 347 658 b 786 326 654 658 786 526 b 428 -22 786 108 639 -22 m 429 111 b 633 326 549 111 633 192 b 439 532 633 451 554 532 b 225 326 315 532 225 451 b 429 111 225 200 304 111 "},"7":{"ha":738,"x_min":0,"x_max":0,"o":"m 240 0 b 579 849 240 306 369 607 l 28 849 l 28 986 l 738 986 l 738 858 b 393 0 503 592 393 339 l 240 0 "},"8":{"ha":867,"x_min":0,"x_max":0,"o":"m 433 -22 b 53 269 208 -22 53 79 b 247 531 53 399 128 490 b 100 738 157 565 100 635 b 433 1008 100 894 228 1008 b 767 738 639 1008 767 894 b 619 531 767 633 710 565 b 814 269 739 489 814 399 b 433 -22 814 79 660 -22 m 433 586 b 611 731 546 586 611 633 b 433 872 611 817 550 872 b 256 731 317 872 256 817 b 433 586 256 633 321 586 m 433 115 b 658 285 569 115 658 171 b 433 463 658 392 585 463 b 208 285 282 463 208 392 b 433 115 208 171 297 115 "},"9":{"ha":842,"x_min":0,"x_max":0,"o":"m 383 -22 b 67 201 213 -22 107 67 l 218 211 b 383 114 240 149 294 114 b 621 438 526 114 606 210 b 381 317 568 358 485 317 b 53 656 188 317 53 453 b 404 1008 53 872 199 1008 b 775 543 660 1008 775 831 b 383 -22 775 208 669 -22 m 401 446 b 613 656 526 446 613 522 b 407 875 613 783 535 875 b 207 657 282 875 207 786 b 401 446 207 528 286 446 "},"A":{"ha":957,"x_min":0,"x_max":0,"o":"m 383 986 l 574 986 l 929 0 l 769 0 l 679 257 l 276 257 l 188 0 l 28 0 m 633 393 l 478 843 l 324 393 "},"Á":{"ha":957,"x_min":0,"x_max":0,"o":"m 501 1261 l 656 1261 l 531 1075 l 413 1075 m 383 986 l 574 986 l 929 0 l 769 0 l 679 257 l 276 257 l 188 0 l 28 0 m 633 393 l 478 843 l 324 393 "},"Ă":{"ha":957,"x_min":0,"x_max":0,"o":"m 478 1079 b 276 1267 360 1079 282 1150 l 369 1267 b 478 1175 378 1203 417 1175 b 586 1267 539 1175 578 1203 l 679 1267 b 478 1079 674 1150 597 1079 m 383 986 l 574 986 l 929 0 l 769 0 l 679 257 l 276 257 l 188 0 l 28 0 m 633 393 l 478 843 l 324 393 "},"Ǎ":{"ha":957,"x_min":0,"x_max":0,"o":"m 388 1268 l 478 1144 l 569 1268 l 683 1268 l 556 1075 l 401 1075 l 274 1268 m 383 986 l 574 986 l 929 0 l 769 0 l 679 257 l 276 257 l 188 0 l 28 0 m 633 393 l 478 843 l 324 393 "},"Â":{"ha":957,"x_min":0,"x_max":0,"o":"m 401 1268 l 556 1268 l 683 1075 l 569 1075 l 478 1199 l 388 1075 l 274 1075 m 383 986 l 574 986 l 929 0 l 769 0 l 679 257 l 276 257 l 188 0 l 28 0 m 633 393 l 478 843 l 324 393 "},"Ä":{"ha":957,"x_min":0,"x_max":0,"o":"m 274 1239 l 422 1239 l 422 1092 l 274 1092 m 535 1239 l 682 1239 l 682 1092 l 535 1092 m 383 986 l 574 986 l 929 0 l 769 0 l 679 257 l 276 257 l 188 0 l 28 0 m 633 393 l 478 843 l 324 393 "},"À":{"ha":957,"x_min":0,"x_max":0,"o":"m 303 1261 l 457 1261 l 546 1075 l 428 1075 m 383 986 l 574 986 l 929 0 l 769 0 l 679 257 l 276 257 l 188 0 l 28 0 m 633 393 l 478 843 l 324 393 "},"Ā":{"ha":957,"x_min":0,"x_max":0,"o":"m 285 1225 l 672 1225 l 672 1107 l 285 1107 m 383 986 l 574 986 l 929 0 l 769 0 l 679 257 l 276 257 l 188 0 l 28 0 m 633 393 l 478 843 l 324 393 "},"Ą":{"ha":957,"x_min":0,"x_max":0,"o":"m 383 986 l 574 986 l 929 0 l 883 -62 b 839 -156 850 -107 839 -132 b 878 -190 839 -178 856 -190 b 943 -172 904 -190 926 -183 l 979 -258 b 850 -294 957 -279 901 -294 b 711 -190 764 -294 711 -258 b 788 -29 711 -136 750 -79 l 810 0 l 769 0 l 679 257 l 276 257 l 188 0 l 28 0 m 633 393 l 478 843 l 324 393 "},"Å":{"ha":960,"x_min":0,"x_max":0,"o":"m 474 1050 b 340 1182 399 1050 340 1107 b 474 1314 340 1257 399 1314 b 607 1182 549 1314 607 1257 b 474 1050 607 1107 549 1050 m 474 1125 b 529 1182 506 1125 529 1150 b 474 1238 529 1214 506 1238 b 418 1182 442 1238 418 1214 b 474 1125 418 1150 442 1125 m 379 986 l 569 986 l 925 0 l 765 0 l 675 257 l 274 257 l 183 0 l 24 0 m 629 393 l 475 843 l 319 393 "},"Ã":{"ha":960,"x_min":0,"x_max":0,"o":"m 544 1093 b 444 1132 506 1093 476 1106 b 378 1165 415 1156 403 1165 b 321 1083 347 1165 324 1147 l 238 1083 b 376 1258 240 1196 294 1258 b 485 1217 421 1258 451 1243 b 549 1186 511 1194 528 1186 b 606 1271 582 1186 600 1204 l 688 1271 b 544 1093 683 1160 631 1093 m 379 986 l 569 986 l 925 0 l 765 0 l 675 257 l 274 257 l 183 0 l 24 0 m 629 393 l 475 843 l 319 393 "},"Æ":{"ha":1382,"x_min":0,"x_max":0,"o":"m 556 986 l 1297 986 l 1297 849 l 849 849 l 849 561 l 1281 561 l 1281 428 l 849 428 l 849 138 l 1308 138 l 1308 0 l 699 0 l 699 257 l 324 257 l 192 0 l 28 0 m 632 853 l 394 392 l 699 392 l 699 853 "},"B":{"ha":956,"x_min":0,"x_max":0,"o":"m 119 986 l 474 986 b 832 719 710 986 832 904 b 649 510 832 607 764 526 b 874 271 790 493 874 403 b 526 0 874 90 749 0 l 119 0 m 471 565 b 678 708 603 565 678 617 b 471 851 678 806 607 851 l 269 851 l 269 565 m 522 135 b 719 285 646 135 719 186 b 522 438 719 382 646 438 l 269 438 l 269 135 "},"C":{"ha":990,"x_min":0,"x_max":0,"o":"m 511 -22 b 61 492 244 -22 61 171 b 513 1008 61 810 242 1008 b 929 663 757 1008 888 878 l 772 654 b 513 871 746 789 663 871 b 217 492 333 871 217 726 b 511 115 217 256 335 115 b 779 353 671 115 756 206 l 936 344 b 511 -22 899 121 754 -22 "},"Ć":{"ha":990,"x_min":0,"x_max":0,"o":"m 532 1261 l 686 1261 l 561 1075 l 444 1075 m 511 -22 b 61 492 244 -22 61 171 b 513 1008 61 810 242 1008 b 929 663 757 1008 888 878 l 772 654 b 513 871 746 789 663 871 b 217 492 333 871 217 726 b 511 115 217 256 335 115 b 779 353 671 115 756 206 l 936 344 b 511 -22 899 121 754 -22 "},"Č":{"ha":990,"x_min":0,"x_max":0,"o":"m 418 1268 l 510 1144 l 601 1268 l 714 1268 l 586 1075 l 433 1075 l 306 1268 m 511 -22 b 61 492 244 -22 61 171 b 513 1008 61 810 242 1008 b 929 663 757 1008 888 878 l 772 654 b 513 871 746 789 663 871 b 217 492 333 871 217 726 b 511 115 217 256 335 115 b 779 353 671 115 756 206 l 936 344 b 511 -22 899 121 754 -22 "},"Ç":{"ha":990,"x_min":0,"x_max":0,"o":"m 503 -311 b 335 -200 413 -311 356 -264 l 413 -169 b 499 -225 428 -208 454 -225 b 571 -172 544 -225 571 -206 b 471 -112 571 -137 554 -112 l 426 -67 l 456 -19 b 61 492 219 6 61 194 b 513 1008 61 810 242 1008 b 929 663 757 1008 888 878 l 772 654 b 513 871 746 789 663 871 b 217 492 333 871 217 726 b 511 115 217 256 335 115 b 779 353 671 115 756 206 l 936 344 b 550 -21 901 133 769 -6 l 531 -47 b 664 -175 622 -53 664 -104 b 503 -311 664 -260 594 -311 "},"Ĉ":{"ha":990,"x_min":0,"x_max":0,"o":"m 433 1268 l 586 1268 l 714 1075 l 601 1075 l 510 1199 l 418 1075 l 306 1075 m 511 -22 b 61 492 244 -22 61 171 b 513 1008 61 810 242 1008 b 929 663 757 1008 888 878 l 772 654 b 513 871 746 789 663 871 b 217 492 333 871 217 726 b 511 115 217 256 335 115 b 779 353 671 115 756 206 l 936 344 b 511 -22 899 121 754 -22 "},"Ċ":{"ha":990,"x_min":0,"x_max":0,"o":"m 433 1240 l 586 1240 l 586 1093 l 433 1093 m 511 -22 b 61 492 244 -22 61 171 b 513 1008 61 810 242 1008 b 929 663 757 1008 888 878 l 772 654 b 513 871 746 789 663 871 b 217 492 333 871 217 726 b 511 115 217 256 335 115 b 779 353 671 115 756 206 l 936 344 b 511 -22 899 121 754 -22 "},"D":{"ha":979,"x_min":0,"x_max":0,"o":"m 119 986 l 436 986 b 918 492 744 986 918 808 b 444 0 918 176 749 0 l 119 0 m 436 138 b 763 492 654 138 763 254 b 436 849 763 732 654 849 l 269 849 l 269 138 "},"Ď":{"ha":979,"x_min":0,"x_max":0,"o":"m 358 1268 l 450 1144 l 542 1268 l 654 1268 l 526 1075 l 372 1075 l 244 1268 m 119 986 l 436 986 b 918 492 744 986 918 808 b 444 0 918 176 749 0 l 119 0 m 436 138 b 763 492 654 138 763 254 b 436 849 763 732 654 849 l 269 849 l 269 138 "},"Đ":{"ha":979,"x_min":0,"x_max":0,"o":"m 119 431 l 22 431 l 22 556 l 119 556 l 119 986 l 436 986 b 918 492 744 986 918 808 b 444 0 918 176 749 0 l 119 0 m 436 138 b 763 492 654 138 763 254 b 436 849 763 732 654 849 l 269 849 l 269 556 l 542 556 l 542 431 l 269 431 l 269 138 "},"Ð":{"ha":979,"x_min":0,"x_max":0,"o":"m 119 431 l 22 431 l 22 556 l 119 556 l 119 986 l 436 986 b 918 492 744 986 918 808 b 444 0 918 176 749 0 l 119 0 m 436 138 b 763 492 654 138 763 254 b 436 849 763 732 654 849 l 269 849 l 269 556 l 542 556 l 542 431 l 269 431 l 269 138 "},"E":{"ha":846,"x_min":0,"x_max":0,"o":"m 119 986 l 761 986 l 761 849 l 269 849 l 269 561 l 744 561 l 744 428 l 269 428 l 269 138 l 772 138 l 772 0 l 119 0 "},"É":{"ha":846,"x_min":0,"x_max":0,"o":"m 465 1261 l 619 1261 l 494 1075 l 376 1075 m 119 986 l 761 986 l 761 849 l 269 849 l 269 561 l 744 561 l 744 428 l 269 428 l 269 138 l 772 138 l 772 0 l 119 0 "},"Ě":{"ha":846,"x_min":0,"x_max":0,"o":"m 351 1268 l 443 1144 l 533 1268 l 647 1268 l 519 1075 l 365 1075 l 238 1268 m 119 986 l 761 986 l 761 849 l 269 849 l 269 561 l 744 561 l 744 428 l 269 428 l 269 138 l 772 138 l 772 0 l 119 0 "},"Ê":{"ha":846,"x_min":0,"x_max":0,"o":"m 365 1268 l 519 1268 l 647 1075 l 533 1075 l 443 1199 l 351 1075 l 238 1075 m 119 986 l 761 986 l 761 849 l 269 849 l 269 561 l 744 561 l 744 428 l 269 428 l 269 138 l 772 138 l 772 0 l 119 0 "},"Ë":{"ha":846,"x_min":0,"x_max":0,"o":"m 239 1239 l 386 1239 l 386 1092 l 239 1092 m 499 1239 l 647 1239 l 647 1092 l 499 1092 m 119 986 l 761 986 l 761 849 l 269 849 l 269 561 l 744 561 l 744 428 l 269 428 l 269 138 l 772 138 l 772 0 l 119 0 "},"Ė":{"ha":846,"x_min":0,"x_max":0,"o":"m 365 1240 l 519 1240 l 519 1093 l 365 1093 m 119 986 l 761 986 l 761 849 l 269 849 l 269 561 l 744 561 l 744 428 l 269 428 l 269 138 l 772 138 l 772 0 l 119 0 "},"È":{"ha":846,"x_min":0,"x_max":0,"o":"m 267 1261 l 421 1261 l 510 1075 l 392 1075 m 119 986 l 761 986 l 761 849 l 269 849 l 269 561 l 744 561 l 744 428 l 269 428 l 269 138 l 772 138 l 772 0 l 119 0 "},"Ē":{"ha":846,"x_min":0,"x_max":0,"o":"m 249 1225 l 636 1225 l 636 1107 l 249 1107 m 119 986 l 761 986 l 761 849 l 269 849 l 269 561 l 744 561 l 744 428 l 269 428 l 269 138 l 772 138 l 772 0 l 119 0 "},"Ę":{"ha":846,"x_min":0,"x_max":0,"o":"m 119 986 l 761 986 l 761 849 l 269 849 l 269 561 l 744 561 l 744 428 l 269 428 l 269 138 l 772 138 l 772 0 l 726 -62 b 682 -156 693 -107 682 -132 b 721 -190 682 -178 699 -190 b 786 -172 747 -190 769 -183 l 822 -258 b 693 -294 800 -279 744 -294 b 554 -190 607 -294 554 -258 b 631 -29 554 -136 593 -79 l 653 0 l 119 0 "},"Ẽ":{"ha":846,"x_min":0,"x_max":0,"o":"m 524 1090 b 424 1129 485 1090 456 1103 b 357 1163 394 1153 382 1163 b 300 1081 326 1163 303 1144 l 217 1081 b 356 1256 219 1193 274 1256 b 464 1214 400 1256 431 1240 b 528 1183 490 1192 507 1183 b 585 1268 561 1183 579 1201 l 667 1268 b 524 1090 663 1157 610 1090 m 119 986 l 761 986 l 761 849 l 269 849 l 269 561 l 744 561 l 744 428 l 269 428 l 269 138 l 772 138 l 772 0 l 119 0 "},"Ə":{"ha":1011,"x_min":0,"x_max":0,"o":"m 950 493 b 494 -22 950 164 756 -22 b 61 476 269 -22 61 146 l 61 549 l 793 549 b 494 871 778 754 651 871 b 249 692 388 871 297 811 l 90 704 b 494 1008 149 892 299 1008 b 950 493 769 1008 950 813 m 496 115 b 792 415 653 115 774 218 l 222 415 b 496 115 247 217 346 115 "},"F":{"ha":826,"x_min":0,"x_max":0,"o":"m 119 986 l 760 986 l 760 849 l 269 849 l 269 549 l 735 549 l 735 415 l 269 415 l 269 0 l 119 0 "},"G":{"ha":990,"x_min":0,"x_max":0,"o":"m 507 -22 b 61 492 226 -22 61 192 b 513 1008 61 788 229 1008 b 919 676 756 1008 881 868 l 763 668 b 513 871 739 789 668 871 b 217 492 307 871 217 699 b 514 115 217 276 308 115 b 779 376 675 115 774 232 l 515 376 l 515 503 l 922 503 l 922 0 l 819 0 l 813 157 b 507 -22 764 50 643 -22 "},"Ğ":{"ha":990,"x_min":0,"x_max":0,"o":"m 513 1079 b 311 1267 394 1079 317 1150 l 404 1267 b 513 1175 413 1203 451 1175 b 621 1267 574 1175 613 1203 l 714 1267 b 513 1079 708 1150 632 1079 m 507 -22 b 61 492 226 -22 61 192 b 513 1008 61 788 229 1008 b 919 676 756 1008 881 868 l 763 668 b 513 871 739 789 668 871 b 217 492 307 871 217 699 b 514 115 217 276 308 115 b 779 376 675 115 774 232 l 515 376 l 515 503 l 922 503 l 922 0 l 819 0 l 813 157 b 507 -22 764 50 643 -22 "},"Ǧ":{"ha":990,"x_min":0,"x_max":0,"o":"m 422 1268 l 513 1144 l 604 1268 l 718 1268 l 590 1075 l 436 1075 l 308 1268 m 507 -22 b 61 492 226 -22 61 192 b 513 1008 61 788 229 1008 b 919 676 756 1008 881 868 l 763 668 b 513 871 739 789 668 871 b 217 492 307 871 217 699 b 514 115 217 276 308 115 b 779 376 675 115 774 232 l 515 376 l 515 503 l 922 503 l 922 0 l 819 0 l 813 157 b 507 -22 764 50 643 -22 "},"Ĝ":{"ha":990,"x_min":0,"x_max":0,"o":"m 436 1268 l 590 1268 l 718 1075 l 604 1075 l 513 1199 l 422 1075 l 308 1075 m 507 -22 b 61 492 226 -22 61 192 b 513 1008 61 788 229 1008 b 919 676 756 1008 881 868 l 763 668 b 513 871 739 789 668 871 b 217 492 307 871 217 699 b 514 115 217 276 308 115 b 779 376 675 115 774 232 l 515 376 l 515 503 l 922 503 l 922 0 l 819 0 l 813 157 b 507 -22 764 50 643 -22 "},"Ģ":{"ha":990,"x_min":0,"x_max":0,"o":"m 507 -22 b 61 492 226 -22 61 192 b 513 1008 61 788 229 1008 b 919 676 756 1008 881 868 l 763 668 b 513 871 739 789 668 871 b 217 492 307 871 217 699 b 514 115 217 276 308 115 b 779 376 675 115 774 232 l 515 376 l 515 503 l 922 503 l 922 0 l 819 0 l 813 157 b 507 -22 764 50 643 -22 m 489 -208 l 440 -208 l 440 -72 l 593 -72 l 593 -196 l 508 -339 l 414 -339 "},"Ġ":{"ha":990,"x_min":0,"x_max":0,"o":"m 436 1240 l 590 1240 l 590 1093 l 436 1093 m 507 -22 b 61 492 226 -22 61 192 b 513 1008 61 788 229 1008 b 919 676 756 1008 881 868 l 763 668 b 513 871 739 789 668 871 b 217 492 307 871 217 699 b 514 115 217 276 308 115 b 779 376 675 115 774 232 l 515 376 l 515 503 l 922 503 l 922 0 l 819 0 l 813 157 b 507 -22 764 50 643 -22 "},"Ḡ":{"ha":990,"x_min":0,"x_max":0,"o":"m 319 1225 l 707 1225 l 707 1107 l 319 1107 m 507 -22 b 61 492 226 -22 61 192 b 513 1008 61 788 229 1008 b 919 676 756 1008 881 868 l 763 668 b 513 871 739 789 668 871 b 217 492 307 871 217 699 b 514 115 217 276 308 115 b 779 376 675 115 774 232 l 515 376 l 515 503 l 922 503 l 922 0 l 819 0 l 813 157 b 507 -22 764 50 643 -22 "},"Ǥ":{"ha":1050,"x_min":0,"x_max":0,"o":"m 511 -22 b 61 492 217 -22 61 203 b 517 1008 61 781 225 1008 b 919 676 746 1008 881 878 l 763 668 b 515 871 740 785 671 871 b 217 492 304 871 217 699 b 510 115 217 275 308 115 b 728 217 611 115 683 153 l 515 217 l 515 314 l 769 314 b 779 389 775 338 778 363 l 515 389 l 515 503 l 922 503 l 922 443 b 911 314 922 397 918 354 l 996 314 l 996 217 l 885 217 b 511 -22 825 61 696 -22 "},"H":{"ha":994,"x_min":0,"x_max":0,"o":"m 119 986 l 269 986 l 269 564 l 725 564 l 725 986 l 875 986 l 875 0 l 725 0 l 725 428 l 269 428 l 269 0 l 119 0 "},"Ħ":{"ha":994,"x_min":0,"x_max":0,"o":"m 119 729 l 17 729 l 17 856 l 119 856 l 119 986 l 269 986 l 269 856 l 725 856 l 725 986 l 875 986 l 875 856 l 978 856 l 978 729 l 875 729 l 875 0 l 725 0 l 725 428 l 269 428 l 269 0 l 119 0 m 725 564 l 725 729 l 269 729 l 269 564 "},"Ĥ":{"ha":994,"x_min":0,"x_max":0,"o":"m 421 1268 l 575 1268 l 703 1075 l 589 1075 l 497 1199 l 406 1075 l 293 1075 m 119 986 l 269 986 l 269 564 l 725 564 l 725 986 l 875 986 l 875 0 l 725 0 l 725 428 l 269 428 l 269 0 l 119 0 "},"I":{"ha":389,"x_min":0,"x_max":0,"o":"m 119 986 l 269 986 l 269 0 l 119 0 "},"Ĳ":{"ha":1207,"x_min":0,"x_max":0,"o":"m 119 986 l 269 986 l 269 0 l 119 0 m 778 -22 b 449 332 579 -22 450 125 l 601 340 b 778 115 603 193 667 115 b 958 347 893 115 958 196 l 958 986 l 1108 986 l 1108 347 b 778 -22 1108 121 979 -22 "},"Í":{"ha":389,"x_min":0,"x_max":0,"o":"m 217 1261 l 371 1261 l 246 1075 l 129 1075 m 119 986 l 269 986 l 269 0 l 119 0 "},"Î":{"ha":389,"x_min":0,"x_max":0,"o":"m 118 1268 l 271 1268 l 399 1075 l 286 1075 l 194 1199 l 103 1075 l -10 1075 m 119 986 l 269 986 l 269 0 l 119 0 "},"Ï":{"ha":389,"x_min":0,"x_max":0,"o":"m -10 1239 l 138 1239 l 138 1092 l -10 1092 m 251 1239 l 399 1239 l 399 1092 l 251 1092 m 119 986 l 269 986 l 269 0 l 119 0 "},"İ":{"ha":389,"x_min":0,"x_max":0,"o":"m 118 1240 l 271 1240 l 271 1093 l 118 1093 m 119 986 l 269 986 l 269 0 l 119 0 "},"Ì":{"ha":389,"x_min":0,"x_max":0,"o":"m 18 1261 l 174 1261 l 261 1075 l 143 1075 m 119 986 l 269 986 l 269 0 l 119 0 "},"Ī":{"ha":389,"x_min":0,"x_max":0,"o":"m 1 1225 l 388 1225 l 388 1107 l 1 1107 m 119 986 l 269 986 l 269 0 l 119 0 "},"Į":{"ha":389,"x_min":0,"x_max":0,"o":"m 119 986 l 269 986 l 269 0 l 224 -62 b 179 -156 190 -107 179 -132 b 218 -190 179 -178 196 -190 b 283 -172 244 -190 267 -183 l 319 -258 b 190 -294 297 -279 242 -294 b 51 -190 104 -294 51 -258 b 128 -29 51 -136 90 -79 l 150 0 l 119 0 "},"Ĩ":{"ha":389,"x_min":0,"x_max":0,"o":"m 275 1090 b 175 1129 236 1090 207 1103 b 108 1163 147 1153 133 1163 b 51 1081 78 1163 54 1144 l -32 1081 b 108 1256 -29 1193 26 1256 b 215 1214 153 1256 182 1240 b 281 1183 243 1192 260 1183 b 336 1268 313 1183 331 1201 l 419 1268 b 275 1090 414 1157 361 1090 m 119 986 l 269 986 l 269 0 l 119 0 "},"J":{"ha":843,"x_min":0,"x_max":0,"o":"m 414 -22 b 85 332 215 -22 86 125 l 238 340 b 414 115 239 193 303 115 b 594 347 529 115 594 196 l 594 986 l 744 986 l 744 347 b 414 -22 744 121 615 -22 "},"Ĵ":{"ha":843,"x_min":0,"x_max":0,"o":"m 593 1268 l 747 1268 l 875 1075 l 763 1075 l 671 1199 l 579 1075 l 465 1075 m 414 -22 b 85 332 215 -22 86 125 l 238 340 b 414 115 239 193 303 115 b 594 347 529 115 594 196 l 594 986 l 744 986 l 744 347 b 414 -22 744 121 615 -22 "},"K":{"ha":911,"x_min":0,"x_max":0,"o":"m 119 986 l 269 986 l 269 515 l 685 986 l 867 986 l 489 556 l 892 0 l 715 0 l 389 450 l 269 317 l 269 0 l 119 0 "},"Ǩ":{"ha":911,"x_min":0,"x_max":0,"o":"m 372 1268 l 464 1144 l 556 1268 l 668 1268 l 540 1075 l 388 1075 l 260 1268 m 119 986 l 269 986 l 269 515 l 685 986 l 867 986 l 489 556 l 892 0 l 715 0 l 389 450 l 269 317 l 269 0 l 119 0 "},"Ķ":{"ha":911,"x_min":0,"x_max":0,"o":"m 119 986 l 269 986 l 269 515 l 685 986 l 867 986 l 489 556 l 892 0 l 715 0 l 389 450 l 269 317 l 269 0 l 119 0 m 460 -208 l 410 -208 l 410 -72 l 563 -72 l 563 -196 l 479 -339 l 385 -339 "},"L":{"ha":810,"x_min":0,"x_max":0,"o":"m 119 986 l 269 986 l 269 138 l 750 138 l 750 0 l 119 0 "},"Ĺ":{"ha":810,"x_min":0,"x_max":0,"o":"m 217 1261 l 371 1261 l 246 1075 l 129 1075 m 119 986 l 269 986 l 269 138 l 750 138 l 750 0 l 119 0 "},"Ľ":{"ha":810,"x_min":0,"x_max":0,"o":"m 119 986 l 269 986 l 269 138 l 750 138 l 750 0 l 119 0 m 589 986 l 726 986 l 653 618 l 547 618 "},"Ļ":{"ha":810,"x_min":0,"x_max":0,"o":"m 119 986 l 269 986 l 269 138 l 750 138 l 750 0 l 119 0 m 408 -208 l 358 -208 l 358 -72 l 511 -72 l 511 -196 l 428 -339 l 333 -339 "},"Ł":{"ha":810,"x_min":0,"x_max":0,"o":"m 119 404 l 21 354 l 21 472 l 119 522 l 119 986 l 269 986 l 269 599 l 471 700 l 471 583 l 269 481 l 269 138 l 750 138 l 750 0 l 119 0 "},"M":{"ha":1236,"x_min":0,"x_max":0,"o":"m 119 986 l 325 986 l 618 176 l 911 986 l 1117 986 l 1117 0 l 967 0 l 967 722 l 701 1 l 535 1 l 269 722 l 269 0 l 119 0 "},"N":{"ha":1035,"x_min":0,"x_max":0,"o":"m 119 986 l 310 986 l 765 182 l 765 986 l 915 986 l 915 0 l 718 0 l 269 786 l 269 0 l 119 0 "},"Ń":{"ha":1035,"x_min":0,"x_max":0,"o":"m 557 1261 l 711 1261 l 586 1075 l 468 1075 m 119 986 l 310 986 l 765 182 l 765 986 l 915 986 l 915 0 l 718 0 l 269 786 l 269 0 l 119 0 "},"Ň":{"ha":1035,"x_min":0,"x_max":0,"o":"m 443 1268 l 533 1144 l 625 1268 l 739 1268 l 611 1075 l 457 1075 l 329 1268 m 119 986 l 310 986 l 765 182 l 765 986 l 915 986 l 915 0 l 718 0 l 269 786 l 269 0 l 119 0 "},"Ņ":{"ha":1035,"x_min":0,"x_max":0,"o":"m 119 986 l 310 986 l 765 182 l 765 986 l 915 986 l 915 0 l 718 0 l 269 786 l 269 0 l 119 0 m 492 -208 l 442 -208 l 442 -72 l 594 -72 l 594 -196 l 511 -339 l 417 -339 "},"Ñ":{"ha":1035,"x_min":0,"x_max":0,"o":"m 614 1090 b 514 1129 576 1090 547 1103 b 449 1163 486 1153 474 1163 b 390 1081 417 1163 394 1144 l 308 1081 b 447 1256 310 1193 365 1256 b 556 1214 492 1256 522 1240 b 619 1183 582 1192 599 1183 b 675 1268 651 1183 671 1201 l 758 1268 b 614 1090 754 1157 701 1090 m 119 986 l 310 986 l 765 182 l 765 986 l 915 986 l 915 0 l 718 0 l 269 786 l 269 0 l 119 0 "},"Ŋ":{"ha":1035,"x_min":0,"x_max":0,"o":"m 119 986 l 310 986 l 765 183 l 765 986 l 915 986 l 915 -10 b 703 -214 915 -135 836 -214 l 547 -214 l 547 -92 l 686 -92 b 769 -11 742 -92 769 -62 l 769 0 l 718 0 l 269 785 l 269 0 l 119 0 "},"O":{"ha":1043,"x_min":0,"x_max":0,"o":"m 521 -22 b 61 492 235 -22 61 172 b 521 1008 61 811 235 1008 b 982 492 810 1008 982 811 b 521 -22 982 172 810 -22 m 521 115 b 826 492 713 115 826 254 b 521 871 826 729 713 871 b 217 492 331 871 217 729 b 521 115 217 254 331 115 "},"Ó":{"ha":1043,"x_min":0,"x_max":0,"o":"m 543 1261 l 699 1261 l 574 1075 l 456 1075 m 521 -22 b 61 492 235 -22 61 172 b 521 1008 61 811 235 1008 b 982 492 810 1008 982 811 b 521 -22 982 172 810 -22 m 521 115 b 826 492 713 115 826 254 b 521 871 826 729 713 871 b 217 492 331 871 217 729 b 521 115 217 254 331 115 "},"Ô":{"ha":1043,"x_min":0,"x_max":0,"o":"m 444 1268 l 599 1268 l 726 1075 l 613 1075 l 521 1199 l 429 1075 l 317 1075 m 521 -22 b 61 492 235 -22 61 172 b 521 1008 61 811 235 1008 b 982 492 810 1008 982 811 b 521 -22 982 172 810 -22 m 521 115 b 826 492 713 115 826 254 b 521 871 826 729 713 871 b 217 492 331 871 217 729 b 521 115 217 254 331 115 "},"Ö":{"ha":1043,"x_min":0,"x_max":0,"o":"m 317 1239 l 465 1239 l 465 1092 l 317 1092 m 578 1239 l 725 1239 l 725 1092 l 578 1092 m 521 -22 b 61 492 235 -22 61 172 b 521 1008 61 811 235 1008 b 982 492 810 1008 982 811 b 521 -22 982 172 810 -22 m 521 115 b 826 492 713 115 826 254 b 521 871 826 729 713 871 b 217 492 331 871 217 729 b 521 115 217 254 331 115 "},"Ò":{"ha":1043,"x_min":0,"x_max":0,"o":"m 346 1261 l 500 1261 l 588 1075 l 471 1075 m 521 -22 b 61 492 235 -22 61 172 b 521 1008 61 811 235 1008 b 982 492 810 1008 982 811 b 521 -22 982 172 810 -22 m 521 115 b 826 492 713 115 826 254 b 521 871 826 729 713 871 b 217 492 331 871 217 729 b 521 115 217 254 331 115 "},"Ő":{"ha":1043,"x_min":0,"x_max":0,"o":"m 446 1261 l 600 1261 l 475 1075 l 357 1075 m 649 1261 l 803 1261 l 678 1075 l 561 1075 m 521 -22 b 61 492 235 -22 61 172 b 521 1008 61 811 235 1008 b 982 492 810 1008 982 811 b 521 -22 982 172 810 -22 m 521 115 b 826 492 713 115 826 254 b 521 871 826 729 713 871 b 217 492 331 871 217 729 b 521 115 217 254 331 115 "},"Ō":{"ha":1043,"x_min":0,"x_max":0,"o":"m 328 1225 l 714 1225 l 714 1107 l 328 1107 m 521 -22 b 61 492 235 -22 61 172 b 521 1008 61 811 235 1008 b 982 492 810 1008 982 811 b 521 -22 982 172 810 -22 m 521 115 b 826 492 713 115 826 254 b 521 871 826 729 713 871 b 217 492 331 871 217 729 b 521 115 217 254 331 115 "},"Ø":{"ha":1043,"x_min":0,"x_max":0,"o":"m 192 107 b 61 492 107 196 61 326 b 521 1008 61 811 235 1008 b 768 946 617 1008 700 986 l 811 1008 l 940 1008 l 851 879 b 982 492 936 789 982 657 b 521 -22 982 172 810 -22 b 275 40 426 -22 343 0 l 232 -22 l 103 -22 m 217 492 b 281 238 217 386 239 300 l 686 825 b 521 871 640 856 585 871 b 217 492 331 871 217 729 m 521 115 b 826 492 713 115 826 254 b 761 749 826 597 804 685 l 357 160 b 521 115 403 131 457 115 "},"Õ":{"ha":1043,"x_min":0,"x_max":0,"o":"m 601 1090 b 501 1129 564 1090 533 1103 b 436 1163 474 1153 461 1163 b 378 1081 404 1163 382 1144 l 296 1081 b 435 1256 297 1193 353 1256 b 543 1214 479 1256 510 1240 b 607 1183 569 1192 586 1183 b 663 1268 639 1183 658 1201 l 746 1268 b 601 1090 742 1157 688 1090 m 521 -22 b 61 492 235 -22 61 172 b 521 1008 61 811 235 1008 b 982 492 810 1008 982 811 b 521 -22 982 172 810 -22 m 521 115 b 826 492 713 115 826 254 b 521 871 826 729 713 871 b 217 492 331 871 217 729 b 521 115 217 254 331 115 "},"Œ":{"ha":1526,"x_min":0,"x_max":0,"o":"m 519 -22 b 61 492 232 -22 61 183 b 519 1008 61 801 231 1008 b 840 861 660 1008 768 956 l 840 986 l 1440 986 l 1440 849 l 990 849 l 990 561 l 1424 561 l 1424 428 l 990 428 l 990 138 l 1451 138 l 1451 0 l 840 0 l 840 125 b 519 -22 768 32 660 -22 m 519 115 b 826 492 726 115 826 271 b 519 871 826 708 726 871 b 217 492 315 871 217 710 b 519 115 217 271 317 115 "},"P":{"ha":913,"x_min":0,"x_max":0,"o":"m 119 986 l 488 986 b 846 679 713 986 846 871 b 488 369 846 486 713 369 l 269 369 l 269 0 l 119 0 m 483 506 b 690 679 619 506 690 565 b 483 849 690 792 619 849 l 269 849 l 269 506 "},"Þ":{"ha":871,"x_min":0,"x_max":0,"o":"m 119 986 l 269 986 l 269 808 l 449 808 b 804 508 674 808 804 697 b 449 208 804 318 674 208 l 269 208 l 269 0 l 119 0 m 269 671 l 269 344 l 447 344 b 649 508 582 344 649 400 b 447 671 649 617 582 671 "},"Q":{"ha":1035,"x_min":0,"x_max":0,"o":"m 690 10 b 517 -22 646 -10 583 -22 b 61 492 231 -22 61 201 b 517 1008 61 781 225 1008 b 974 492 813 1008 974 781 b 788 64 974 310 907 156 l 913 -93 l 769 -93 m 517 115 b 601 128 551 115 581 118 l 461 304 l 604 304 l 699 179 b 818 492 776 244 818 349 b 517 871 818 697 721 871 b 217 492 313 871 217 697 b 517 115 217 288 315 115 "},"R":{"ha":944,"x_min":0,"x_max":0,"o":"m 119 986 l 513 986 b 854 689 722 986 854 871 b 686 458 854 574 778 486 b 838 288 776 444 829 389 l 864 0 l 713 0 l 689 268 b 531 385 683 349 639 385 l 269 385 l 269 0 l 119 0 m 515 522 b 699 685 628 522 699 581 b 503 849 699 790 629 849 l 269 849 l 269 522 "},"Ŕ":{"ha":944,"x_min":0,"x_max":0,"o":"m 494 1261 l 649 1261 l 524 1075 l 406 1075 m 119 986 l 513 986 b 854 689 722 986 854 871 b 686 458 854 574 778 486 b 838 288 776 444 829 389 l 864 0 l 713 0 l 689 268 b 531 385 683 349 639 385 l 269 385 l 269 0 l 119 0 m 515 522 b 699 685 628 522 699 581 b 503 849 699 790 629 849 l 269 849 l 269 522 "},"Ř":{"ha":944,"x_min":0,"x_max":0,"o":"m 381 1268 l 472 1144 l 563 1268 l 676 1268 l 549 1075 l 394 1075 l 267 1268 m 119 986 l 513 986 b 854 689 722 986 854 871 b 686 458 854 574 778 486 b 838 288 776 444 829 389 l 864 0 l 713 0 l 689 268 b 531 385 683 349 639 385 l 269 385 l 269 0 l 119 0 m 515 522 b 699 685 628 522 699 581 b 503 849 699 790 629 849 l 269 849 l 269 522 "},"Ŗ":{"ha":944,"x_min":0,"x_max":0,"o":"m 119 986 l 513 986 b 854 689 722 986 854 871 b 686 458 854 574 778 486 b 838 288 776 444 829 389 l 864 0 l 713 0 l 689 268 b 531 385 683 349 639 385 l 269 385 l 269 0 l 119 0 m 515 522 b 699 685 628 522 699 581 b 503 849 699 790 629 849 l 269 849 l 269 522 m 464 -208 l 414 -208 l 414 -72 l 567 -72 l 567 -196 l 483 -339 l 389 -339 "},"S":{"ha":908,"x_min":0,"x_max":0,"o":"m 475 -22 b 75 318 239 -22 92 115 l 229 328 b 478 114 247 190 331 114 b 679 256 604 114 679 163 b 418 443 679 339 636 390 b 96 722 182 500 96 568 b 438 1008 96 892 225 1008 b 814 688 663 1008 792 874 l 660 679 b 435 872 646 793 569 872 b 250 728 321 872 250 814 b 490 564 250 642 299 610 b 833 264 746 504 833 408 b 475 -22 833 88 688 -22 "},"Ś":{"ha":908,"x_min":0,"x_max":0,"o":"m 460 1261 l 614 1261 l 489 1075 l 372 1075 m 475 -22 b 75 318 239 -22 92 115 l 229 328 b 478 114 247 190 331 114 b 679 256 604 114 679 163 b 418 443 679 339 636 390 b 96 722 182 500 96 568 b 438 1008 96 892 225 1008 b 814 688 663 1008 792 874 l 660 679 b 435 872 646 793 569 872 b 250 728 321 872 250 814 b 490 564 250 642 299 610 b 833 264 746 504 833 408 b 475 -22 833 88 688 -22 "},"Š":{"ha":908,"x_min":0,"x_max":0,"o":"m 346 1268 l 438 1144 l 529 1268 l 642 1268 l 514 1075 l 361 1075 l 233 1268 m 475 -22 b 75 318 239 -22 92 115 l 229 328 b 478 114 247 190 331 114 b 679 256 604 114 679 163 b 418 443 679 339 636 390 b 96 722 182 500 96 568 b 438 1008 96 892 225 1008 b 814 688 663 1008 792 874 l 660 679 b 435 872 646 793 569 872 b 250 728 321 872 250 814 b 490 564 250 642 299 610 b 833 264 746 504 833 408 b 475 -22 833 88 688 -22 "},"Ş":{"ha":908,"x_min":0,"x_max":0,"o":"m 453 -311 b 285 -200 363 -311 306 -264 l 363 -169 b 449 -225 379 -208 404 -225 b 521 -172 494 -225 521 -206 b 421 -112 521 -137 504 -112 l 376 -67 l 407 -18 b 75 318 210 6 89 136 l 229 328 b 478 114 247 190 331 114 b 679 256 604 114 679 163 b 418 443 679 339 636 390 b 96 722 182 500 96 568 b 438 1008 96 892 225 1008 b 814 688 663 1008 792 874 l 660 679 b 435 872 646 793 569 872 b 250 728 321 872 250 814 b 490 564 250 642 299 610 b 833 264 746 504 833 408 b 500 -22 833 94 699 -14 l 482 -47 b 615 -175 572 -53 615 -104 b 453 -311 615 -260 544 -311 "},"Ŝ":{"ha":908,"x_min":0,"x_max":0,"o":"m 361 1268 l 514 1268 l 642 1075 l 529 1075 l 438 1199 l 346 1075 l 233 1075 m 475 -22 b 75 318 239 -22 92 115 l 229 328 b 478 114 247 190 331 114 b 679 256 604 114 679 163 b 418 443 679 339 636 390 b 96 722 182 500 96 568 b 438 1008 96 892 225 1008 b 814 688 663 1008 792 874 l 660 679 b 435 872 646 793 569 872 b 250 728 321 872 250 814 b 490 564 250 642 299 610 b 833 264 746 504 833 408 b 475 -22 833 88 688 -22 "},"Ș":{"ha":908,"x_min":0,"x_max":0,"o":"m 475 -22 b 75 318 239 -22 92 115 l 229 328 b 478 114 247 190 331 114 b 679 256 604 114 679 163 b 418 443 679 339 636 390 b 96 722 182 500 96 568 b 438 1008 96 892 225 1008 b 814 688 663 1008 792 874 l 660 679 b 435 872 646 793 569 872 b 250 728 321 872 250 814 b 490 564 250 642 299 610 b 833 264 746 504 833 408 b 475 -22 833 88 688 -22 m 438 -208 l 388 -208 l 388 -72 l 540 -72 l 540 -196 l 457 -339 l 363 -339 "},"ẞ":{"ha":983,"x_min":0,"x_max":0,"o":"m 119 681 b 425 986 119 872 232 986 l 843 986 l 843 840 l 569 592 b 903 307 792 576 903 476 b 543 0 903 118 765 0 l 363 0 l 363 138 l 543 138 b 747 306 669 138 747 200 b 528 474 747 413 663 474 l 388 474 l 388 594 l 660 849 l 425 849 b 269 681 324 849 269 790 l 269 0 l 119 0 "},"T":{"ha":789,"x_min":0,"x_max":0,"o":"m 319 849 l 17 849 l 17 986 l 772 986 l 772 849 l 469 849 l 469 0 l 319 0 "},"Ŧ":{"ha":789,"x_min":0,"x_max":0,"o":"m 319 411 l 135 411 l 135 536 l 319 536 l 319 849 l 17 849 l 17 986 l 772 986 l 772 849 l 469 849 l 469 536 l 654 536 l 654 411 l 469 411 l 469 0 l 319 0 "},"Ť":{"ha":789,"x_min":0,"x_max":0,"o":"m 303 1268 l 394 1144 l 486 1268 l 599 1268 l 471 1075 l 317 1075 l 189 1268 m 319 849 l 17 849 l 17 986 l 772 986 l 772 849 l 469 849 l 469 0 l 319 0 "},"Ţ":{"ha":789,"x_min":0,"x_max":0,"o":"m 319 849 l 17 849 l 17 986 l 772 986 l 772 849 l 469 849 l 469 0 l 446 0 l 411 -47 b 544 -175 503 -53 544 -104 b 382 -311 544 -260 475 -311 b 214 -200 292 -311 236 -264 l 292 -169 b 379 -225 308 -208 333 -225 b 451 -172 424 -225 451 -206 b 350 -112 451 -137 435 -112 l 306 -67 l 347 0 l 319 0 "},"Ț":{"ha":789,"x_min":0,"x_max":0,"o":"m 319 849 l 17 849 l 17 986 l 772 986 l 772 849 l 469 849 l 469 0 l 319 0 m 367 -208 l 318 -208 l 318 -72 l 471 -72 l 471 -196 l 386 -339 l 292 -339 "},"U":{"ha":964,"x_min":0,"x_max":0,"o":"m 482 -22 b 99 349 246 -22 99 121 l 99 988 l 249 988 l 249 349 b 482 115 249 199 333 115 b 715 349 631 115 715 199 l 715 988 l 865 988 l 865 349 b 482 -22 865 121 717 -22 "},"Ú":{"ha":964,"x_min":0,"x_max":0,"o":"m 504 1261 l 660 1261 l 535 1075 l 417 1075 m 482 -22 b 99 349 246 -22 99 121 l 99 988 l 249 988 l 249 349 b 482 115 249 199 333 115 b 715 349 631 115 715 199 l 715 988 l 865 988 l 865 349 b 482 -22 865 121 717 -22 "},"Ŭ":{"ha":964,"x_min":0,"x_max":0,"o":"m 482 1079 b 281 1267 364 1079 286 1150 l 374 1267 b 482 1175 382 1203 421 1175 b 589 1267 543 1175 582 1203 l 683 1267 b 482 1079 678 1150 601 1079 m 482 -22 b 99 349 246 -22 99 121 l 99 988 l 249 988 l 249 349 b 482 115 249 199 333 115 b 715 349 631 115 715 199 l 715 988 l 865 988 l 865 349 b 482 -22 865 121 717 -22 "},"Û":{"ha":964,"x_min":0,"x_max":0,"o":"m 406 1268 l 560 1268 l 688 1075 l 574 1075 l 482 1199 l 390 1075 l 278 1075 m 482 -22 b 99 349 246 -22 99 121 l 99 988 l 249 988 l 249 349 b 482 115 249 199 333 115 b 715 349 631 115 715 199 l 715 988 l 865 988 l 865 349 b 482 -22 865 121 717 -22 "},"Ü":{"ha":964,"x_min":0,"x_max":0,"o":"m 278 1239 l 426 1239 l 426 1092 l 278 1092 m 539 1239 l 686 1239 l 686 1092 l 539 1092 m 482 -22 b 99 349 246 -22 99 121 l 99 988 l 249 988 l 249 349 b 482 115 249 199 333 115 b 715 349 631 115 715 199 l 715 988 l 865 988 l 865 349 b 482 -22 865 121 717 -22 "},"Ù":{"ha":964,"x_min":0,"x_max":0,"o":"m 307 1261 l 461 1261 l 549 1075 l 432 1075 m 482 -22 b 99 349 246 -22 99 121 l 99 988 l 249 988 l 249 349 b 482 115 249 199 333 115 b 715 349 631 115 715 199 l 715 988 l 865 988 l 865 349 b 482 -22 865 121 717 -22 "},"Ű":{"ha":964,"x_min":0,"x_max":0,"o":"m 407 1261 l 561 1261 l 436 1075 l 318 1075 m 610 1261 l 764 1261 l 639 1075 l 522 1075 m 482 -22 b 99 349 246 -22 99 121 l 99 988 l 249 988 l 249 349 b 482 115 249 199 333 115 b 715 349 631 115 715 199 l 715 988 l 865 988 l 865 349 b 482 -22 865 121 717 -22 "},"Ū":{"ha":964,"x_min":0,"x_max":0,"o":"m 289 1225 l 675 1225 l 675 1107 l 289 1107 m 482 -22 b 99 349 246 -22 99 121 l 99 988 l 249 988 l 249 349 b 482 115 249 199 333 115 b 715 349 631 115 715 199 l 715 988 l 865 988 l 865 349 b 482 -22 865 121 717 -22 "},"Ų":{"ha":964,"x_min":0,"x_max":0,"o":"m 482 -22 b 99 349 246 -22 99 121 l 99 988 l 249 988 l 249 349 b 482 115 249 199 333 115 b 715 349 631 115 715 199 l 715 988 l 865 988 l 865 349 b 639 3 865 176 781 53 l 593 -60 b 550 -151 561 -104 550 -129 b 589 -187 550 -174 567 -187 b 654 -168 614 -187 638 -181 l 689 -256 b 560 -292 667 -276 613 -292 b 421 -187 474 -292 421 -256 b 497 -26 421 -133 461 -75 l 500 -22 b 482 -22 494 -22 489 -22 "},"Ů":{"ha":964,"x_min":0,"x_max":0,"o":"m 482 1047 b 350 1179 407 1047 350 1104 b 482 1311 350 1254 407 1311 b 615 1179 557 1311 615 1254 b 482 1047 615 1104 557 1047 m 482 1122 b 539 1179 514 1122 539 1147 b 482 1235 539 1211 514 1235 b 426 1179 450 1235 426 1211 b 482 1122 426 1147 450 1122 m 482 -22 b 99 349 246 -22 99 121 l 99 988 l 249 988 l 249 349 b 482 115 249 199 333 115 b 715 349 631 115 715 199 l 715 988 l 865 988 l 865 349 b 482 -22 865 121 717 -22 "},"Ũ":{"ha":964,"x_min":0,"x_max":0,"o":"m 563 1090 b 463 1129 525 1090 494 1103 b 397 1163 435 1153 422 1163 b 339 1081 365 1163 343 1144 l 257 1081 b 396 1256 258 1193 314 1256 b 504 1214 440 1256 471 1240 b 568 1183 531 1192 547 1183 b 624 1268 600 1183 619 1201 l 707 1268 b 563 1090 703 1157 649 1090 m 482 -22 b 99 349 246 -22 99 121 l 99 988 l 249 988 l 249 349 b 482 115 249 199 333 115 b 715 349 631 115 715 199 l 715 988 l 865 988 l 865 349 b 482 -22 865 121 717 -22 "},"V":{"ha":956,"x_min":0,"x_max":0,"o":"m 28 986 l 188 986 l 478 167 l 768 986 l 928 986 l 571 0 l 383 0 "},"W":{"ha":1344,"x_min":0,"x_max":0,"o":"m 53 986 l 213 986 l 404 207 l 596 986 l 749 986 l 940 207 l 1131 986 l 1293 986 l 1031 0 l 856 0 l 672 719 l 489 0 l 314 0 "},"Ẃ":{"ha":1344,"x_min":0,"x_max":0,"o":"m 694 1261 l 849 1261 l 724 1075 l 606 1075 m 53 986 l 213 986 l 404 207 l 596 986 l 749 986 l 940 207 l 1131 986 l 1293 986 l 1031 0 l 856 0 l 672 719 l 489 0 l 314 0 "},"Ŵ":{"ha":1344,"x_min":0,"x_max":0,"o":"m 594 1268 l 749 1268 l 876 1075 l 764 1075 l 672 1199 l 581 1075 l 467 1075 m 53 986 l 213 986 l 404 207 l 596 986 l 749 986 l 940 207 l 1131 986 l 1293 986 l 1031 0 l 856 0 l 672 719 l 489 0 l 314 0 "},"Ẅ":{"ha":1344,"x_min":0,"x_max":0,"o":"m 468 1239 l 615 1239 l 615 1092 l 468 1092 m 728 1239 l 876 1239 l 876 1092 l 728 1092 m 53 986 l 213 986 l 404 207 l 596 986 l 749 986 l 940 207 l 1131 986 l 1293 986 l 1031 0 l 856 0 l 672 719 l 489 0 l 314 0 "},"Ẁ":{"ha":1344,"x_min":0,"x_max":0,"o":"m 496 1261 l 650 1261 l 739 1075 l 621 1075 m 53 986 l 213 986 l 404 207 l 596 986 l 749 986 l 940 207 l 1131 986 l 1293 986 l 1031 0 l 856 0 l 672 719 l 489 0 l 314 0 "},"X":{"ha":879,"x_min":0,"x_max":0,"o":"m 347 494 l 22 986 l 199 986 l 442 611 l 681 986 l 856 986 l 531 497 l 860 0 l 683 0 l 439 381 l 194 0 l 19 0 "},"Y":{"ha":825,"x_min":0,"x_max":0,"o":"m 338 396 l -8 986 l 164 986 l 413 546 l 663 986 l 835 986 l 488 396 l 488 0 l 338 0 "},"Ý":{"ha":825,"x_min":0,"x_max":0,"o":"m 436 1261 l 590 1261 l 465 1075 l 347 1075 m 338 396 l -8 986 l 164 986 l 413 546 l 663 986 l 835 986 l 488 396 l 488 0 l 338 0 "},"Ŷ":{"ha":825,"x_min":0,"x_max":0,"o":"m 336 1268 l 490 1268 l 618 1075 l 504 1075 l 413 1199 l 322 1075 l 208 1075 m 338 396 l -8 986 l 164 986 l 413 546 l 663 986 l 835 986 l 488 396 l 488 0 l 338 0 "},"Ÿ":{"ha":825,"x_min":0,"x_max":0,"o":"m 208 1239 l 357 1239 l 357 1092 l 208 1092 m 469 1239 l 617 1239 l 617 1092 l 469 1092 m 338 396 l -8 986 l 164 986 l 413 546 l 663 986 l 835 986 l 488 396 l 488 0 l 338 0 "},"Ỳ":{"ha":825,"x_min":0,"x_max":0,"o":"m 238 1261 l 392 1261 l 481 1075 l 363 1075 m 338 396 l -8 986 l 164 986 l 413 546 l 663 986 l 835 986 l 488 396 l 488 0 l 338 0 "},"Ỹ":{"ha":825,"x_min":0,"x_max":0,"o":"m 493 1090 b 393 1129 456 1090 426 1103 b 328 1163 365 1153 353 1163 b 269 1081 296 1163 274 1144 l 188 1081 b 326 1256 189 1193 244 1256 b 435 1214 371 1256 401 1240 b 499 1183 461 1192 478 1183 b 554 1268 531 1183 550 1201 l 638 1268 b 493 1090 633 1157 581 1090 m 338 396 l -8 986 l 164 986 l 413 546 l 663 986 l 835 986 l 488 396 l 488 0 l 338 0 "},"Z":{"ha":779,"x_min":0,"x_max":0,"o":"m 39 139 l 547 849 l 58 849 l 58 986 l 725 986 l 725 847 l 214 138 l 740 138 l 740 0 l 39 0 "},"Ź":{"ha":779,"x_min":0,"x_max":0,"o":"m 424 1261 l 578 1261 l 453 1075 l 335 1075 m 39 139 l 547 849 l 58 849 l 58 986 l 725 986 l 725 847 l 214 138 l 740 138 l 740 0 l 39 0 "},"Ž":{"ha":779,"x_min":0,"x_max":0,"o":"m 310 1268 l 401 1144 l 492 1268 l 606 1268 l 478 1075 l 324 1075 l 196 1268 m 39 139 l 547 849 l 58 849 l 58 986 l 725 986 l 725 847 l 214 138 l 740 138 l 740 0 l 39 0 "},"Ż":{"ha":779,"x_min":0,"x_max":0,"o":"m 324 1240 l 478 1240 l 478 1093 l 324 1093 m 39 139 l 547 849 l 58 849 l 58 986 l 725 986 l 725 847 l 214 138 l 740 138 l 740 0 l 39 0 "},"Ꞌ":{"ha":268,"x_min":0,"x_max":0,"o":"m 61 810 l 61 986 l 207 986 l 207 810 l 189 476 l 78 476 "},"a":{"ha":785,"x_min":0,"x_max":0,"o":"m 311 -17 b 58 185 157 -17 58 57 b 294 411 58 311 132 379 l 549 460 b 389 631 549 574 494 631 b 222 507 294 631 242 588 l 71 517 b 389 756 99 664 214 756 b 696 451 589 756 696 643 l 696 164 b 735 117 696 128 707 117 l 761 117 l 761 0 b 707 -4 751 -3 729 -4 b 561 114 622 -4 572 28 b 311 -17 524 36 426 -17 m 335 100 b 549 301 468 100 549 183 l 549 349 l 332 307 b 211 199 243 290 211 256 b 335 100 211 135 256 100 "},"á":{"ha":785,"x_min":0,"x_max":0,"o":"m 417 1014 l 572 1014 l 447 828 l 329 828 m 311 -17 b 58 185 157 -17 58 57 b 294 411 58 311 132 379 l 549 460 b 389 631 549 574 494 631 b 222 507 294 631 242 588 l 71 517 b 389 756 99 664 214 756 b 696 451 589 756 696 643 l 696 164 b 735 117 696 128 707 117 l 761 117 l 761 0 b 707 -4 751 -3 729 -4 b 561 114 622 -4 572 28 b 311 -17 524 36 426 -17 m 335 100 b 549 301 468 100 549 183 l 549 349 l 332 307 b 211 199 243 290 211 256 b 335 100 211 135 256 100 "},"ă":{"ha":785,"x_min":0,"x_max":0,"o":"m 394 832 b 193 1019 276 832 199 903 l 286 1019 b 394 928 294 956 333 928 b 501 1019 456 928 494 956 l 596 1019 b 394 832 590 903 514 832 m 311 -17 b 58 185 157 -17 58 57 b 294 411 58 311 132 379 l 549 460 b 389 631 549 574 494 631 b 222 507 294 631 242 588 l 71 517 b 389 756 99 664 214 756 b 696 451 589 756 696 643 l 696 164 b 735 117 696 128 707 117 l 761 117 l 761 0 b 707 -4 751 -3 729 -4 b 561 114 622 -4 572 28 b 311 -17 524 36 426 -17 m 335 100 b 549 301 468 100 549 183 l 549 349 l 332 307 b 211 199 243 290 211 256 b 335 100 211 135 256 100 "},"ǎ":{"ha":785,"x_min":0,"x_max":0,"o":"m 303 1021 l 394 897 l 486 1021 l 600 1021 l 472 828 l 318 828 l 190 1021 m 311 -17 b 58 185 157 -17 58 57 b 294 411 58 311 132 379 l 549 460 b 389 631 549 574 494 631 b 222 507 294 631 242 588 l 71 517 b 389 756 99 664 214 756 b 696 451 589 756 696 643 l 696 164 b 735 117 696 128 707 117 l 761 117 l 761 0 b 707 -4 751 -3 729 -4 b 561 114 622 -4 572 28 b 311 -17 524 36 426 -17 m 335 100 b 549 301 468 100 549 183 l 549 349 l 332 307 b 211 199 243 290 211 256 b 335 100 211 135 256 100 "},"â":{"ha":785,"x_min":0,"x_max":0,"o":"m 318 1021 l 472 1021 l 600 828 l 486 828 l 394 951 l 303 828 l 190 828 m 311 -17 b 58 185 157 -17 58 57 b 294 411 58 311 132 379 l 549 460 b 389 631 549 574 494 631 b 222 507 294 631 242 588 l 71 517 b 389 756 99 664 214 756 b 696 451 589 756 696 643 l 696 164 b 735 117 696 128 707 117 l 761 117 l 761 0 b 707 -4 751 -3 729 -4 b 561 114 622 -4 572 28 b 311 -17 524 36 426 -17 m 335 100 b 549 301 468 100 549 183 l 549 349 l 332 307 b 211 199 243 290 211 256 b 335 100 211 135 256 100 "},"ä":{"ha":785,"x_min":0,"x_max":0,"o":"m 190 992 l 339 992 l 339 844 l 190 844 m 451 992 l 599 992 l 599 844 l 451 844 m 311 -17 b 58 185 157 -17 58 57 b 294 411 58 311 132 379 l 549 460 b 389 631 549 574 494 631 b 222 507 294 631 242 588 l 71 517 b 389 756 99 664 214 756 b 696 451 589 756 696 643 l 696 164 b 735 117 696 128 707 117 l 761 117 l 761 0 b 707 -4 751 -3 729 -4 b 561 114 622 -4 572 28 b 311 -17 524 36 426 -17 m 335 100 b 549 301 468 100 549 183 l 549 349 l 332 307 b 211 199 243 290 211 256 b 335 100 211 135 256 100 "},"à":{"ha":785,"x_min":0,"x_max":0,"o":"m 219 1014 l 374 1014 l 461 828 l 344 828 m 311 -17 b 58 185 157 -17 58 57 b 294 411 58 311 132 379 l 549 460 b 389 631 549 574 494 631 b 222 507 294 631 242 588 l 71 517 b 389 756 99 664 214 756 b 696 451 589 756 696 643 l 696 164 b 735 117 696 128 707 117 l 761 117 l 761 0 b 707 -4 751 -3 729 -4 b 561 114 622 -4 572 28 b 311 -17 524 36 426 -17 m 335 100 b 549 301 468 100 549 183 l 549 349 l 332 307 b 211 199 243 290 211 256 b 335 100 211 135 256 100 "},"ā":{"ha":785,"x_min":0,"x_max":0,"o":"m 201 978 l 588 978 l 588 860 l 201 860 m 311 -17 b 58 185 157 -17 58 57 b 294 411 58 311 132 379 l 549 460 b 389 631 549 574 494 631 b 222 507 294 631 242 588 l 71 517 b 389 756 99 664 214 756 b 696 451 589 756 696 643 l 696 164 b 735 117 696 128 707 117 l 761 117 l 761 0 b 707 -4 751 -3 729 -4 b 561 114 622 -4 572 28 b 311 -17 524 36 426 -17 m 335 100 b 549 301 468 100 549 183 l 549 349 l 332 307 b 211 199 243 290 211 256 b 335 100 211 135 256 100 "},"ą":{"ha":785,"x_min":0,"x_max":0,"o":"m 311 -17 b 58 185 157 -17 58 57 b 294 411 58 311 132 379 l 549 460 b 389 631 549 574 494 631 b 222 507 294 631 242 588 l 71 517 b 389 756 99 664 214 756 b 696 451 589 756 696 643 l 696 164 b 735 117 696 128 707 117 l 761 117 l 761 0 l 715 -62 b 672 -156 683 -107 672 -132 b 711 -190 672 -178 689 -190 b 776 -172 736 -190 760 -183 l 811 -258 b 682 -294 789 -279 735 -294 b 543 -190 596 -294 543 -258 b 619 -29 543 -136 583 -79 l 644 4 b 561 114 597 18 569 51 b 311 -17 524 36 426 -17 m 335 100 b 549 301 468 100 549 183 l 549 349 l 332 307 b 211 199 243 290 211 256 b 335 100 211 135 256 100 "},"å":{"ha":785,"x_min":0,"x_max":0,"o":"m 394 800 b 263 932 319 800 263 857 b 394 1064 263 1007 319 1064 b 528 932 469 1064 528 1007 b 394 800 528 857 469 800 m 394 875 b 451 932 426 875 451 900 b 394 988 451 964 426 988 b 339 932 363 988 339 964 b 394 875 339 900 363 875 m 311 -17 b 58 185 157 -17 58 57 b 294 411 58 311 132 379 l 549 460 b 389 631 549 574 494 631 b 222 507 294 631 242 588 l 71 517 b 389 756 99 664 214 756 b 696 451 589 756 696 643 l 696 164 b 735 117 696 128 707 117 l 761 117 l 761 0 b 707 -4 751 -3 729 -4 b 561 114 622 -4 572 28 b 311 -17 524 36 426 -17 m 335 100 b 549 301 468 100 549 183 l 549 349 l 332 307 b 211 199 243 290 211 256 b 335 100 211 135 256 100 "},"ã":{"ha":785,"x_min":0,"x_max":0,"o":"m 475 843 b 375 882 438 843 407 856 b 310 915 347 906 335 915 b 251 833 278 915 256 897 l 169 833 b 308 1008 171 946 226 1008 b 417 967 353 1008 383 993 b 481 936 443 944 460 936 b 536 1021 513 936 532 954 l 619 1021 b 475 843 615 910 561 843 m 311 -17 b 58 185 157 -17 58 57 b 294 411 58 311 132 379 l 549 460 b 389 631 549 574 494 631 b 222 507 294 631 242 588 l 71 517 b 389 756 99 664 214 756 b 696 451 589 756 696 643 l 696 164 b 735 117 696 128 707 117 l 761 117 l 761 0 b 707 -4 751 -3 729 -4 b 561 114 622 -4 572 28 b 311 -17 524 36 426 -17 m 335 100 b 549 301 468 100 549 183 l 549 349 l 332 307 b 211 199 243 290 211 256 b 335 100 211 135 256 100 "},"æ":{"ha":1294,"x_min":0,"x_max":0,"o":"m 313 -17 b 58 185 164 -17 58 53 b 294 411 58 335 165 390 l 549 449 b 386 631 547 575 497 631 b 222 507 292 631 239 581 l 71 517 b 385 756 100 664 214 756 b 643 646 503 756 590 719 b 899 756 703 715 790 756 b 1238 364 1100 756 1238 613 l 1238 326 l 706 326 b 904 110 714 182 788 110 b 1072 222 992 110 1050 153 l 1226 213 b 903 -17 1186 75 1067 -17 b 608 142 769 -17 667 42 b 313 -17 556 43 450 -17 m 1081 438 b 899 631 1071 568 1000 631 b 706 438 793 631 722 563 m 354 99 b 549 300 465 104 549 172 l 549 338 l 332 307 b 211 199 235 293 211 251 b 354 99 211 133 256 94 "},"b":{"ha":844,"x_min":0,"x_max":0,"o":"m 472 -17 b 246 111 369 -17 288 31 l 242 0 l 104 0 l 104 986 l 251 986 l 251 635 b 472 756 289 699 369 756 b 786 369 665 756 786 606 b 472 -17 786 133 665 -17 m 449 111 b 633 369 561 111 633 210 b 450 628 633 532 563 628 b 251 369 325 628 251 532 b 449 111 251 210 325 111 "},"c":{"ha":782,"x_min":0,"x_max":0,"o":"m 408 -17 b 58 369 196 -17 58 136 b 408 756 58 603 196 756 b 739 488 588 756 714 658 l 585 479 b 408 628 569 575 501 628 b 211 369 283 628 211 532 b 408 111 211 207 283 111 b 585 271 503 111 571 164 l 739 263 b 408 -17 715 93 589 -17 "},"ć":{"ha":782,"x_min":0,"x_max":0,"o":"m 432 1014 l 586 1014 l 461 828 l 343 828 m 408 -17 b 58 369 196 -17 58 136 b 408 756 58 603 196 756 b 739 488 588 756 714 658 l 585 479 b 408 628 569 575 501 628 b 211 369 283 628 211 532 b 408 111 211 207 283 111 b 585 271 503 111 571 164 l 739 263 b 408 -17 715 93 589 -17 "},"č":{"ha":782,"x_min":0,"x_max":0,"o":"m 318 1021 l 408 897 l 500 1021 l 614 1021 l 486 828 l 332 828 l 204 1021 m 408 -17 b 58 369 196 -17 58 136 b 408 756 58 603 196 756 b 739 488 588 756 714 658 l 585 479 b 408 628 569 575 501 628 b 211 369 283 628 211 532 b 408 111 211 207 283 111 b 585 271 503 111 571 164 l 739 263 b 408 -17 715 93 589 -17 "},"ç":{"ha":782,"x_min":0,"x_max":0,"o":"m 397 -311 b 229 -200 307 -311 250 -264 l 307 -169 b 393 -225 324 -208 349 -225 b 465 -172 439 -225 465 -206 b 365 -112 465 -137 449 -112 l 321 -67 l 354 -12 b 58 369 172 11 58 156 b 408 756 58 603 196 756 b 739 488 588 756 714 658 l 585 479 b 408 628 569 575 501 628 b 211 369 283 628 211 532 b 408 111 211 207 283 111 b 585 271 503 111 571 164 l 739 263 b 450 -15 717 106 608 0 l 426 -47 b 560 -175 517 -53 560 -104 b 397 -311 560 -260 489 -311 "},"ĉ":{"ha":782,"x_min":0,"x_max":0,"o":"m 332 1021 l 486 1021 l 614 828 l 500 828 l 408 951 l 318 828 l 204 828 m 408 -17 b 58 369 196 -17 58 136 b 408 756 58 603 196 756 b 739 488 588 756 714 658 l 585 479 b 408 628 569 575 501 628 b 211 369 283 628 211 532 b 408 111 211 207 283 111 b 585 271 503 111 571 164 l 739 263 b 408 -17 715 93 589 -17 "},"ċ":{"ha":782,"x_min":0,"x_max":0,"o":"m 332 993 l 486 993 l 486 846 l 332 846 m 408 -17 b 58 369 196 -17 58 136 b 408 756 58 603 196 756 b 739 488 588 756 714 658 l 585 479 b 408 628 569 575 501 628 b 211 369 283 628 211 532 b 408 111 211 207 283 111 b 585 271 503 111 571 164 l 739 263 b 408 -17 715 93 589 -17 "},"d":{"ha":844,"x_min":0,"x_max":0,"o":"m 367 -17 b 58 369 176 -17 58 132 b 367 756 58 606 178 756 b 593 635 468 756 553 711 l 593 986 l 740 986 l 740 0 l 603 0 l 599 111 b 367 -17 557 31 469 -17 m 406 111 b 593 369 526 111 593 207 b 406 628 593 533 526 628 b 211 369 288 628 211 531 b 406 111 211 211 288 111 "},"ď":{"ha":956,"x_min":0,"x_max":0,"o":"m 367 -17 b 58 369 176 -17 58 132 b 367 756 58 606 178 756 b 593 635 468 756 553 711 l 593 986 l 740 986 l 740 0 l 603 0 l 599 111 b 367 -17 557 31 469 -17 m 851 986 l 989 986 l 915 618 l 810 618 m 406 111 b 593 369 526 111 593 207 b 406 628 593 533 526 628 b 211 369 288 628 211 531 b 406 111 211 211 288 111 "},"đ":{"ha":844,"x_min":0,"x_max":0,"o":"m 367 -17 b 58 369 176 -17 58 132 b 367 756 58 606 178 756 b 593 635 468 756 553 711 l 593 806 l 393 806 l 393 908 l 593 908 l 593 986 l 740 986 l 740 908 l 832 908 l 832 806 l 740 806 l 740 0 l 603 0 l 599 111 b 367 -17 557 31 469 -17 m 406 111 b 593 369 526 111 593 207 b 406 628 593 533 526 628 b 211 369 288 628 211 531 b 406 111 211 211 288 111 "},"ð":{"ha":817,"x_min":0,"x_max":0,"o":"m 408 -17 b 58 336 192 -17 58 117 b 408 688 58 554 192 688 b 589 633 476 688 536 667 b 499 783 568 694 539 744 l 328 719 l 293 810 l 399 850 b 233 888 351 869 297 882 l 271 1003 b 544 906 383 992 474 957 l 733 976 l 768 885 l 622 831 b 758 358 719 714 758 547 b 408 -17 758 117 625 -17 m 408 110 b 606 347 533 110 606 189 b 408 561 606 478 533 561 b 211 336 283 561 211 478 b 408 110 211 193 283 110 "},"e":{"ha":800,"x_min":0,"x_max":0,"o":"m 408 -17 b 58 369 193 -17 58 136 b 404 756 58 603 193 756 b 742 364 606 756 742 613 l 742 326 l 211 326 b 410 110 218 182 292 110 b 578 222 496 110 554 153 l 731 213 b 408 -17 692 75 571 -17 m 586 438 b 404 631 576 568 504 631 b 211 438 299 631 228 563 "},"é":{"ha":800,"x_min":0,"x_max":0,"o":"m 432 1011 l 586 1011 l 461 825 l 343 825 m 408 -17 b 58 369 193 -17 58 136 b 404 756 58 603 193 756 b 742 364 606 756 742 613 l 742 326 l 211 326 b 410 110 218 182 292 110 b 578 222 496 110 554 153 l 731 213 b 408 -17 692 75 571 -17 m 586 438 b 404 631 576 568 504 631 b 211 438 299 631 228 563 "},"ě":{"ha":800,"x_min":0,"x_max":0,"o":"m 318 1018 l 408 894 l 500 1018 l 614 1018 l 486 825 l 332 825 l 204 1018 m 408 -17 b 58 369 193 -17 58 136 b 404 756 58 603 193 756 b 742 364 606 756 742 613 l 742 326 l 211 326 b 410 110 218 182 292 110 b 578 222 496 110 554 153 l 731 213 b 408 -17 692 75 571 -17 m 586 438 b 404 631 576 568 504 631 b 211 438 299 631 228 563 "},"ê":{"ha":800,"x_min":0,"x_max":0,"o":"m 332 1018 l 486 1018 l 614 825 l 500 825 l 408 949 l 318 825 l 204 825 m 408 -17 b 58 369 193 -17 58 136 b 404 756 58 603 193 756 b 742 364 606 756 742 613 l 742 326 l 211 326 b 410 110 218 182 292 110 b 578 222 496 110 554 153 l 731 213 b 408 -17 692 75 571 -17 m 586 438 b 404 631 576 568 504 631 b 211 438 299 631 228 563 "},"ë":{"ha":800,"x_min":0,"x_max":0,"o":"m 204 989 l 353 989 l 353 842 l 204 842 m 465 989 l 613 989 l 613 842 l 465 842 m 408 -17 b 58 369 193 -17 58 136 b 404 756 58 603 193 756 b 742 364 606 756 742 613 l 742 326 l 211 326 b 410 110 218 182 292 110 b 578 222 496 110 554 153 l 731 213 b 408 -17 692 75 571 -17 m 586 438 b 404 631 576 568 504 631 b 211 438 299 631 228 563 "},"ė":{"ha":800,"x_min":0,"x_max":0,"o":"m 332 990 l 486 990 l 486 843 l 332 843 m 408 -17 b 58 369 193 -17 58 136 b 404 756 58 603 193 756 b 742 364 606 756 742 613 l 742 326 l 211 326 b 410 110 218 182 292 110 b 578 222 496 110 554 153 l 731 213 b 408 -17 692 75 571 -17 m 586 438 b 404 631 576 568 504 631 b 211 438 299 631 228 563 "},"è":{"ha":800,"x_min":0,"x_max":0,"o":"m 233 1011 l 388 1011 l 476 825 l 358 825 m 408 -17 b 58 369 193 -17 58 136 b 404 756 58 603 193 756 b 742 364 606 756 742 613 l 742 326 l 211 326 b 410 110 218 182 292 110 b 578 222 496 110 554 153 l 731 213 b 408 -17 692 75 571 -17 m 586 438 b 404 631 576 568 504 631 b 211 438 299 631 228 563 "},"ē":{"ha":800,"x_min":0,"x_max":0,"o":"m 215 975 l 603 975 l 603 857 l 215 857 m 408 -17 b 58 369 193 -17 58 136 b 404 756 58 603 193 756 b 742 364 606 756 742 613 l 742 326 l 211 326 b 410 110 218 182 292 110 b 578 222 496 110 554 153 l 731 213 b 408 -17 692 75 571 -17 m 586 438 b 404 631 576 568 504 631 b 211 438 299 631 228 563 "},"ę":{"ha":800,"x_min":0,"x_max":0,"o":"m 408 -17 b 58 369 193 -17 58 136 b 404 756 58 603 193 756 b 742 364 606 756 742 613 l 742 326 l 211 326 b 410 110 218 182 292 110 b 578 222 496 110 554 153 l 731 213 b 668 94 718 168 697 128 l 672 94 l 554 -49 b 507 -149 521 -90 507 -121 b 546 -190 507 -178 524 -190 b 611 -172 571 -190 594 -183 l 646 -258 b 518 -294 624 -279 569 -294 b 382 -175 432 -294 382 -250 b 446 -25 382 -115 406 -69 l 454 -14 b 408 -17 439 -15 424 -17 m 586 438 b 404 631 576 568 504 631 b 211 438 299 631 228 563 "},"ẽ":{"ha":800,"x_min":0,"x_max":0,"o":"m 489 840 b 389 879 451 840 422 853 b 324 913 361 903 349 913 b 265 831 292 913 269 894 l 183 831 b 322 1006 185 943 240 1006 b 431 964 367 1006 397 990 b 494 933 457 942 474 933 b 550 1018 526 933 546 951 l 633 1018 b 489 840 629 907 576 840 m 408 -17 b 58 369 193 -17 58 136 b 404 756 58 603 193 756 b 742 364 606 756 742 613 l 742 326 l 211 326 b 410 110 218 182 292 110 b 578 222 496 110 554 153 l 731 213 b 408 -17 692 75 571 -17 m 586 438 b 404 631 576 568 504 631 b 211 438 299 631 228 563 "},"ə":{"ha":800,"x_min":0,"x_max":0,"o":"m 392 756 b 742 369 607 756 742 603 b 396 -17 742 136 607 -17 b 58 375 194 -17 58 126 l 58 413 l 589 413 b 390 629 582 557 508 629 b 222 517 303 629 246 586 l 68 526 b 392 756 108 664 228 756 m 214 301 b 396 108 224 171 294 108 b 589 301 501 108 572 176 "},"f":{"ha":572,"x_min":0,"x_max":0,"o":"m 179 618 l 76 618 l 76 739 l 179 739 l 179 786 b 390 986 179 908 246 986 l 522 986 l 522 865 l 411 865 b 326 778 353 865 326 833 l 326 739 l 511 739 l 511 618 l 326 618 l 326 0 l 179 0 "},"g":{"ha":843,"x_min":0,"x_max":0,"o":"m 401 -225 b 79 -12 225 -225 111 -140 l 232 -3 b 401 -103 251 -65 297 -103 b 592 54 524 -103 592 -53 l 592 161 b 376 38 556 86 472 38 b 58 396 190 38 58 183 b 371 756 58 607 188 756 b 597 622 476 756 561 704 l 597 739 l 739 739 l 739 58 b 401 -225 739 -124 608 -225 m 400 163 b 592 397 515 163 590 251 b 400 631 594 542 517 631 b 211 397 281 631 211 540 b 400 163 211 253 283 163 "},"ğ":{"ha":843,"x_min":0,"x_max":0,"o":"m 406 832 b 203 1019 286 832 208 903 l 297 1019 b 406 928 304 956 344 928 b 513 1019 467 928 504 956 l 607 1019 b 406 832 601 903 524 832 m 401 -225 b 79 -12 225 -225 111 -140 l 232 -3 b 401 -103 251 -65 297 -103 b 592 54 524 -103 592 -53 l 592 161 b 376 38 556 86 472 38 b 58 396 190 38 58 183 b 371 756 58 607 188 756 b 597 622 476 756 561 704 l 597 739 l 739 739 l 739 58 b 401 -225 739 -124 608 -225 m 400 163 b 592 397 515 163 590 251 b 400 631 594 542 517 631 b 211 397 281 631 211 540 b 400 163 211 253 283 163 "},"ǧ":{"ha":843,"x_min":0,"x_max":0,"o":"m 314 1021 l 406 897 l 497 1021 l 610 1021 l 482 828 l 328 828 l 200 1021 m 401 -225 b 79 -12 225 -225 111 -140 l 232 -3 b 401 -103 251 -65 297 -103 b 592 54 524 -103 592 -53 l 592 161 b 376 38 556 86 472 38 b 58 396 190 38 58 183 b 371 756 58 607 188 756 b 597 622 476 756 561 704 l 597 739 l 739 739 l 739 58 b 401 -225 739 -124 608 -225 m 400 163 b 592 397 515 163 590 251 b 400 631 594 542 517 631 b 211 397 281 631 211 540 b 400 163 211 253 283 163 "},"ĝ":{"ha":843,"x_min":0,"x_max":0,"o":"m 328 1021 l 482 1021 l 610 828 l 497 828 l 406 951 l 314 828 l 200 828 m 401 -225 b 79 -12 225 -225 111 -140 l 232 -3 b 401 -103 251 -65 297 -103 b 592 54 524 -103 592 -53 l 592 161 b 376 38 556 86 472 38 b 58 396 190 38 58 183 b 371 756 58 607 188 756 b 597 622 476 756 561 704 l 597 739 l 739 739 l 739 58 b 401 -225 739 -124 608 -225 m 400 163 b 592 397 515 163 590 251 b 400 631 594 542 517 631 b 211 397 281 631 211 540 b 400 163 211 253 283 163 "},"ģ":{"ha":843,"x_min":0,"x_max":0,"o":"m 328 957 l 411 1100 l 506 1100 l 431 969 l 481 969 l 481 832 l 328 832 m 401 -225 b 79 -12 225 -225 111 -140 l 232 -3 b 401 -103 251 -65 297 -103 b 592 54 524 -103 592 -53 l 592 161 b 376 38 556 86 472 38 b 58 396 190 38 58 183 b 371 756 58 607 188 756 b 597 622 476 756 561 704 l 597 739 l 739 739 l 739 58 b 401 -225 739 -124 608 -225 m 400 163 b 592 397 515 163 590 251 b 400 631 594 542 517 631 b 211 397 281 631 211 540 b 400 163 211 253 283 163 "},"ġ":{"ha":843,"x_min":0,"x_max":0,"o":"m 329 993 l 482 993 l 482 846 l 329 846 m 401 -225 b 79 -12 225 -225 111 -140 l 232 -3 b 401 -103 251 -65 297 -103 b 592 54 524 -103 592 -53 l 592 161 b 376 38 556 86 472 38 b 58 396 190 38 58 183 b 371 756 58 607 188 756 b 597 622 476 756 561 704 l 597 739 l 739 739 l 739 58 b 401 -225 739 -124 608 -225 m 400 163 b 592 397 515 163 590 251 b 400 631 594 542 517 631 b 211 397 281 631 211 540 b 400 163 211 253 283 163 "},"ḡ":{"ha":843,"x_min":0,"x_max":0,"o":"m 213 978 l 599 978 l 599 860 l 213 860 m 401 -225 b 79 -12 225 -225 111 -140 l 232 -3 b 401 -103 251 -65 297 -103 b 592 54 524 -103 592 -53 l 592 161 b 376 38 556 86 472 38 b 58 396 190 38 58 183 b 371 756 58 607 188 756 b 597 622 476 756 561 704 l 597 739 l 739 739 l 739 58 b 401 -225 739 -124 608 -225 m 400 163 b 592 397 515 163 590 251 b 400 631 594 542 517 631 b 211 397 281 631 211 540 b 400 163 211 253 283 163 "},"ǥ":{"ha":882,"x_min":0,"x_max":0,"o":"m 401 -225 b 79 -12 225 -225 111 -140 l 232 -3 b 401 -103 251 -65 297 -103 b 592 54 524 -103 592 -53 l 592 161 b 376 38 556 86 472 38 b 58 396 190 38 58 183 b 371 756 58 607 188 756 b 597 622 476 756 561 704 l 597 739 l 739 739 l 739 443 l 833 443 l 833 338 l 739 338 l 739 58 b 401 -225 739 -124 608 -225 m 400 163 b 586 338 499 163 568 228 l 346 338 l 346 443 l 589 443 b 400 631 576 560 504 631 b 211 397 281 631 211 540 b 400 163 211 253 283 163 "},"h":{"ha":821,"x_min":0,"x_max":0,"o":"m 104 986 l 251 986 l 251 632 b 468 756 290 717 371 756 b 717 475 629 756 717 640 l 717 0 l 569 0 l 569 436 b 429 632 569 568 524 632 b 251 433 321 632 251 563 l 251 0 l 104 0 "},"ħ":{"ha":821,"x_min":0,"x_max":0,"o":"m 104 806 l 8 806 l 8 908 l 104 908 l 104 986 l 251 986 l 251 908 l 447 908 l 447 806 l 251 806 l 251 632 b 468 756 290 717 371 756 b 717 475 629 756 717 640 l 717 0 l 569 0 l 569 436 b 429 632 569 568 524 632 b 251 433 321 632 251 563 l 251 0 l 104 0 "},"ĥ":{"ha":821,"x_min":0,"x_max":0,"o":"m 101 1240 l 256 1240 l 383 1047 l 271 1047 l 179 1171 l 88 1047 l -26 1047 m 104 986 l 251 986 l 251 632 b 468 756 290 717 371 756 b 717 475 629 756 717 640 l 717 0 l 569 0 l 569 436 b 429 632 569 568 524 632 b 251 433 321 632 251 563 l 251 0 l 104 0 "},"i":{"ha":356,"x_min":0,"x_max":0,"o":"m 101 993 l 254 993 l 254 846 l 101 846 m 104 739 l 251 739 l 251 0 l 104 0 "},"ı":{"ha":356,"x_min":0,"x_max":0,"o":"m 104 739 l 251 739 l 251 0 l 104 0 "},"í":{"ha":356,"x_min":0,"x_max":0,"o":"m 200 1014 l 356 1014 l 231 828 l 113 828 m 104 739 l 251 739 l 251 0 l 104 0 "},"î":{"ha":356,"x_min":0,"x_max":0,"o":"m 101 1021 l 256 1021 l 383 828 l 269 828 l 178 951 l 86 828 l -26 828 m 104 739 l 251 739 l 251 0 l 104 0 "},"ï":{"ha":356,"x_min":0,"x_max":0,"o":"m -26 992 l 122 992 l 122 844 l -26 844 m 235 992 l 382 992 l 382 844 l 235 844 m 104 739 l 251 739 l 251 0 l 104 0 "},"ì":{"ha":356,"x_min":0,"x_max":0,"o":"m 3 1014 l 157 1014 l 244 828 l 128 828 m 104 739 l 251 739 l 251 0 l 104 0 "},"ī":{"ha":356,"x_min":0,"x_max":0,"o":"m -15 978 l 371 978 l 371 860 l -15 860 m 104 739 l 251 739 l 251 0 l 104 0 "},"į":{"ha":356,"x_min":0,"x_max":0,"o":"m 101 993 l 254 993 l 254 846 l 101 846 m 104 739 l 251 739 l 251 0 l 206 -62 b 163 -156 174 -107 163 -132 b 201 -190 163 -178 179 -190 b 267 -172 226 -190 250 -183 l 301 -258 b 172 -294 279 -279 225 -294 b 33 -190 86 -294 33 -258 b 110 -29 33 -136 74 -79 l 132 0 l 104 0 "},"ĩ":{"ha":356,"x_min":0,"x_max":0,"o":"m 258 843 b 158 882 221 843 190 856 b 93 915 131 906 118 915 b 35 833 61 915 39 897 l -47 833 b 92 1008 -46 946 10 1008 b 200 967 136 1008 167 993 b 264 936 226 944 243 936 b 319 1021 296 936 315 954 l 403 1021 b 258 843 399 910 344 843 m 104 739 l 251 739 l 251 0 l 104 0 "},"ĳ":{"ha":728,"x_min":0,"x_max":0,"o":"m 101 993 l 254 993 l 254 846 l 101 846 m 474 993 l 626 993 l 626 846 l 474 846 m 104 739 l 251 739 l 251 0 l 104 0 m 328 -87 l 394 -87 b 476 -7 446 -87 476 -69 l 476 739 l 624 739 l 624 -12 b 417 -208 624 -154 567 -208 l 328 -208 "},"j":{"ha":394,"x_min":0,"x_max":0,"o":"m 139 993 l 293 993 l 293 846 l 139 846 m -6 -87 l 61 -87 b 142 -7 111 -87 142 -69 l 142 739 l 290 739 l 290 -12 b 83 -208 290 -154 232 -208 l -6 -208 "},"ȷ":{"ha":394,"x_min":0,"x_max":0,"o":"m -6 -87 l 61 -87 b 142 -7 111 -87 142 -69 l 142 739 l 290 739 l 290 -12 b 83 -208 290 -154 232 -208 l -6 -208 "},"ĵ":{"ha":394,"x_min":0,"x_max":0,"o":"m 139 1021 l 293 1021 l 421 828 l 307 828 l 217 951 l 125 828 l 11 828 m -6 -87 l 61 -87 b 142 -7 111 -87 142 -69 l 142 739 l 290 739 l 290 -12 b 83 -208 290 -154 232 -208 l -6 -208 "},"k":{"ha":846,"x_min":0,"x_max":0,"o":"m 104 986 l 251 986 l 251 374 l 583 739 l 769 739 l 481 428 l 781 0 l 611 0 l 382 336 l 251 197 l 251 0 l 104 0 "},"ǩ":{"ha":846,"x_min":0,"x_max":0,"o":"m 86 1221 l 178 1097 l 269 1221 l 383 1221 l 256 1028 l 101 1028 l -26 1221 m 104 986 l 251 986 l 251 374 l 583 739 l 769 739 l 481 428 l 781 0 l 611 0 l 382 336 l 251 197 l 251 0 l 104 0 "},"ķ":{"ha":846,"x_min":0,"x_max":0,"o":"m 104 986 l 251 986 l 251 374 l 583 739 l 769 739 l 481 428 l 781 0 l 611 0 l 382 336 l 251 197 l 251 0 l 104 0 m 393 -208 l 343 -208 l 343 -72 l 496 -72 l 496 -196 l 413 -339 l 318 -339 "},"l":{"ha":392,"x_min":0,"x_max":0,"o":"m 265 0 b 104 157 168 0 104 47 l 104 986 l 251 986 l 251 171 b 303 121 251 136 269 121 l 361 121 l 361 0 l 265 0 "},"ĺ":{"ha":392,"x_min":0,"x_max":0,"o":"m 200 1214 l 356 1214 l 231 1028 l 113 1028 m 265 0 b 104 157 168 0 104 47 l 104 986 l 251 986 l 251 171 b 303 121 251 136 269 121 l 361 121 l 361 0 l 265 0 "},"ľ":{"ha":475,"x_min":0,"x_max":0,"o":"m 265 0 b 104 157 168 0 104 47 l 104 986 l 251 986 l 251 171 b 303 121 251 136 269 121 l 361 121 l 361 0 l 265 0 m 371 986 l 508 986 l 435 618 l 329 618 "},"ļ":{"ha":392,"x_min":0,"x_max":0,"o":"m 265 0 b 104 157 168 0 104 47 l 104 986 l 251 986 l 251 171 b 303 121 251 136 269 121 l 361 121 l 361 0 l 265 0 m 211 -208 l 161 -208 l 161 -72 l 314 -72 l 314 -196 l 231 -339 l 136 -339 "},"ł":{"ha":392,"x_min":0,"x_max":0,"o":"m 265 0 b 104 157 168 0 104 47 l 104 465 l 7 419 l 7 525 l 104 572 l 104 986 l 251 986 l 251 640 l 361 692 l 361 586 l 251 535 l 251 171 b 303 121 251 136 269 121 l 361 121 l 361 0 l 265 0 "},"m":{"ha":1229,"x_min":0,"x_max":0,"o":"m 104 739 l 239 739 l 242 613 b 447 756 278 703 354 756 b 665 603 557 756 633 699 b 879 756 699 701 774 756 b 1124 475 1035 756 1124 656 l 1124 0 l 976 0 l 976 439 b 836 632 976 567 931 632 b 683 433 743 632 683 558 l 683 0 l 543 0 l 543 433 b 406 632 543 558 504 632 b 251 433 311 632 251 557 l 251 0 l 104 0 "},"n":{"ha":821,"x_min":0,"x_max":0,"o":"m 104 739 l 239 739 l 242 610 b 467 756 281 711 365 756 b 717 475 632 756 717 636 l 717 0 l 569 0 l 569 431 b 426 632 569 561 529 632 b 251 431 322 632 251 561 l 251 0 l 104 0 "},"ń":{"ha":821,"x_min":0,"x_max":0,"o":"m 433 1014 l 588 1014 l 463 828 l 344 828 m 104 739 l 239 739 l 242 610 b 467 756 281 711 365 756 b 717 475 632 756 717 636 l 717 0 l 569 0 l 569 431 b 426 632 569 561 529 632 b 251 431 322 632 251 561 l 251 0 l 104 0 "},"ň":{"ha":821,"x_min":0,"x_max":0,"o":"m 319 1021 l 411 897 l 503 1021 l 615 1021 l 488 828 l 333 828 l 206 1021 m 104 739 l 239 739 l 242 610 b 467 756 281 711 365 756 b 717 475 632 756 717 636 l 717 0 l 569 0 l 569 431 b 426 632 569 561 529 632 b 251 431 322 632 251 561 l 251 0 l 104 0 "},"ņ":{"ha":821,"x_min":0,"x_max":0,"o":"m 104 739 l 239 739 l 242 610 b 467 756 281 711 365 756 b 717 475 632 756 717 636 l 717 0 l 569 0 l 569 431 b 426 632 569 561 529 632 b 251 431 322 632 251 561 l 251 0 l 104 0 m 383 -208 l 335 -208 l 335 -72 l 488 -72 l 488 -196 l 403 -339 l 308 -339 "},"ñ":{"ha":821,"x_min":0,"x_max":0,"o":"m 492 843 b 392 882 453 843 424 856 b 325 915 363 906 350 915 b 268 833 294 915 271 897 l 185 833 b 324 1008 188 946 242 1008 b 432 967 368 1008 399 993 b 496 936 460 944 476 936 b 553 1021 529 936 547 954 l 635 1021 b 492 843 631 910 578 843 m 104 739 l 239 739 l 242 610 b 467 756 281 711 365 756 b 717 475 632 756 717 636 l 717 0 l 569 0 l 569 431 b 426 632 569 561 529 632 b 251 431 322 632 251 561 l 251 0 l 104 0 "},"ŋ":{"ha":821,"x_min":0,"x_max":0,"o":"m 104 739 l 239 739 l 242 610 b 467 756 281 711 365 756 b 717 475 632 756 717 636 l 717 -8 b 500 -208 717 -128 633 -208 l 378 -208 l 378 -93 l 482 -93 b 569 -3 536 -93 569 -57 l 569 431 b 426 632 569 561 529 632 b 251 431 322 632 251 561 l 251 0 l 104 0 "},"o":{"ha":817,"x_min":0,"x_max":0,"o":"m 408 -17 b 58 369 197 -17 58 135 b 408 756 58 604 197 756 b 758 369 619 756 758 604 b 408 -17 758 135 619 -17 m 408 111 b 606 369 533 111 606 207 b 408 628 606 532 533 628 b 211 369 283 628 211 532 b 408 111 211 207 283 111 "},"ó":{"ha":817,"x_min":0,"x_max":0,"o":"m 432 1014 l 586 1014 l 461 828 l 343 828 m 408 -17 b 58 369 197 -17 58 135 b 408 756 58 604 197 756 b 758 369 619 756 758 604 b 408 -17 758 135 619 -17 m 408 111 b 606 369 533 111 606 207 b 408 628 606 532 533 628 b 211 369 283 628 211 532 b 408 111 211 207 283 111 "},"ô":{"ha":817,"x_min":0,"x_max":0,"o":"m 332 1021 l 486 1021 l 614 828 l 500 828 l 408 951 l 318 828 l 204 828 m 408 -17 b 58 369 197 -17 58 135 b 408 756 58 604 197 756 b 758 369 619 756 758 604 b 408 -17 758 135 619 -17 m 408 111 b 606 369 533 111 606 207 b 408 628 606 532 533 628 b 211 369 283 628 211 532 b 408 111 211 207 283 111 "},"ö":{"ha":817,"x_min":0,"x_max":0,"o":"m 204 992 l 353 992 l 353 844 l 204 844 m 465 992 l 613 992 l 613 844 l 465 844 m 408 -17 b 58 369 197 -17 58 135 b 408 756 58 604 197 756 b 758 369 619 756 758 604 b 408 -17 758 135 619 -17 m 408 111 b 606 369 533 111 606 207 b 408 628 606 532 533 628 b 211 369 283 628 211 532 b 408 111 211 207 283 111 "},"ò":{"ha":817,"x_min":0,"x_max":0,"o":"m 233 1014 l 388 1014 l 476 828 l 358 828 m 408 -17 b 58 369 197 -17 58 135 b 408 756 58 604 197 756 b 758 369 619 756 758 604 b 408 -17 758 135 619 -17 m 408 111 b 606 369 533 111 606 207 b 408 628 606 532 533 628 b 211 369 283 628 211 532 b 408 111 211 207 283 111 "},"ő":{"ha":817,"x_min":0,"x_max":0,"o":"m 333 1014 l 488 1014 l 363 828 l 244 828 m 536 1014 l 692 1014 l 567 828 l 449 828 m 408 -17 b 58 369 197 -17 58 135 b 408 756 58 604 197 756 b 758 369 619 756 758 604 b 408 -17 758 135 619 -17 m 408 111 b 606 369 533 111 606 207 b 408 628 606 532 533 628 b 211 369 283 628 211 532 b 408 111 211 207 283 111 "},"ō":{"ha":817,"x_min":0,"x_max":0,"o":"m 215 978 l 603 978 l 603 860 l 215 860 m 408 -17 b 58 369 197 -17 58 135 b 408 756 58 604 197 756 b 758 369 619 756 758 604 b 408 -17 758 135 619 -17 m 408 111 b 606 369 533 111 606 207 b 408 628 606 532 533 628 b 211 369 283 628 211 532 b 408 111 211 207 283 111 "},"ø":{"ha":817,"x_min":0,"x_max":0,"o":"m 157 85 b 58 369 94 151 58 250 b 408 756 58 604 197 756 b 588 711 476 756 538 740 l 619 758 l 731 758 l 660 654 b 758 369 722 588 758 489 b 408 -17 758 135 619 -17 b 229 28 340 -17 281 -1 l 197 -19 l 86 -19 m 211 369 b 243 210 211 306 222 251 l 511 600 b 408 628 483 618 449 628 b 211 369 283 628 211 532 m 408 111 b 606 369 533 111 606 207 b 574 529 606 433 594 488 l 306 139 b 408 111 335 121 369 111 "},"õ":{"ha":817,"x_min":0,"x_max":0,"o":"m 489 843 b 389 882 451 843 422 856 b 324 915 361 906 349 915 b 265 833 292 915 269 897 l 183 833 b 322 1008 185 946 240 1008 b 431 967 367 1008 397 993 b 494 936 457 944 474 936 b 550 1021 526 936 546 954 l 633 1021 b 489 843 629 910 576 843 m 408 -17 b 58 369 197 -17 58 135 b 408 756 58 604 197 756 b 758 369 619 756 758 604 b 408 -17 758 135 619 -17 m 408 111 b 606 369 533 111 606 207 b 408 628 606 532 533 628 b 211 369 283 628 211 532 b 408 111 211 207 283 111 "},"œ":{"ha":1349,"x_min":0,"x_max":0,"o":"m 408 -17 b 58 369 197 -17 58 135 b 408 756 58 604 197 756 b 682 628 526 756 621 708 b 953 756 743 708 836 756 b 1292 364 1154 756 1292 613 l 1292 326 l 760 326 b 958 110 768 182 842 110 b 1126 222 1046 110 1104 153 l 1281 213 b 957 -17 1240 75 1121 -17 b 682 113 838 -17 743 31 b 408 -17 621 31 526 -17 m 1135 438 b 953 631 1125 568 1054 631 b 760 438 847 631 776 563 m 408 111 b 606 369 533 111 606 207 b 408 628 606 532 533 628 b 211 369 283 628 211 532 b 408 111 211 207 283 111 "},"p":{"ha":844,"x_min":0,"x_max":0,"o":"m 104 739 l 243 739 l 246 626 b 469 756 289 711 371 756 b 786 369 686 756 786 578 b 469 -17 786 161 685 -17 b 251 100 375 -17 292 28 l 251 -208 l 104 -208 m 443 111 b 633 369 561 111 633 207 b 443 628 633 532 561 628 b 251 369 325 628 251 540 b 443 111 251 199 324 111 "},"þ":{"ha":840,"x_min":0,"x_max":0,"o":"m 104 986 l 254 986 l 254 656 b 465 756 294 719 365 756 b 782 369 678 756 782 578 b 465 -17 782 161 678 -17 b 254 81 368 -17 297 19 l 254 -208 l 104 -208 m 435 115 b 629 369 574 115 629 238 b 435 628 629 506 574 628 b 242 369 299 628 242 504 b 435 115 242 240 299 115 "},"q":{"ha":844,"x_min":0,"x_max":0,"o":"m 593 -208 l 593 100 b 375 -17 553 28 469 -17 b 58 369 160 -17 58 161 b 375 756 58 578 158 756 b 599 626 474 756 556 711 l 601 739 l 740 739 l 740 -208 m 401 111 b 593 369 521 111 593 199 b 401 628 593 540 519 628 b 211 369 283 628 211 532 b 401 111 211 207 283 111 "},"r":{"ha":547,"x_min":0,"x_max":0,"o":"m 104 739 l 239 739 l 243 599 b 419 739 271 696 329 739 l 490 739 l 490 607 l 419 607 b 251 436 307 607 251 553 l 251 0 l 104 0 "},"ŕ":{"ha":547,"x_min":0,"x_max":0,"o":"m 311 1014 l 465 1014 l 340 828 l 222 828 m 104 739 l 239 739 l 243 599 b 419 739 271 696 329 739 l 490 739 l 490 607 l 419 607 b 251 436 307 607 251 553 l 251 0 l 104 0 "},"ř":{"ha":547,"x_min":0,"x_max":0,"o":"m 197 1021 l 289 897 l 381 1021 l 493 1021 l 365 828 l 211 828 l 83 1021 m 104 739 l 239 739 l 243 599 b 419 739 271 696 329 739 l 490 739 l 490 607 l 419 607 b 251 436 307 607 251 553 l 251 0 l 104 0 "},"ŗ":{"ha":547,"x_min":0,"x_max":0,"o":"m 104 739 l 239 739 l 243 599 b 419 739 271 696 329 739 l 490 739 l 490 607 l 419 607 b 251 436 307 607 251 553 l 251 0 l 104 0 m 151 -208 l 101 -208 l 101 -72 l 254 -72 l 254 -196 l 171 -339 l 76 -339 "},"s":{"ha":746,"x_min":0,"x_max":0,"o":"m 389 -17 b 58 233 174 -17 69 88 l 210 240 b 389 107 224 158 271 107 b 532 200 481 107 532 135 b 364 303 532 254 504 278 b 85 526 149 343 85 406 b 382 756 85 661 189 756 b 688 513 586 756 674 642 l 536 504 b 379 632 531 574 488 632 b 238 532 283 632 238 590 b 393 421 238 467 274 440 b 685 201 617 383 685 322 b 389 -17 685 63 565 -17 "},"ś":{"ha":746,"x_min":0,"x_max":0,"o":"m 393 1014 l 547 1014 l 422 828 l 306 828 m 389 -17 b 58 233 174 -17 69 88 l 210 240 b 389 107 224 158 271 107 b 532 200 481 107 532 135 b 364 303 532 254 504 278 b 85 526 149 343 85 406 b 382 756 85 661 189 756 b 688 513 586 756 674 642 l 536 504 b 379 632 531 574 488 632 b 238 532 283 632 238 590 b 393 421 238 467 274 440 b 685 201 617 383 685 322 b 389 -17 685 63 565 -17 "},"š":{"ha":746,"x_min":0,"x_max":0,"o":"m 279 1021 l 371 897 l 463 1021 l 575 1021 l 447 828 l 294 828 l 167 1021 m 389 -17 b 58 233 174 -17 69 88 l 210 240 b 389 107 224 158 271 107 b 532 200 481 107 532 135 b 364 303 532 254 504 278 b 85 526 149 343 85 406 b 382 756 85 661 189 756 b 688 513 586 756 674 642 l 536 504 b 379 632 531 574 488 632 b 238 532 283 632 238 590 b 393 421 238 467 274 440 b 685 201 617 383 685 322 b 389 -17 685 63 565 -17 "},"ş":{"ha":746,"x_min":0,"x_max":0,"o":"m 368 -311 b 201 -200 278 -311 222 -264 l 279 -169 b 365 -225 294 -208 321 -225 b 438 -172 410 -225 438 -206 b 338 -112 438 -137 421 -112 l 292 -67 l 325 -14 b 58 233 153 6 68 103 l 210 240 b 389 107 224 158 271 107 b 532 200 481 107 532 135 b 364 303 532 254 504 278 b 85 526 149 343 85 406 b 382 756 85 661 189 756 b 688 513 586 756 674 642 l 536 504 b 379 632 531 574 488 632 b 238 532 283 632 238 590 b 393 421 238 467 274 440 b 685 201 617 383 685 322 b 421 -15 685 71 579 -7 l 397 -47 b 531 -175 489 -53 531 -104 b 368 -311 531 -260 461 -311 "},"ŝ":{"ha":746,"x_min":0,"x_max":0,"o":"m 294 1021 l 447 1021 l 575 828 l 463 828 l 371 951 l 279 828 l 167 828 m 389 -17 b 58 233 174 -17 69 88 l 210 240 b 389 107 224 158 271 107 b 532 200 481 107 532 135 b 364 303 532 254 504 278 b 85 526 149 343 85 406 b 382 756 85 661 189 756 b 688 513 586 756 674 642 l 536 504 b 379 632 531 574 488 632 b 238 532 283 632 238 590 b 393 421 238 467 274 440 b 685 201 617 383 685 322 b 389 -17 685 63 565 -17 "},"ș":{"ha":746,"x_min":0,"x_max":0,"o":"m 389 -17 b 58 233 174 -17 69 88 l 210 240 b 389 107 224 158 271 107 b 532 200 481 107 532 135 b 364 303 532 254 504 278 b 85 526 149 343 85 406 b 382 756 85 661 189 756 b 688 513 586 756 674 642 l 536 504 b 379 632 531 574 488 632 b 238 532 283 632 238 590 b 393 421 238 467 274 440 b 685 201 617 383 685 322 b 389 -17 685 63 565 -17 m 354 -208 l 304 -208 l 304 -72 l 457 -72 l 457 -196 l 374 -339 l 279 -339 "},"ß":{"ha":847,"x_min":0,"x_max":0,"o":"m 104 679 b 429 1000 104 879 231 1000 b 735 740 621 1000 735 897 b 579 531 735 638 675 561 b 796 278 711 500 796 406 b 433 0 796 104 665 0 l 344 0 l 344 132 l 433 132 b 643 290 568 132 643 183 b 421 456 643 396 568 456 l 357 456 l 357 586 l 417 586 b 586 732 522 586 586 643 b 429 868 586 813 533 868 b 251 679 321 868 251 797 l 251 0 l 104 0 "},"t":{"ha":569,"x_min":0,"x_max":0,"o":"m 388 0 b 182 200 247 0 182 61 l 182 618 l 69 618 l 69 739 l 182 739 l 182 913 l 329 913 l 329 739 l 525 739 l 525 618 l 329 618 l 329 211 b 419 121 329 142 358 121 l 525 121 l 525 0 l 388 0 "},"ŧ":{"ha":569,"x_min":0,"x_max":0,"o":"m 71 451 l 182 451 l 182 618 l 69 618 l 69 739 l 182 739 l 182 913 l 329 913 l 329 739 l 525 739 l 525 618 l 329 618 l 329 451 l 513 451 l 513 347 l 329 347 l 329 211 b 419 121 329 142 358 121 l 525 121 l 525 0 l 388 0 b 182 200 247 0 182 61 l 182 347 l 71 347 "},"ť":{"ha":578,"x_min":0,"x_max":0,"o":"m 464 1068 l 597 1068 l 524 769 l 422 769 m 388 0 b 182 200 247 0 182 61 l 182 618 l 69 618 l 69 739 l 182 739 l 182 913 l 329 913 l 329 739 l 525 739 l 525 618 l 329 618 l 329 211 b 419 121 329 142 358 121 l 525 121 l 525 0 l 388 0 "},"ţ":{"ha":569,"x_min":0,"x_max":0,"o":"m 326 -311 b 158 -200 236 -311 179 -264 l 236 -169 b 322 -225 251 -208 278 -225 b 394 -172 368 -225 394 -206 b 294 -112 394 -137 378 -112 l 250 -67 l 299 11 b 182 200 219 35 182 96 l 182 618 l 69 618 l 69 739 l 182 739 l 182 913 l 329 913 l 329 739 l 525 739 l 525 618 l 329 618 l 329 211 b 419 121 329 142 358 121 l 525 121 l 525 0 l 389 0 l 354 -47 b 488 -175 446 -53 488 -104 b 326 -311 488 -260 418 -311 "},"ț":{"ha":569,"x_min":0,"x_max":0,"o":"m 388 0 b 182 200 247 0 182 61 l 182 618 l 69 618 l 69 739 l 182 739 l 182 913 l 329 913 l 329 739 l 525 739 l 525 618 l 329 618 l 329 211 b 419 121 329 142 358 121 l 525 121 l 525 0 l 388 0 m 311 -208 l 261 -208 l 261 -72 l 414 -72 l 414 -196 l 331 -339 l 236 -339 "},"u":{"ha":814,"x_min":0,"x_max":0,"o":"m 347 -17 b 104 264 197 -17 104 88 l 104 739 l 251 739 l 251 301 b 392 107 251 167 297 107 b 563 306 499 107 563 179 l 563 739 l 710 739 l 710 0 l 572 0 l 571 121 b 347 -17 532 31 454 -17 "},"ú":{"ha":814,"x_min":0,"x_max":0,"o":"m 425 1014 l 579 1014 l 454 828 l 336 828 m 347 -17 b 104 264 197 -17 104 88 l 104 739 l 251 739 l 251 301 b 392 107 251 167 297 107 b 563 306 499 107 563 179 l 563 739 l 710 739 l 710 0 l 572 0 l 571 121 b 347 -17 532 31 454 -17 "},"ŭ":{"ha":814,"x_min":0,"x_max":0,"o":"m 403 832 b 200 1019 283 832 206 903 l 294 1019 b 403 928 301 956 342 928 b 510 1019 464 928 501 956 l 604 1019 b 403 832 599 903 521 832 m 347 -17 b 104 264 197 -17 104 88 l 104 739 l 251 739 l 251 301 b 392 107 251 167 297 107 b 563 306 499 107 563 179 l 563 739 l 710 739 l 710 0 l 572 0 l 571 121 b 347 -17 532 31 454 -17 "},"û":{"ha":814,"x_min":0,"x_max":0,"o":"m 325 1021 l 479 1021 l 607 828 l 494 828 l 403 951 l 311 828 l 197 828 m 347 -17 b 104 264 197 -17 104 88 l 104 739 l 251 739 l 251 301 b 392 107 251 167 297 107 b 563 306 499 107 563 179 l 563 739 l 710 739 l 710 0 l 572 0 l 571 121 b 347 -17 532 31 454 -17 "},"ü":{"ha":814,"x_min":0,"x_max":0,"o":"m 199 992 l 346 992 l 346 844 l 199 844 m 458 992 l 607 992 l 607 844 l 458 844 m 347 -17 b 104 264 197 -17 104 88 l 104 739 l 251 739 l 251 301 b 392 107 251 167 297 107 b 563 306 499 107 563 179 l 563 739 l 710 739 l 710 0 l 572 0 l 571 121 b 347 -17 532 31 454 -17 "},"ù":{"ha":814,"x_min":0,"x_max":0,"o":"m 226 1014 l 381 1014 l 469 828 l 351 828 m 347 -17 b 104 264 197 -17 104 88 l 104 739 l 251 739 l 251 301 b 392 107 251 167 297 107 b 563 306 499 107 563 179 l 563 739 l 710 739 l 710 0 l 572 0 l 571 121 b 347 -17 532 31 454 -17 "},"ű":{"ha":814,"x_min":0,"x_max":0,"o":"m 326 1014 l 482 1014 l 357 828 l 239 828 m 531 1014 l 685 1014 l 560 828 l 442 828 m 347 -17 b 104 264 197 -17 104 88 l 104 739 l 251 739 l 251 301 b 392 107 251 167 297 107 b 563 306 499 107 563 179 l 563 739 l 710 739 l 710 0 l 572 0 l 571 121 b 347 -17 532 31 454 -17 "},"ū":{"ha":814,"x_min":0,"x_max":0,"o":"m 210 978 l 596 978 l 596 860 l 210 860 m 347 -17 b 104 264 197 -17 104 88 l 104 739 l 251 739 l 251 301 b 392 107 251 167 297 107 b 563 306 499 107 563 179 l 563 739 l 710 739 l 710 0 l 572 0 l 571 121 b 347 -17 532 31 454 -17 "},"ų":{"ha":814,"x_min":0,"x_max":0,"o":"m 347 -17 b 104 264 197 -17 104 88 l 104 739 l 251 739 l 251 301 b 392 107 251 167 297 107 b 563 306 499 107 563 179 l 563 739 l 710 739 l 710 0 l 663 -62 b 619 -156 631 -107 619 -132 b 658 -190 619 -178 636 -190 b 724 -172 683 -190 707 -183 l 758 -258 b 629 -294 736 -279 682 -294 b 492 -190 544 -294 492 -258 b 567 -29 492 -136 531 -79 l 589 0 l 572 0 l 571 121 b 347 -17 532 31 454 -17 "},"ů":{"ha":814,"x_min":0,"x_max":0,"o":"m 403 800 b 269 932 328 800 269 857 b 403 1064 269 1007 328 1064 b 535 932 478 1064 535 1007 b 403 800 535 857 478 800 m 403 875 b 458 932 435 875 458 900 b 403 988 458 964 435 988 b 346 932 371 988 346 964 b 403 875 346 900 371 875 m 347 -17 b 104 264 197 -17 104 88 l 104 739 l 251 739 l 251 301 b 392 107 251 167 297 107 b 563 306 499 107 563 179 l 563 739 l 710 739 l 710 0 l 572 0 l 571 121 b 347 -17 532 31 454 -17 "},"ũ":{"ha":814,"x_min":0,"x_max":0,"o":"m 468 843 b 368 882 431 843 400 856 b 303 915 340 906 328 915 b 244 833 271 915 249 897 l 163 833 b 301 1008 164 946 219 1008 b 410 967 346 1008 376 993 b 474 936 436 944 453 936 b 529 1021 506 936 525 954 l 613 1021 b 468 843 608 910 554 843 m 347 -17 b 104 264 197 -17 104 88 l 104 739 l 251 739 l 251 301 b 392 107 251 167 297 107 b 563 306 499 107 563 179 l 563 739 l 710 739 l 710 0 l 572 0 l 571 121 b 347 -17 532 31 454 -17 "},"v":{"ha":778,"x_min":0,"x_max":0,"o":"m 31 739 l 188 739 l 389 150 l 590 739 l 749 739 l 478 0 l 300 0 "},"w":{"ha":1151,"x_min":0,"x_max":0,"o":"m 31 739 l 185 739 l 343 161 l 506 739 l 644 739 l 807 161 l 967 739 l 1121 739 l 896 0 l 731 0 l 575 528 l 419 0 l 256 0 "},"ẃ":{"ha":1151,"x_min":0,"x_max":0,"o":"m 599 1014 l 753 1014 l 628 828 l 511 828 m 31 739 l 185 739 l 343 161 l 506 739 l 644 739 l 807 161 l 967 739 l 1121 739 l 896 0 l 731 0 l 575 528 l 419 0 l 256 0 "},"ŵ":{"ha":1151,"x_min":0,"x_max":0,"o":"m 500 1021 l 653 1021 l 781 828 l 668 828 l 576 951 l 485 828 l 372 828 m 31 739 l 185 739 l 343 161 l 506 739 l 644 739 l 807 161 l 967 739 l 1121 739 l 896 0 l 731 0 l 575 528 l 419 0 l 256 0 "},"ẅ":{"ha":1151,"x_min":0,"x_max":0,"o":"m 372 992 l 519 992 l 519 844 l 372 844 m 633 992 l 781 992 l 781 844 l 633 844 m 31 739 l 185 739 l 343 161 l 506 739 l 644 739 l 807 161 l 967 739 l 1121 739 l 896 0 l 731 0 l 575 528 l 419 0 l 256 0 "},"ẁ":{"ha":1151,"x_min":0,"x_max":0,"o":"m 400 1014 l 556 1014 l 643 828 l 525 828 m 31 739 l 185 739 l 343 161 l 506 739 l 644 739 l 807 161 l 967 739 l 1121 739 l 896 0 l 731 0 l 575 528 l 419 0 l 256 0 "},"x":{"ha":843,"x_min":0,"x_max":0,"o":"m 333 378 l 76 739 l 240 739 l 422 474 l 599 739 l 767 739 l 513 375 l 778 0 l 614 0 l 424 282 l 232 0 l 65 0 "},"y":{"ha":768,"x_min":0,"x_max":0,"o":"m 146 -87 l 236 -87 b 319 -39 286 -87 306 -74 l 343 22 l 297 22 l 31 739 l 186 739 l 389 158 l 582 739 l 739 739 l 444 -86 b 257 -208 414 -171 361 -208 l 146 -208 "},"ý":{"ha":768,"x_min":0,"x_max":0,"o":"m 408 1014 l 563 1014 l 438 828 l 319 828 m 146 -87 l 236 -87 b 319 -39 286 -87 306 -74 l 343 22 l 297 22 l 31 739 l 186 739 l 389 158 l 582 739 l 739 739 l 444 -86 b 257 -208 414 -171 361 -208 l 146 -208 "},"ŷ":{"ha":768,"x_min":0,"x_max":0,"o":"m 308 1021 l 463 1021 l 590 828 l 476 828 l 385 951 l 294 828 l 181 828 m 146 -87 l 236 -87 b 319 -39 286 -87 306 -74 l 343 22 l 297 22 l 31 739 l 186 739 l 389 158 l 582 739 l 739 739 l 444 -86 b 257 -208 414 -171 361 -208 l 146 -208 "},"ÿ":{"ha":768,"x_min":0,"x_max":0,"o":"m 181 992 l 329 992 l 329 844 l 181 844 m 442 992 l 589 992 l 589 844 l 442 844 m 146 -87 l 236 -87 b 319 -39 286 -87 306 -74 l 343 22 l 297 22 l 31 739 l 186 739 l 389 158 l 582 739 l 739 739 l 444 -86 b 257 -208 414 -171 361 -208 l 146 -208 "},"ỳ":{"ha":768,"x_min":0,"x_max":0,"o":"m 210 1014 l 364 1014 l 453 828 l 335 828 m 146 -87 l 236 -87 b 319 -39 286 -87 306 -74 l 343 22 l 297 22 l 31 739 l 186 739 l 389 158 l 582 739 l 739 739 l 444 -86 b 257 -208 414 -171 361 -208 l 146 -208 "},"ỹ":{"ha":768,"x_min":0,"x_max":0,"o":"m 465 843 b 365 882 428 843 399 856 b 300 915 338 906 325 915 b 242 833 268 915 246 897 l 160 833 b 299 1008 161 946 217 1008 b 407 967 343 1008 374 993 b 471 936 433 944 450 936 b 526 1021 503 936 522 954 l 610 1021 b 465 843 606 910 553 843 m 146 -87 l 236 -87 b 319 -39 286 -87 306 -74 l 343 22 l 297 22 l 31 739 l 186 739 l 389 158 l 582 739 l 739 739 l 444 -86 b 257 -208 414 -171 361 -208 l 146 -208 "},"z":{"ha":767,"x_min":0,"x_max":0,"o":"m 71 132 l 517 618 l 85 618 l 85 739 l 686 739 l 686 607 l 236 121 l 697 121 l 697 0 l 71 0 "},"ź":{"ha":767,"x_min":0,"x_max":0,"o":"m 408 1014 l 564 1014 l 439 828 l 321 828 m 71 132 l 517 618 l 85 618 l 85 739 l 686 739 l 686 607 l 236 121 l 697 121 l 697 0 l 71 0 "},"ž":{"ha":767,"x_min":0,"x_max":0,"o":"m 294 1021 l 386 897 l 478 1021 l 592 1021 l 464 828 l 310 828 l 182 1021 m 71 132 l 517 618 l 85 618 l 85 739 l 686 739 l 686 607 l 236 121 l 697 121 l 697 0 l 71 0 "},"ż":{"ha":767,"x_min":0,"x_max":0,"o":"m 310 993 l 463 993 l 463 846 l 310 846 m 71 132 l 517 618 l 85 618 l 85 739 l 686 739 l 686 607 l 236 121 l 697 121 l 697 0 l 71 0 "},"ꞌ":{"ha":347,"x_min":0,"x_max":0,"o":"m 104 865 l 104 986 l 243 986 l 243 865 l 225 504 l 122 504 "},"ﬁ":{"ha":879,"x_min":0,"x_max":0,"o":"m 625 993 l 778 993 l 778 846 l 625 846 m 179 618 l 76 618 l 76 739 l 179 739 l 179 786 b 390 986 179 908 246 986 l 522 986 l 522 865 l 411 865 b 326 778 353 865 326 833 l 326 739 l 511 739 l 511 618 l 326 618 l 326 0 l 179 0 m 628 739 l 775 739 l 775 0 l 628 0 "},"ﬂ":{"ha":939,"x_min":0,"x_max":0,"o":"m 179 618 l 76 618 l 76 739 l 179 739 l 179 786 b 390 986 179 908 246 986 l 522 986 l 522 865 l 411 865 b 326 778 353 865 326 833 l 326 739 l 511 739 l 511 618 l 326 618 l 326 0 l 179 0 m 813 0 b 651 157 715 0 651 47 l 651 986 l 799 986 l 799 171 b 849 121 799 136 815 121 l 908 121 l 908 0 l 813 0 "},"ª":{"ha":571,"x_min":0,"x_max":0,"o":"m 221 522 b 56 647 121 522 56 568 b 210 794 56 732 111 774 l 361 825 b 281 915 361 885 331 915 b 196 849 232 915 204 892 l 64 854 b 281 1008 81 956 158 1008 b 492 815 421 1008 492 940 l 492 650 b 517 615 492 624 500 615 l 529 615 l 529 526 b 482 522 522 525 504 522 b 379 604 433 522 389 540 b 221 522 357 557 301 522 m 246 608 b 361 715 313 608 361 649 l 361 743 l 254 719 b 189 658 210 710 189 688 b 246 608 189 628 208 608 "},"º":{"ha":594,"x_min":0,"x_max":0,"o":"m 297 522 b 56 765 149 522 56 617 b 297 1008 56 913 149 1008 b 539 765 446 1008 539 911 b 297 522 539 617 446 522 m 297 619 b 407 765 368 619 407 672 b 297 911 407 857 368 911 b 188 765 225 911 188 854 b 297 619 188 674 225 619 "},"А":{"ha":957,"x_min":0,"x_max":0,"o":"m 383 986 l 574 986 l 929 0 l 769 0 l 679 257 l 276 257 l 188 0 l 28 0 m 633 393 l 478 843 l 324 393 "},"Б":{"ha":926,"x_min":0,"x_max":0,"o":"m 119 986 l 800 986 l 800 849 l 269 849 l 269 611 l 488 611 b 846 303 713 611 846 496 b 488 0 846 114 713 0 l 119 0 m 483 138 b 690 303 621 138 690 193 b 483 474 690 415 621 474 l 269 474 l 269 138 "},"В":{"ha":956,"x_min":0,"x_max":0,"o":"m 119 986 l 474 986 b 832 719 710 986 832 904 b 649 510 832 607 764 526 b 874 271 790 493 874 403 b 526 0 874 90 749 0 l 119 0 m 471 565 b 678 708 603 565 678 617 b 471 851 678 806 607 851 l 269 851 l 269 565 m 522 135 b 719 285 646 135 719 186 b 522 438 719 382 646 438 l 269 438 l 269 135 "},"Г":{"ha":815,"x_min":0,"x_max":0,"o":"m 119 986 l 800 986 l 800 849 l 269 849 l 269 0 l 119 0 "},"Ѓ":{"ha":815,"x_min":0,"x_max":0,"o":"m 482 1261 l 636 1261 l 511 1075 l 393 1075 m 119 986 l 800 986 l 800 849 l 269 849 l 269 0 l 119 0 "},"Ґ":{"ha":731,"x_min":0,"x_max":0,"o":"m 119 986 l 565 986 l 565 1201 l 715 1201 l 715 849 l 269 849 l 269 0 l 119 0 "},"Ғ":{"ha":889,"x_min":0,"x_max":0,"o":"m 193 388 l 92 388 l 92 524 l 193 524 l 193 986 l 874 986 l 874 849 l 343 849 l 343 524 l 672 524 l 672 388 l 343 388 l 343 0 l 193 0 "},"Д":{"ha":1140,"x_min":0,"x_max":0,"o":"m 69 138 l 122 138 b 244 321 192 138 231 196 l 317 986 l 949 986 l 949 138 l 1071 138 l 1071 -208 l 921 -208 l 921 0 l 219 0 l 219 -208 l 69 -208 m 799 138 l 799 849 l 454 849 l 396 307 b 340 138 386 233 369 178 "},"Е":{"ha":846,"x_min":0,"x_max":0,"o":"m 119 986 l 761 986 l 761 849 l 269 849 l 269 561 l 744 561 l 744 428 l 269 428 l 269 138 l 772 138 l 772 0 l 119 0 "},"Ѐ":{"ha":846,"x_min":0,"x_max":0,"o":"m 272 1261 l 426 1261 l 515 1075 l 397 1075 m 119 986 l 761 986 l 761 849 l 269 849 l 269 561 l 744 561 l 744 428 l 269 428 l 269 138 l 772 138 l 772 0 l 119 0 "},"Ё":{"ha":846,"x_min":0,"x_max":0,"o":"m 239 1239 l 386 1239 l 386 1092 l 239 1092 m 499 1239 l 647 1239 l 647 1092 l 499 1092 m 119 986 l 761 986 l 761 849 l 269 849 l 269 561 l 744 561 l 744 428 l 269 428 l 269 138 l 772 138 l 772 0 l 119 0 "},"Ж":{"ha":1335,"x_min":0,"x_max":0,"o":"m 417 493 l 33 986 l 229 986 l 593 519 l 593 986 l 743 986 l 743 519 l 1106 986 l 1301 986 l 918 493 l 1315 0 l 1119 0 l 743 468 l 743 0 l 593 0 l 593 468 l 215 0 l 19 0 "},"З":{"ha":921,"x_min":0,"x_max":0,"o":"m 461 -22 b 67 265 236 -22 75 94 l 221 274 b 461 115 231 176 324 115 b 699 289 608 115 699 182 b 479 461 699 410 588 463 l 376 460 l 376 588 l 479 586 b 665 742 565 585 665 626 b 460 871 665 822 586 871 b 253 751 342 871 264 825 l 99 761 b 461 1008 117 907 264 1008 b 821 751 675 1008 821 904 b 626 533 821 639 753 565 b 854 271 772 496 854 401 b 461 -22 854 97 694 -22 "},"И":{"ha":1035,"x_min":0,"x_max":0,"o":"m 765 0 l 765 786 l 317 0 l 119 0 l 119 986 l 269 986 l 269 182 l 725 986 l 915 986 l 915 0 "},"Й":{"ha":1029,"x_min":0,"x_max":0,"o":"m 508 1082 b 307 1269 390 1082 313 1153 l 400 1269 b 508 1178 408 1206 447 1178 b 617 1269 569 1178 608 1206 l 710 1269 b 508 1082 704 1153 628 1082 m 760 0 l 760 786 l 311 0 l 114 0 l 114 986 l 264 986 l 264 182 l 719 986 l 910 986 l 910 0 "},"Ѝ":{"ha":1029,"x_min":0,"x_max":0,"o":"m 319 1261 l 475 1261 l 563 1075 l 444 1075 m 760 0 l 760 786 l 311 0 l 114 0 l 114 986 l 264 986 l 264 182 l 719 986 l 910 986 l 910 0 "},"К":{"ha":908,"x_min":0,"x_max":0,"o":"m 119 986 l 269 986 l 269 504 l 686 986 l 875 986 l 449 493 l 889 0 l 700 0 l 269 482 l 269 0 l 119 0 "},"Ќ":{"ha":908,"x_min":0,"x_max":0,"o":"m 499 1261 l 653 1261 l 528 1075 l 410 1075 m 119 986 l 269 986 l 269 504 l 686 986 l 875 986 l 449 493 l 889 0 l 700 0 l 269 482 l 269 0 l 119 0 "},"Л":{"ha":1069,"x_min":0,"x_max":0,"o":"m 85 138 l 165 138 b 249 238 217 138 243 176 l 313 986 l 950 986 l 950 0 l 801 0 l 801 849 l 451 849 l 397 217 b 197 0 386 85 325 0 l 85 0 "},"М":{"ha":1236,"x_min":0,"x_max":0,"o":"m 119 986 l 325 986 l 618 176 l 911 986 l 1117 986 l 1117 0 l 967 0 l 967 722 l 701 1 l 535 1 l 269 722 l 269 0 l 119 0 "},"Н":{"ha":994,"x_min":0,"x_max":0,"o":"m 119 986 l 269 986 l 269 564 l 725 564 l 725 986 l 875 986 l 875 0 l 725 0 l 725 428 l 269 428 l 269 0 l 119 0 "},"О":{"ha":1043,"x_min":0,"x_max":0,"o":"m 521 -22 b 61 492 235 -22 61 172 b 521 1008 61 811 235 1008 b 982 492 810 1008 982 811 b 521 -22 982 172 810 -22 m 521 115 b 826 492 713 115 826 254 b 521 871 826 729 713 871 b 217 492 331 871 217 729 b 521 115 217 254 331 115 "},"П":{"ha":983,"x_min":0,"x_max":0,"o":"m 119 986 l 864 986 l 864 0 l 714 0 l 714 849 l 269 849 l 269 0 l 119 0 "},"Р":{"ha":913,"x_min":0,"x_max":0,"o":"m 119 986 l 488 986 b 846 679 713 986 846 871 b 488 369 846 486 713 369 l 269 369 l 269 0 l 119 0 m 483 506 b 690 679 619 506 690 565 b 483 849 690 792 619 849 l 269 849 l 269 506 "},"С":{"ha":983,"x_min":0,"x_max":0,"o":"m 508 -22 b 58 492 242 -22 58 171 b 508 1008 58 810 239 1008 b 926 663 754 1008 885 878 l 769 654 b 508 871 743 789 658 871 b 214 492 331 871 214 726 b 508 115 214 256 332 115 b 776 353 668 115 753 206 l 933 344 b 508 -22 896 121 750 -22 "},"Т":{"ha":811,"x_min":0,"x_max":0,"o":"m 303 849 l 0 849 l 0 986 l 757 986 l 757 849 l 453 849 l 453 0 l 303 0 "},"У":{"ha":783,"x_min":0,"x_max":0,"o":"m 126 135 l 239 135 b 314 186 278 135 301 151 l 347 272 l 296 272 l 28 986 l 186 986 l 394 406 l 597 986 l 756 986 l 446 122 b 268 0 415 39 358 0 l 126 0 "},"Ў":{"ha":783,"x_min":0,"x_max":0,"o":"m 389 1079 b 186 1267 269 1079 192 1150 l 281 1267 b 389 1175 288 1203 328 1175 b 496 1267 450 1175 488 1203 l 590 1267 b 389 1079 585 1150 507 1079 m 126 135 l 239 135 b 314 186 278 135 301 151 l 347 272 l 296 272 l 28 986 l 186 986 l 394 406 l 597 986 l 756 986 l 446 122 b 268 0 415 39 358 0 l 126 0 "},"Ф":{"ha":1172,"x_min":0,"x_max":0,"o":"m 514 104 b 61 493 243 126 61 279 b 514 882 61 707 243 860 l 514 986 l 657 986 l 657 882 b 1111 493 928 858 1111 707 b 657 104 1111 279 928 128 l 657 0 l 514 0 m 217 493 b 514 242 217 354 329 261 l 514 744 b 217 493 329 725 217 632 m 954 493 b 657 744 954 631 842 725 l 657 242 b 954 493 842 261 954 356 "},"Х":{"ha":879,"x_min":0,"x_max":0,"o":"m 347 494 l 22 986 l 199 986 l 442 611 l 681 986 l 856 986 l 531 497 l 860 0 l 683 0 l 439 381 l 194 0 l 19 0 "},"Ц":{"ha":1088,"x_min":0,"x_max":0,"o":"m 846 0 l 119 0 l 119 986 l 269 986 l 269 138 l 714 138 l 714 986 l 864 986 l 864 138 l 996 138 l 996 -208 l 846 -208 "},"Ч":{"ha":915,"x_min":0,"x_max":0,"o":"m 646 464 b 378 331 600 383 499 331 b 54 644 171 331 54 451 l 54 986 l 204 986 l 204 661 b 396 467 204 539 269 467 b 646 663 544 467 646 546 l 646 986 l 796 986 l 796 0 l 646 0 "},"Ш":{"ha":1299,"x_min":0,"x_max":0,"o":"m 119 986 l 269 986 l 269 138 l 574 138 l 574 986 l 725 986 l 725 138 l 1029 138 l 1029 986 l 1179 986 l 1179 0 l 119 0 "},"Щ":{"ha":1403,"x_min":0,"x_max":0,"o":"m 119 986 l 269 986 l 269 138 l 574 138 l 574 986 l 725 986 l 725 138 l 1029 138 l 1029 986 l 1179 986 l 1179 138 l 1311 138 l 1311 -208 l 1161 -208 l 1161 0 l 119 0 "},"Џ":{"ha":983,"x_min":0,"x_max":0,"o":"m 417 0 l 119 0 l 119 986 l 269 986 l 269 138 l 714 138 l 714 986 l 864 986 l 864 0 l 567 0 l 567 -208 l 417 -208 "},"Ь":{"ha":926,"x_min":0,"x_max":0,"o":"m 269 986 l 269 617 l 488 617 b 846 307 713 617 846 500 b 488 0 846 115 713 0 l 119 0 l 119 986 m 269 138 l 483 138 b 690 307 619 138 690 194 b 483 481 690 421 619 481 l 269 481 "},"Ы":{"ha":1221,"x_min":0,"x_max":0,"o":"m 951 986 l 1101 986 l 1101 0 l 951 0 m 269 986 l 269 617 l 488 617 b 846 307 713 617 846 500 b 488 0 846 115 713 0 l 119 0 l 119 986 m 269 138 l 483 138 b 690 307 619 138 690 194 b 483 481 690 421 619 481 l 269 481 "},"Ъ":{"ha":1033,"x_min":0,"x_max":0,"o":"m 92 986 l 390 986 l 390 617 l 608 617 b 967 307 833 617 967 500 b 608 0 967 115 833 0 l 240 0 l 240 849 l 92 849 m 390 138 l 604 138 b 811 307 740 138 811 194 b 604 481 811 421 740 481 l 390 481 "},"Љ":{"ha":1608,"x_min":0,"x_max":0,"o":"m 85 138 l 165 138 b 249 238 217 138 243 176 l 313 986 l 950 986 l 950 617 l 1168 617 b 1526 307 1393 617 1526 500 b 1168 0 1526 115 1393 0 l 800 0 l 800 849 l 451 849 l 397 217 b 197 0 386 85 325 0 l 85 0 m 950 138 l 1164 138 b 1371 307 1300 138 1371 194 b 1164 481 1371 421 1300 481 l 950 481 "},"Њ":{"ha":1521,"x_min":0,"x_max":0,"o":"m 119 986 l 269 986 l 269 617 l 714 617 l 714 986 l 864 986 l 864 617 l 1082 617 b 1440 307 1307 617 1440 500 b 1082 0 1440 115 1307 0 l 714 0 l 714 481 l 269 481 l 269 0 l 119 0 m 864 138 l 1078 138 b 1285 307 1214 138 1285 194 b 1078 481 1285 421 1213 481 l 864 481 "},"Ѕ":{"ha":908,"x_min":0,"x_max":0,"o":"m 475 -22 b 75 318 239 -22 92 115 l 229 328 b 478 114 247 190 331 114 b 679 256 604 114 679 163 b 418 443 679 339 636 390 b 96 722 182 500 96 568 b 438 1008 96 892 225 1008 b 814 688 663 1008 792 874 l 660 679 b 435 872 646 793 569 872 b 250 728 321 872 250 814 b 490 564 250 642 299 610 b 833 264 746 504 833 408 b 475 -22 833 88 688 -22 "},"Є":{"ha":1021,"x_min":0,"x_max":0,"o":"m 522 -22 b 61 492 233 -22 61 174 b 522 1008 61 813 233 1008 b 968 638 763 1008 924 871 l 808 638 b 522 871 771 785 669 871 b 219 558 349 871 239 754 l 597 558 l 597 426 l 219 426 b 522 115 240 231 349 115 b 808 347 669 115 771 201 l 968 347 b 522 -22 924 117 763 -22 "},"Э":{"ha":1021,"x_min":0,"x_max":0,"o":"m 499 -22 b 53 347 258 -22 97 117 l 213 347 b 499 115 250 201 353 115 b 801 426 672 115 782 231 l 425 426 l 425 558 l 801 558 b 499 871 782 754 672 871 b 213 638 353 871 250 785 l 53 638 b 499 1008 97 871 258 1008 b 960 492 788 1008 960 813 b 499 -22 960 174 788 -22 "},"І":{"ha":394,"x_min":0,"x_max":0,"o":"m 125 986 l 275 986 l 275 0 l 125 0 "},"Ї":{"ha":389,"x_min":0,"x_max":0,"o":"m -7 1242 l 140 1242 l 140 1094 l -7 1094 m 253 1242 l 401 1242 l 401 1094 l 253 1094 m 115 986 l 265 986 l 265 0 l 115 0 "},"Ј":{"ha":843,"x_min":0,"x_max":0,"o":"m 414 -22 b 85 332 215 -22 86 125 l 238 340 b 414 115 239 193 303 115 b 594 347 529 115 594 196 l 594 986 l 744 986 l 744 347 b 414 -22 744 121 615 -22 "},"Ћ":{"ha":1072,"x_min":0,"x_max":0,"o":"m 17 986 l 719 986 l 719 849 l 428 849 l 428 522 b 694 656 472 603 574 656 b 1019 342 903 656 1019 535 l 1019 0 l 869 0 l 869 325 b 676 519 869 447 804 519 b 428 324 528 519 428 440 l 428 0 l 278 0 l 278 849 l 17 849 "},"Ю":{"ha":1401,"x_min":0,"x_max":0,"o":"m 119 986 l 269 986 l 269 561 l 422 561 b 879 1008 446 839 614 1008 b 1340 492 1167 1008 1340 811 b 879 -22 1340 172 1167 -22 b 421 425 613 -22 444 146 l 269 425 l 269 0 l 119 0 m 879 115 b 1183 492 1069 115 1183 254 b 879 871 1183 729 1069 871 b 575 492 689 871 575 729 b 879 115 575 254 689 115 "},"Я":{"ha":956,"x_min":0,"x_max":0,"o":"m 686 0 l 686 386 l 460 386 l 244 0 l 81 0 l 311 410 b 110 683 181 449 110 549 b 468 986 110 874 242 986 l 836 986 l 836 0 m 686 849 l 472 849 b 265 685 340 849 265 790 b 472 522 265 579 340 522 l 686 522 "},"Ђ":{"ha":1075,"x_min":0,"x_max":0,"o":"m 278 849 l 17 849 l 17 986 l 719 986 l 719 849 l 428 849 l 428 524 b 693 656 472 603 572 656 b 1019 333 886 656 1019 525 b 618 0 1019 128 865 0 l 618 138 b 864 332 774 138 864 213 b 676 519 864 447 792 519 b 428 321 528 519 428 439 l 428 0 l 278 0 "},"Ѣ":{"ha":1038,"x_min":0,"x_max":0,"o":"m 78 856 l 229 856 l 229 986 l 379 986 l 379 856 l 533 856 l 533 736 l 379 736 l 379 617 l 597 617 b 956 307 822 617 956 500 b 597 0 956 115 822 0 l 229 0 l 229 736 l 78 736 m 379 138 l 593 138 b 800 307 729 138 800 194 b 593 481 800 421 729 481 l 379 481 "},"Ѫ":{"ha":976,"x_min":0,"x_max":0,"o":"m 164 388 b 332 538 200 483 258 532 l 117 849 l 117 986 l 861 986 l 861 849 l 647 538 b 811 388 719 531 778 483 l 957 0 l 797 0 l 679 325 b 592 403 658 388 633 403 l 563 403 l 563 0 l 415 0 l 415 403 l 386 403 b 297 325 343 403 319 388 l 179 0 l 19 0 m 489 549 l 697 849 l 282 849 "},"Ѳ":{"ha":1043,"x_min":0,"x_max":0,"o":"m 521 -22 b 61 492 235 -22 61 172 b 521 1008 61 811 235 1008 b 982 492 810 1008 982 811 b 521 -22 982 172 810 -22 m 497 576 b 740 519 649 519 682 513 b 825 544 771 524 797 531 b 521 871 808 750 697 871 b 224 590 358 871 251 768 b 296 606 249 599 272 603 b 497 576 353 614 435 601 m 521 115 b 819 396 685 115 792 217 b 760 382 800 389 779 385 b 504 438 701 375 657 382 b 315 468 439 463 365 474 b 219 439 281 464 249 454 b 521 115 235 233 346 115 "},"Ѵ":{"ha":1026,"x_min":0,"x_max":0,"o":"m 28 986 l 188 986 l 478 168 l 700 796 b 938 986 742 914 831 986 l 999 986 l 999 849 l 976 849 b 835 726 906 849 869 818 l 571 0 l 385 0 "},"Җ":{"ha":1372,"x_min":0,"x_max":0,"o":"m 417 493 l 33 986 l 229 986 l 593 519 l 593 986 l 743 986 l 743 519 l 1106 986 l 1301 986 l 918 493 l 1228 108 l 1360 108 l 1360 -208 l 1210 -208 l 1210 0 l 1119 0 l 743 468 l 743 0 l 593 0 l 593 468 l 215 0 l 19 0 "},"Қ":{"ha":947,"x_min":0,"x_max":0,"o":"m 119 986 l 269 986 l 269 504 l 686 986 l 875 986 l 449 493 l 792 108 l 928 108 l 928 -208 l 778 -208 l 778 0 l 700 0 l 269 482 l 269 0 l 119 0 "},"Ң":{"ha":1060,"x_min":0,"x_max":0,"o":"m 119 986 l 269 986 l 269 564 l 725 564 l 725 986 l 875 986 l 875 108 l 968 108 l 968 -208 l 818 -208 l 818 0 l 725 0 l 725 428 l 269 428 l 269 0 l 119 0 "},"Ү":{"ha":825,"x_min":0,"x_max":0,"o":"m 338 396 l -8 986 l 164 986 l 413 546 l 663 986 l 835 986 l 488 396 l 488 0 l 338 0 "},"Ұ":{"ha":915,"x_min":0,"x_max":0,"o":"m 160 435 l 325 435 l 1 986 l 174 986 l 424 546 l 672 986 l 844 986 l 521 435 l 765 435 l 765 299 l 499 299 l 499 0 l 349 0 l 349 299 l 160 299 "},"Ҳ":{"ha":954,"x_min":0,"x_max":0,"o":"m 347 494 l 22 986 l 199 986 l 442 611 l 681 986 l 856 986 l 531 497 l 789 108 l 935 108 l 935 -208 l 785 -208 l 785 0 l 683 0 l 439 381 l 194 0 l 19 0 "},"Ҷ":{"ha":996,"x_min":0,"x_max":0,"o":"m 646 464 b 378 331 600 383 499 331 b 54 644 171 331 54 451 l 54 986 l 204 986 l 204 661 b 396 467 204 539 269 467 b 646 663 544 467 646 546 l 646 986 l 796 986 l 796 108 l 904 108 l 904 -208 l 754 -208 l 754 0 l 646 0 "},"Һ":{"ha":915,"x_min":0,"x_max":0,"o":"m 269 522 b 538 656 315 603 417 656 b 861 342 744 656 861 535 l 861 0 l 711 0 l 711 325 b 519 519 711 447 646 519 b 269 324 371 519 269 440 l 269 0 l 119 0 l 119 986 l 269 986 "},"Ӏ":{"ha":389,"x_min":0,"x_max":0,"o":"m 119 986 l 269 986 l 269 0 l 119 0 "},"Ә":{"ha":1011,"x_min":0,"x_max":0,"o":"m 950 493 b 494 -22 950 164 756 -22 b 61 476 269 -22 61 146 l 61 549 l 793 549 b 494 871 778 754 651 871 b 249 692 388 871 297 811 l 90 704 b 494 1008 149 892 299 1008 b 950 493 769 1008 950 813 m 496 115 b 792 415 653 115 774 218 l 222 415 b 496 115 247 217 346 115 "},"Ӣ":{"ha":1035,"x_min":0,"x_max":0,"o":"m 308 1225 l 694 1225 l 694 1107 l 308 1107 m 765 0 l 765 786 l 317 0 l 119 0 l 119 986 l 269 986 l 269 182 l 725 986 l 915 986 l 915 0 "},"Ө":{"ha":1043,"x_min":0,"x_max":0,"o":"m 521 -22 b 61 492 235 -22 61 172 b 521 1008 61 811 235 1008 b 982 492 810 1008 982 811 b 521 -22 982 172 810 -22 m 521 871 b 221 561 350 871 242 757 l 822 561 b 521 871 803 757 693 871 m 521 115 b 824 425 693 115 803 228 l 221 425 b 521 115 240 228 350 115 "},"Ӯ":{"ha":783,"x_min":0,"x_max":0,"o":"m 199 1225 l 586 1225 l 586 1107 l 199 1107 m 126 135 l 239 135 b 314 186 278 135 301 151 l 347 272 l 296 272 l 28 986 l 186 986 l 394 406 l 597 986 l 756 986 l 446 122 b 268 0 415 39 358 0 l 126 0 "},"а":{"ha":785,"x_min":0,"x_max":0,"o":"m 311 -17 b 58 185 157 -17 58 57 b 294 411 58 311 132 379 l 549 460 b 389 631 549 574 494 631 b 222 507 294 631 242 588 l 71 517 b 389 756 99 664 214 756 b 696 451 589 756 696 643 l 696 164 b 735 117 696 128 707 117 l 761 117 l 761 0 b 707 -4 751 -3 729 -4 b 561 114 622 -4 572 28 b 311 -17 524 36 426 -17 m 335 100 b 549 301 468 100 549 183 l 549 349 l 332 307 b 211 199 243 290 211 256 b 335 100 211 135 256 100 "},"б":{"ha":844,"x_min":0,"x_max":0,"o":"m 424 -22 b 164 92 331 -22 236 10 b 61 436 96 163 61 286 b 315 907 61 704 133 828 b 435 1060 408 949 435 982 l 574 1061 b 417 813 574 946 533 867 b 203 544 300 757 214 721 b 444 675 254 628 340 675 b 783 329 649 675 783 533 b 424 -22 783 113 636 -22 m 426 106 b 631 329 546 106 631 197 b 435 547 631 457 550 547 b 219 329 310 547 221 457 b 426 106 217 197 303 106 "},"в":{"ha":835,"x_min":0,"x_max":0,"o":"m 104 739 l 421 739 b 714 533 604 739 714 663 b 551 382 714 450 653 393 b 744 210 672 371 744 307 b 461 0 744 79 639 0 l 104 0 m 419 431 b 560 528 506 431 560 468 b 419 621 560 585 506 621 l 253 621 l 253 431 m 457 118 b 590 215 539 118 590 156 b 457 319 590 281 539 319 l 253 319 l 253 118 "},"г":{"ha":679,"x_min":0,"x_max":0,"o":"m 104 739 l 636 739 l 636 618 l 251 618 l 251 0 l 104 0 "},"ѓ":{"ha":679,"x_min":0,"x_max":0,"o":"m 392 1014 l 547 1014 l 422 828 l 304 828 m 104 739 l 636 739 l 636 618 l 251 618 l 251 0 l 104 0 "},"ґ":{"ha":615,"x_min":0,"x_max":0,"o":"m 104 739 l 436 739 l 436 954 l 585 954 l 585 618 l 251 618 l 251 0 l 104 0 "},"ғ":{"ha":747,"x_min":0,"x_max":0,"o":"m 157 307 l 76 307 l 76 426 l 157 426 l 157 739 l 689 739 l 689 618 l 304 618 l 304 426 l 521 426 l 521 307 l 304 307 l 304 0 l 157 0 "},"д":{"ha":981,"x_min":0,"x_max":0,"o":"m 54 119 l 115 119 b 218 253 174 119 204 161 l 285 739 l 808 739 l 808 119 l 928 119 l 928 -208 l 781 -208 l 781 0 l 201 0 l 201 -208 l 54 -208 m 358 243 b 315 119 350 193 336 151 l 661 119 l 661 618 l 410 618 l 358 243 "},"е":{"ha":800,"x_min":0,"x_max":0,"o":"m 408 -17 b 58 369 193 -17 58 136 b 404 756 58 603 193 756 b 742 364 606 756 742 613 l 742 326 l 211 326 b 410 110 218 182 292 110 b 578 222 496 110 554 153 l 731 213 b 408 -17 692 75 571 -17 m 586 438 b 404 631 576 568 504 631 b 211 438 299 631 228 563 "},"ѐ":{"ha":800,"x_min":0,"x_max":0,"o":"m 233 1011 l 388 1011 l 476 825 l 358 825 m 408 -17 b 58 369 193 -17 58 136 b 404 756 58 603 193 756 b 742 364 606 756 742 613 l 742 326 l 211 326 b 410 110 218 182 292 110 b 578 222 496 110 554 153 l 731 213 b 408 -17 692 75 571 -17 m 586 438 b 404 631 576 568 504 631 b 211 438 299 631 228 563 "},"ё":{"ha":800,"x_min":0,"x_max":0,"o":"m 204 989 l 353 989 l 353 842 l 204 842 m 465 989 l 613 989 l 613 842 l 465 842 m 408 -17 b 58 369 193 -17 58 136 b 404 756 58 603 193 756 b 742 364 606 756 742 613 l 742 326 l 211 326 b 410 110 218 182 292 110 b 578 222 496 110 554 153 l 731 213 b 408 -17 692 75 571 -17 m 586 438 b 404 631 576 568 504 631 b 211 438 299 631 228 563 "},"ж":{"ha":1256,"x_min":0,"x_max":0,"o":"m 383 369 l 79 739 l 269 739 l 556 386 l 556 739 l 703 739 l 703 388 l 989 739 l 1176 739 l 872 369 l 1190 0 l 1003 0 l 703 353 l 703 0 l 556 0 l 556 353 l 256 0 l 65 0 "},"з":{"ha":735,"x_min":0,"x_max":0,"o":"m 369 -17 b 53 214 182 -17 60 72 l 206 219 b 369 108 210 153 274 108 b 531 214 468 108 531 149 b 378 333 531 289 469 335 l 306 332 l 306 449 l 378 447 b 506 547 456 446 506 485 b 368 640 506 604 453 640 b 233 553 290 640 240 606 l 79 560 b 369 756 93 681 206 756 b 658 547 546 756 658 676 b 504 397 658 478 601 422 b 682 201 615 367 682 294 b 369 -17 682 67 561 -17 "},"и":{"ha":807,"x_min":0,"x_max":0,"o":"m 104 739 l 251 739 l 251 219 l 546 739 l 701 739 l 701 0 l 554 0 l 554 507 l 268 0 l 104 0 "},"й":{"ha":807,"x_min":0,"x_max":0,"o":"m 399 832 b 196 1019 279 832 201 903 l 290 1019 b 399 928 297 956 338 928 b 506 1019 460 928 497 956 l 599 1019 b 399 832 593 903 517 832 m 104 739 l 251 739 l 251 219 l 546 739 l 701 739 l 701 0 l 554 0 l 554 507 l 268 0 l 104 0 "},"ѝ":{"ha":807,"x_min":0,"x_max":0,"o":"m 224 1014 l 378 1014 l 467 828 l 349 828 m 104 739 l 251 739 l 251 219 l 546 739 l 701 739 l 701 0 l 554 0 l 554 507 l 268 0 l 104 0 "},"к":{"ha":850,"x_min":0,"x_max":0,"o":"m 104 739 l 254 739 l 254 381 l 578 739 l 768 739 l 428 369 l 785 0 l 592 0 l 254 358 l 254 0 l 104 0 "},"ќ":{"ha":850,"x_min":0,"x_max":0,"o":"m 438 1014 l 592 1014 l 467 828 l 349 828 m 104 739 l 254 739 l 254 381 l 578 739 l 768 739 l 428 369 l 785 0 l 592 0 l 254 358 l 254 0 l 104 0 "},"л":{"ha":940,"x_min":0,"x_max":0,"o":"m 76 132 l 136 132 b 217 232 183 132 210 167 l 272 739 l 836 739 l 836 0 l 689 0 l 689 618 l 406 618 l 363 206 b 178 0 349 69 288 0 l 76 0 "},"м":{"ha":1013,"x_min":0,"x_max":0,"o":"m 104 739 l 294 739 l 507 144 l 719 739 l 907 739 l 907 0 l 760 0 l 760 482 l 579 0 l 433 0 l 251 482 l 251 0 l 104 0 "},"н":{"ha":814,"x_min":0,"x_max":0,"o":"m 104 739 l 251 739 l 251 428 l 563 428 l 563 739 l 710 739 l 710 0 l 563 0 l 563 308 l 251 308 l 251 0 l 104 0 "},"о":{"ha":817,"x_min":0,"x_max":0,"o":"m 408 -17 b 58 369 197 -17 58 135 b 408 756 58 604 197 756 b 758 369 619 756 758 604 b 408 -17 758 135 619 -17 m 408 111 b 606 369 533 111 606 207 b 408 628 606 532 533 628 b 211 369 283 628 211 532 b 408 111 211 207 283 111 "},"п":{"ha":821,"x_min":0,"x_max":0,"o":"m 104 739 l 717 739 l 717 0 l 569 0 l 569 618 l 251 618 l 251 0 l 104 0 "},"р":{"ha":844,"x_min":0,"x_max":0,"o":"m 104 739 l 243 739 l 246 626 b 469 756 289 711 371 756 b 786 369 686 756 786 578 b 469 -17 786 161 685 -17 b 251 100 375 -17 292 28 l 251 -208 l 104 -208 m 443 111 b 633 369 561 111 633 207 b 443 628 633 532 561 628 b 251 369 325 628 251 540 b 443 111 251 199 324 111 "},"с":{"ha":782,"x_min":0,"x_max":0,"o":"m 408 -17 b 58 369 196 -17 58 136 b 408 756 58 603 196 756 b 739 488 588 756 714 658 l 585 479 b 408 628 569 575 501 628 b 211 369 283 628 211 532 b 408 111 211 207 283 111 b 585 271 503 111 571 164 l 739 263 b 408 -17 715 93 589 -17 "},"т":{"ha":788,"x_min":0,"x_max":0,"o":"m 322 618 l 61 618 l 61 739 l 731 739 l 731 618 l 471 618 l 471 0 l 322 0 "},"у":{"ha":768,"x_min":0,"x_max":0,"o":"m 146 -87 l 236 -87 b 319 -39 286 -87 306 -74 l 343 22 l 297 22 l 31 739 l 186 739 l 389 158 l 582 739 l 739 739 l 444 -86 b 257 -208 414 -171 361 -208 l 146 -208 "},"ў":{"ha":768,"x_min":0,"x_max":0,"o":"m 381 832 b 178 1019 261 832 183 903 l 272 1019 b 381 928 279 956 319 928 b 488 1019 442 928 479 956 l 581 1019 b 381 832 575 903 499 832 m 146 -87 l 236 -87 b 319 -39 286 -87 306 -74 l 343 22 l 297 22 l 31 739 l 186 739 l 389 158 l 582 739 l 739 739 l 444 -86 b 257 -208 414 -171 361 -208 l 146 -208 "},"ф":{"ha":928,"x_min":0,"x_max":0,"o":"m 394 38 b 58 374 190 61 58 190 b 394 710 58 557 190 686 l 394 986 l 536 986 l 536 710 b 871 374 739 685 871 556 b 536 38 871 192 739 63 l 536 -210 l 394 -210 m 211 374 b 394 171 211 267 281 192 l 394 576 b 211 374 281 556 211 481 m 717 374 b 536 575 717 481 650 554 l 536 172 b 717 374 650 193 717 267 "},"х":{"ha":843,"x_min":0,"x_max":0,"o":"m 333 378 l 76 739 l 240 739 l 422 474 l 599 739 l 767 739 l 513 375 l 778 0 l 614 0 l 424 282 l 232 0 l 65 0 "},"ц":{"ha":935,"x_min":0,"x_max":0,"o":"m 696 0 l 104 0 l 104 739 l 251 739 l 251 121 l 569 121 l 569 739 l 717 739 l 717 119 l 844 119 l 844 -210 l 696 -210 "},"ч":{"ha":857,"x_min":0,"x_max":0,"o":"m 604 350 b 386 221 567 272 485 221 b 104 535 214 221 104 342 l 104 739 l 251 739 l 251 551 b 406 349 251 426 311 349 b 604 553 529 349 604 426 l 604 739 l 753 739 l 753 0 l 604 0 "},"ш":{"ha":1133,"x_min":0,"x_max":0,"o":"m 104 739 l 251 739 l 251 119 l 494 119 l 494 739 l 640 739 l 640 119 l 882 119 l 882 739 l 1029 739 l 1029 0 l 104 0 "},"щ":{"ha":1239,"x_min":0,"x_max":0,"o":"m 104 739 l 251 739 l 251 119 l 494 119 l 494 739 l 640 739 l 640 119 l 882 119 l 882 739 l 1029 739 l 1029 119 l 1163 119 l 1163 -210 l 1014 -210 l 1014 0 l 104 0 "},"џ":{"ha":821,"x_min":0,"x_max":0,"o":"m 336 0 l 104 0 l 104 739 l 251 739 l 251 121 l 569 121 l 569 739 l 717 739 l 717 0 l 483 0 l 483 -210 l 336 -210 "},"ь":{"ha":819,"x_min":0,"x_max":0,"o":"m 104 739 l 251 739 l 251 469 l 432 469 b 761 233 646 469 761 386 b 432 0 761 82 646 0 l 104 0 m 425 118 b 608 233 549 118 608 154 b 425 351 608 313 549 351 l 251 351 l 251 118 "},"ы":{"ha":1139,"x_min":0,"x_max":0,"o":"m 886 739 l 1033 739 l 1033 0 l 886 0 m 104 739 l 251 739 l 251 469 l 432 469 b 761 233 646 469 761 386 b 432 0 761 82 646 0 l 104 0 m 425 118 b 608 233 549 118 608 154 b 425 351 608 313 549 351 l 251 351 l 251 118 "},"ъ":{"ha":908,"x_min":0,"x_max":0,"o":"m 194 618 l 76 618 l 76 739 l 342 739 l 342 469 l 521 469 b 851 233 735 469 851 386 b 521 0 851 82 735 0 l 194 0 m 515 118 b 699 233 638 118 699 154 b 515 351 699 313 638 351 l 342 351 l 342 118 "},"љ":{"ha":1404,"x_min":0,"x_max":0,"o":"m 76 132 l 136 132 b 217 232 183 132 210 167 l 272 739 l 836 739 l 836 469 l 1015 469 b 1346 233 1229 469 1346 386 b 1015 0 1346 82 1229 0 l 689 0 l 689 618 l 406 618 l 363 206 b 178 0 349 69 288 0 l 76 0 m 1010 118 b 1193 233 1132 118 1193 154 b 1010 351 1193 313 1132 351 l 836 351 l 836 118 "},"њ":{"ha":1276,"x_min":0,"x_max":0,"o":"m 104 739 l 251 739 l 251 469 l 561 469 l 561 739 l 708 739 l 708 469 l 889 469 b 1219 233 1103 469 1219 386 b 889 0 1219 82 1103 0 l 561 0 l 561 349 l 251 349 l 251 0 l 104 0 m 883 118 b 1067 233 1006 118 1067 154 b 883 351 1067 313 1006 351 l 708 351 l 708 118 "},"ѕ":{"ha":746,"x_min":0,"x_max":0,"o":"m 389 -17 b 58 233 174 -17 69 88 l 210 240 b 389 107 224 158 271 107 b 532 200 481 107 532 135 b 364 303 532 254 504 278 b 85 526 149 343 85 406 b 382 756 85 661 189 756 b 688 513 586 756 674 642 l 536 504 b 379 632 531 574 488 632 b 238 532 283 632 238 590 b 393 421 238 467 274 440 b 685 201 617 383 685 322 b 389 -17 685 63 565 -17 "},"є":{"ha":806,"x_min":0,"x_max":0,"o":"m 408 -17 b 58 369 197 -17 58 135 b 408 756 58 604 197 756 b 747 476 585 756 710 650 l 592 476 b 408 628 565 572 501 628 b 214 426 299 628 229 554 l 439 426 l 439 313 l 214 313 b 408 111 229 185 299 111 b 590 258 500 111 564 164 l 746 258 b 408 -17 708 86 582 -17 "},"э":{"ha":806,"x_min":0,"x_max":0,"o":"m 396 -17 b 60 258 222 -17 97 86 l 215 258 b 396 111 242 164 306 111 b 592 313 507 111 576 185 l 365 313 l 365 426 l 592 426 b 396 628 576 554 507 628 b 214 476 304 628 240 572 l 58 476 b 396 756 96 650 221 756 b 747 369 608 756 747 604 b 396 -17 747 135 608 -17 "},"і":{"ha":356,"x_min":0,"x_max":0,"o":"m 101 993 l 254 993 l 254 846 l 101 846 m 104 739 l 251 739 l 251 0 l 104 0 "},"ї":{"ha":356,"x_min":0,"x_max":0,"o":"m -26 992 l 122 992 l 122 844 l -26 844 m 235 992 l 382 992 l 382 844 l 235 844 m 104 739 l 251 739 l 251 0 l 104 0 "},"ј":{"ha":394,"x_min":0,"x_max":0,"o":"m 139 993 l 293 993 l 293 846 l 139 846 m -6 -87 l 61 -87 b 142 -7 111 -87 142 -69 l 142 739 l 290 739 l 290 -12 b 83 -208 290 -154 232 -208 l -6 -208 "},"ћ":{"ha":821,"x_min":0,"x_max":0,"o":"m 104 806 l 8 806 l 8 908 l 104 908 l 104 986 l 251 986 l 251 908 l 447 908 l 447 806 l 251 806 l 251 632 b 468 756 290 717 371 756 b 717 475 629 756 717 640 l 717 0 l 569 0 l 569 436 b 429 632 569 568 524 632 b 251 433 321 632 251 563 l 251 0 l 104 0 "},"ю":{"ha":1122,"x_min":0,"x_max":0,"o":"m 104 739 l 251 739 l 251 429 l 367 429 b 715 756 389 629 521 756 b 1065 369 926 756 1065 604 b 715 -17 1065 135 926 -17 b 367 310 521 -17 389 110 l 251 310 l 251 0 l 104 0 m 715 111 b 913 369 839 111 913 207 b 715 628 913 532 839 628 b 517 369 589 628 517 532 b 715 111 517 207 589 111 "},"я":{"ha":835,"x_min":0,"x_max":0,"o":"m 282 304 b 121 513 179 344 121 418 b 428 739 121 658 229 739 l 731 739 l 731 0 l 583 0 l 583 279 l 429 279 l 267 0 l 104 0 m 583 396 l 583 622 l 428 622 b 275 510 331 622 275 582 b 428 396 275 438 331 396 "},"ђ":{"ha":872,"x_min":0,"x_max":0,"o":"m 156 810 l 76 810 l 76 918 l 156 918 l 156 990 l 303 990 l 303 918 l 461 918 l 461 810 l 303 810 l 303 639 b 519 756 346 721 429 756 b 768 475 672 756 768 646 l 768 10 b 561 -208 768 -128 700 -208 l 485 -208 l 485 -87 l 539 -87 b 621 10 589 -87 621 -50 l 621 422 b 478 625 621 557 576 625 b 303 422 371 625 303 553 l 303 0 l 156 0 "},"ѣ":{"ha":949,"x_min":0,"x_max":0,"o":"m 233 738 l 76 738 l 76 856 l 233 856 l 233 990 l 381 990 l 381 856 l 538 856 l 538 738 l 381 738 l 381 497 l 561 497 b 892 247 772 497 892 407 b 561 0 892 88 772 0 l 233 0 m 556 118 b 738 247 672 118 738 163 b 556 379 738 331 672 379 l 381 379 l 381 118 "},"ѫ":{"ha":1003,"x_min":0,"x_max":0,"o":"m 196 290 b 346 399 224 354 281 392 l 133 621 l 133 739 l 872 739 l 872 621 l 658 399 b 808 290 724 390 781 354 l 939 0 l 781 0 l 682 240 b 592 300 663 286 638 300 l 574 300 l 574 0 l 429 0 l 429 300 l 411 300 b 322 240 365 300 340 286 l 222 0 l 65 0 m 503 403 l 713 621 l 293 621 "},"ѳ":{"ha":817,"x_min":0,"x_max":0,"o":"m 408 -17 b 58 369 197 -17 58 135 b 408 756 58 604 197 756 b 758 369 619 756 758 604 b 408 -17 758 135 619 -17 m 394 436 b 590 381 521 378 542 376 b 606 382 596 381 601 382 b 408 628 601 538 529 628 b 219 461 310 628 243 567 b 232 463 224 461 228 463 b 394 436 279 468 342 460 m 408 111 b 593 261 503 111 567 165 b 403 315 553 260 517 265 b 249 346 347 340 290 349 b 213 338 236 344 224 342 b 408 111 221 194 292 111 "},"ѵ":{"ha":840,"x_min":0,"x_max":0,"o":"m 31 739 l 185 739 l 389 151 l 529 558 b 769 739 569 675 657 739 l 810 739 l 810 618 l 796 618 b 667 518 735 618 692 585 l 478 0 l 300 0 "},"җ":{"ha":1269,"x_min":0,"x_max":0,"o":"m 383 369 l 79 739 l 269 739 l 556 386 l 556 739 l 703 739 l 703 388 l 989 739 l 1176 739 l 872 369 l 1101 103 l 1204 103 l 1204 -210 l 1057 -210 l 1057 0 l 1003 0 l 703 353 l 703 0 l 556 0 l 556 353 l 256 0 l 65 0 "},"қ":{"ha":871,"x_min":0,"x_max":0,"o":"m 104 739 l 254 739 l 254 381 l 578 739 l 768 739 l 428 369 l 686 103 l 806 103 l 806 -210 l 658 -210 l 658 0 l 592 0 l 254 358 l 254 0 l 104 0 "},"ң":{"ha":929,"x_min":0,"x_max":0,"o":"m 104 739 l 251 739 l 251 428 l 563 428 l 563 739 l 710 739 l 710 103 l 825 103 l 825 -210 l 678 -210 l 678 0 l 563 0 l 563 308 l 251 308 l 251 0 l 104 0 "},"ү":{"ha":778,"x_min":0,"x_max":0,"o":"m 31 739 l 185 739 l 389 165 l 593 739 l 749 739 l 463 0 l 463 -208 l 315 -208 l 315 0 "},"ұ":{"ha":778,"x_min":0,"x_max":0,"o":"m 153 60 l 292 60 l 31 739 l 185 739 l 389 165 l 593 739 l 749 739 l 486 60 l 626 60 l 626 -60 l 463 -60 l 463 -208 l 315 -208 l 315 -60 l 153 -60 "},"ҳ":{"ha":892,"x_min":0,"x_max":0,"o":"m 333 378 l 76 739 l 240 739 l 422 474 l 599 739 l 767 739 l 513 375 l 704 103 l 826 103 l 826 -210 l 679 -210 l 679 0 l 614 0 l 424 282 l 232 0 l 65 0 "},"ҷ":{"ha":949,"x_min":0,"x_max":0,"o":"m 604 350 b 386 221 567 272 485 221 b 104 535 214 221 104 342 l 104 739 l 251 739 l 251 551 b 406 349 251 426 311 349 b 604 553 529 349 604 426 l 604 739 l 753 739 l 753 103 l 865 103 l 865 -208 l 718 -208 l 718 0 l 604 0 "},"һ":{"ha":821,"x_min":0,"x_max":0,"o":"m 104 986 l 251 986 l 251 632 b 468 756 290 717 371 756 b 717 475 629 756 717 640 l 717 0 l 569 0 l 569 436 b 429 632 569 568 524 632 b 251 433 321 632 251 563 l 251 0 l 104 0 "},"ӏ":{"ha":386,"x_min":0,"x_max":0,"o":"m 119 986 l 267 986 l 267 0 l 119 0 "},"ә":{"ha":800,"x_min":0,"x_max":0,"o":"m 392 756 b 742 369 607 756 742 603 b 396 -17 742 136 607 -17 b 58 375 194 -17 58 126 l 58 413 l 589 413 b 390 629 582 557 508 629 b 222 517 303 629 246 586 l 68 526 b 392 756 108 664 228 756 m 214 301 b 396 108 224 171 294 108 b 589 301 501 108 572 176 "},"ӣ":{"ha":807,"x_min":0,"x_max":0,"o":"m 211 978 l 597 978 l 597 860 l 211 860 m 104 739 l 251 739 l 251 219 l 546 739 l 701 739 l 701 0 l 554 0 l 554 507 l 268 0 l 104 0 "},"ө":{"ha":821,"x_min":0,"x_max":0,"o":"m 406 -17 b 54 369 193 -17 54 135 b 406 756 54 604 193 756 b 756 369 617 756 756 604 b 406 -17 756 135 617 -17 m 406 628 b 211 429 296 628 228 556 l 599 429 b 406 628 582 556 514 628 m 406 111 b 599 310 514 111 582 183 l 211 310 b 406 111 228 183 296 111 "},"ӯ":{"ha":768,"x_min":0,"x_max":0,"o":"m 190 978 l 576 978 l 576 860 l 190 860 m 146 -87 l 236 -87 b 319 -39 286 -87 306 -74 l 343 22 l 297 22 l 31 739 l 186 739 l 389 158 l 582 739 l 739 739 l 444 -86 b 257 -208 414 -171 361 -208 l 146 -208 "},"Λ":{"ha":953,"x_min":0,"x_max":0,"o":"m 383 986 l 569 986 l 925 0 l 767 0 l 476 843 l 185 0 l 28 0 "},"Ω":{"ha":1032,"x_min":0,"x_max":0,"o":"m 64 138 l 254 136 b 61 519 136 207 61 344 b 515 1008 61 810 238 1008 b 971 519 796 1008 971 810 b 779 136 971 344 896 207 l 969 138 l 969 0 l 581 0 l 581 138 b 817 506 713 140 817 301 b 515 871 817 733 707 871 b 217 506 325 871 217 733 b 450 138 217 301 319 140 l 450 0 l 64 0 "},"λ":{"ha":824,"x_min":0,"x_max":0,"o":"m 313 703 l 279 783 b 189 867 257 838 242 867 l 115 867 l 115 986 l 203 986 b 425 796 319 986 372 928 l 661 201 b 747 119 682 149 697 119 l 796 119 l 796 0 l 729 0 b 515 190 614 0 569 54 l 386 517 l 181 0 l 28 0 "},"μ":{"ha":814,"x_min":0,"x_max":0,"o":"m 104 739 l 251 739 l 251 301 b 392 107 251 167 297 107 b 563 306 499 107 563 179 l 563 739 l 710 739 l 710 0 l 572 0 l 571 121 b 347 -17 532 31 454 -17 b 251 0 313 -17 281 -11 l 251 -208 l 104 -208 "},"π":{"ha":917,"x_min":0,"x_max":0,"o":"m 217 618 l 69 618 l 69 739 l 872 739 l 872 618 l 732 618 l 732 217 b 825 121 732 157 765 121 l 869 121 l 869 0 l 822 0 b 597 217 664 0 597 82 l 597 618 l 351 618 l 351 0 l 217 0 "},"⓿":{"ha":1140,"x_min":0,"x_max":0,"o":"m 571 -17 b 58 497 288 -17 58 213 b 571 1008 58 779 288 1008 b 1083 497 854 1008 1083 779 b 571 -17 1083 213 854 -17 m 574 211 b 799 492 711 211 799 318 b 574 771 799 667 713 771 b 349 492 436 771 349 667 b 574 211 349 318 438 211 m 471 393 b 456 492 461 421 456 454 b 574 679 456 618 496 679 b 633 663 597 679 617 674 l 471 393 m 574 303 b 515 324 551 303 532 310 l 679 593 b 692 492 688 565 692 532 b 574 303 692 367 651 303 "},"❶":{"ha":1140,"x_min":0,"x_max":0,"o":"m 571 -17 b 58 497 288 -17 58 213 b 571 1008 58 779 288 1008 b 1083 497 854 1008 1083 779 b 571 -17 1083 213 854 -17 m 654 222 l 654 761 l 571 761 b 446 640 571 686 528 640 l 411 640 l 411 560 l 547 561 l 547 222 "},"❷":{"ha":1140,"x_min":0,"x_max":0,"o":"m 571 -17 b 58 497 288 -17 58 213 b 571 1008 58 779 288 1008 b 1083 497 854 1008 1083 779 b 571 -17 1083 213 854 -17 m 765 222 l 765 314 l 503 314 b 576 408 503 344 524 379 l 636 439 b 767 613 717 481 767 525 b 585 771 767 706 701 771 b 386 594 465 771 397 703 l 486 590 b 586 682 494 653 525 682 b 664 611 631 682 664 656 b 597 517 664 563 647 544 l 526 479 b 386 222 406 414 386 349 "},"❸":{"ha":1140,"x_min":0,"x_max":0,"o":"m 571 -17 b 58 497 288 -17 58 213 b 571 1008 58 779 288 1008 b 1083 497 854 1008 1083 779 b 571 -17 1083 213 854 -17 m 578 211 b 782 375 701 211 782 275 b 661 508 782 439 751 488 b 757 625 724 525 757 560 b 571 771 757 711 697 771 b 381 622 453 771 392 710 l 485 615 b 571 681 489 653 518 681 b 651 611 626 681 651 653 b 571 544 651 567 619 544 l 533 544 l 533 460 l 571 460 b 676 379 644 460 676 428 b 578 300 676 331 640 300 b 478 369 510 300 481 328 l 372 365 b 578 211 379 271 426 211 "},"❹":{"ha":1140,"x_min":0,"x_max":0,"o":"m 571 -17 b 58 497 288 -17 58 213 b 571 1008 58 779 288 1008 b 1083 497 854 1008 1083 779 b 571 -17 1083 213 854 -17 m 693 222 l 693 340 l 767 340 l 767 431 l 693 431 l 693 760 l 586 760 l 336 421 l 336 340 l 588 340 l 588 222 m 588 617 l 588 431 l 443 431 "},"❺":{"ha":1140,"x_min":0,"x_max":0,"o":"m 571 -17 b 58 497 288 -17 58 213 b 571 1008 58 779 288 1008 b 1083 497 854 1008 1083 779 b 571 -17 1083 213 854 -17 m 569 211 b 774 399 696 211 774 282 b 601 579 774 503 718 579 b 499 543 556 579 519 565 l 513 671 l 739 671 l 739 760 l 425 760 l 385 446 l 485 446 b 581 497 504 476 531 497 b 669 399 639 497 669 456 b 571 300 669 336 633 300 b 479 361 519 300 489 319 l 375 356 b 569 211 383 264 453 211 "},"❻":{"ha":1140,"x_min":0,"x_max":0,"o":"m 571 -17 b 58 497 288 -17 58 213 b 571 1008 58 779 288 1008 b 1083 497 854 1008 1083 779 b 571 -17 1083 213 854 -17 m 581 211 b 790 401 703 211 790 281 b 599 589 790 528 710 589 b 478 535 540 589 497 565 b 599 683 485 629 529 683 b 686 626 650 683 678 664 l 785 636 b 600 771 765 725 711 771 b 372 464 439 771 372 636 b 581 211 372 297 454 211 m 583 300 b 481 404 518 300 479 342 b 583 504 482 467 524 504 b 689 404 651 504 689 468 b 583 300 689 342 650 300 "},"❼":{"ha":1140,"x_min":0,"x_max":0,"o":"m 571 -17 b 58 497 288 -17 58 213 b 571 1008 58 779 288 1008 b 1083 497 854 1008 1083 779 b 571 -17 1083 213 854 -17 m 597 222 b 767 686 597 410 658 550 l 767 761 l 397 761 l 397 669 l 650 669 b 493 222 550 540 493 385 "},"❽":{"ha":1140,"x_min":0,"x_max":0,"o":"m 571 -17 b 58 497 288 -17 58 213 b 571 1008 58 779 288 1008 b 1083 497 854 1008 1083 779 b 571 -17 1083 213 854 -17 m 576 211 b 786 367 717 211 786 269 b 672 513 786 433 743 485 b 761 632 728 531 761 564 b 576 771 761 718 701 771 b 392 632 453 771 392 718 b 481 513 392 564 425 531 b 367 367 408 486 367 435 b 576 211 367 269 436 211 m 576 550 b 497 619 526 550 497 574 b 576 682 497 658 525 682 b 656 619 628 682 656 658 b 576 550 656 574 626 550 m 576 300 b 474 376 511 300 474 325 b 576 465 474 426 511 465 b 679 376 642 465 679 426 b 576 300 679 325 642 300 "},"❾":{"ha":1140,"x_min":0,"x_max":0,"o":"m 571 -17 b 58 497 288 -17 58 213 b 571 1008 58 779 288 1008 b 1083 497 854 1008 1083 779 b 571 -17 1083 213 854 -17 m 578 771 b 369 581 456 771 369 701 b 561 393 369 454 449 393 b 681 447 619 393 661 417 b 561 299 675 353 631 299 b 472 356 510 299 482 318 l 374 346 b 560 211 393 257 447 211 b 786 518 719 211 786 346 b 578 771 786 685 704 771 m 576 682 b 679 578 640 682 681 640 b 575 478 678 515 636 478 b 471 578 507 478 471 514 b 576 682 471 640 510 682 "},"⓪":{"ha":1156,"x_min":0,"x_max":0,"o":"m 576 -24 b 58 497 290 -24 58 208 b 576 1015 58 783 290 1015 b 1099 497 864 1015 1099 783 b 576 -24 1099 208 864 -24 m 576 85 b 989 497 807 85 989 267 b 576 907 989 726 807 907 b 165 497 346 907 165 726 b 576 85 165 267 346 85 m 581 211 b 356 492 444 211 356 318 b 581 771 356 667 443 771 b 806 492 719 771 806 667 b 581 211 806 318 718 211 m 463 492 b 476 393 463 454 468 421 l 640 663 b 581 679 624 674 604 679 b 463 492 503 679 463 618 m 581 303 b 699 492 658 303 699 367 b 686 594 699 532 694 567 l 521 322 b 581 303 539 310 558 303 "},"①":{"ha":1156,"x_min":0,"x_max":0,"o":"m 576 -24 b 58 497 290 -24 58 208 b 576 1015 58 783 290 1015 b 1099 497 864 1015 1099 783 b 576 -24 1099 208 864 -24 m 576 85 b 989 497 807 85 989 267 b 576 907 989 726 807 907 b 165 497 346 907 165 726 b 576 85 165 267 346 85 m 550 561 l 414 560 l 414 640 l 449 640 b 574 761 531 640 574 686 l 657 761 l 657 222 l 550 222 "},"②":{"ha":1156,"x_min":0,"x_max":0,"o":"m 576 -24 b 58 497 290 -24 58 208 b 576 1015 58 783 290 1015 b 1099 497 864 1015 1099 783 b 576 -24 1099 208 864 -24 m 576 85 b 989 497 807 85 989 267 b 576 907 989 726 807 907 b 165 497 346 907 165 726 b 576 85 165 267 346 85 m 390 222 b 531 479 390 349 408 414 l 600 517 b 668 611 651 544 668 563 b 589 682 668 656 633 682 b 490 590 528 682 499 653 l 389 594 b 589 771 401 703 469 771 b 771 613 704 771 771 706 b 639 439 771 525 721 481 l 581 408 b 506 314 526 379 506 344 l 769 314 l 769 222 l 390 222 "},"③":{"ha":1156,"x_min":0,"x_max":0,"o":"m 576 -24 b 58 497 290 -24 58 208 b 576 1015 58 783 290 1015 b 1099 497 864 1015 1099 783 b 576 -24 1099 208 864 -24 m 576 85 b 989 497 807 85 989 267 b 576 907 989 726 807 907 b 165 497 346 907 165 726 b 576 85 165 267 346 85 m 581 211 b 376 365 429 211 383 271 l 481 369 b 581 300 485 328 513 300 b 679 379 644 300 679 331 b 575 460 679 428 647 460 l 538 460 l 538 544 l 575 544 b 656 611 624 544 656 567 b 574 681 656 653 631 681 b 488 615 522 681 492 653 l 383 622 b 574 771 394 710 457 771 b 760 625 700 771 760 711 b 664 508 760 560 726 525 b 785 375 754 488 785 439 b 581 211 785 275 704 211 "},"④":{"ha":1156,"x_min":0,"x_max":0,"o":"m 576 -24 b 58 497 290 -24 58 208 b 576 1015 58 783 290 1015 b 1099 497 864 1015 1099 783 b 576 -24 1099 208 864 -24 m 576 85 b 989 497 807 85 989 267 b 576 907 989 726 807 907 b 165 497 346 907 165 726 b 576 85 165 267 346 85 m 592 340 l 340 340 l 340 421 l 590 760 l 697 760 l 697 431 l 771 431 l 771 340 l 697 340 l 697 222 l 592 222 m 592 431 l 592 617 l 447 431 "},"⑤":{"ha":1156,"x_min":0,"x_max":0,"o":"m 576 -24 b 58 497 290 -24 58 208 b 576 1015 58 783 290 1015 b 1099 497 864 1015 1099 783 b 576 -24 1099 208 864 -24 m 576 85 b 989 497 807 85 989 267 b 576 907 989 726 807 907 b 165 497 346 907 165 726 b 576 85 165 267 346 85 m 576 211 b 382 356 460 211 390 264 l 486 361 b 578 300 496 319 526 300 b 676 399 640 300 676 336 b 588 497 676 456 646 497 b 490 446 538 497 511 476 l 392 446 l 432 760 l 746 760 l 746 671 l 519 671 l 506 543 b 608 579 526 565 563 579 b 781 399 724 579 781 503 b 576 211 781 282 703 211 "},"⑥":{"ha":1156,"x_min":0,"x_max":0,"o":"m 576 -24 b 58 497 290 -24 58 208 b 576 1015 58 783 290 1015 b 1099 497 864 1015 1099 783 b 576 -24 1099 208 864 -24 m 576 85 b 989 497 807 85 989 267 b 576 907 989 726 807 907 b 165 497 346 907 165 726 b 576 85 165 267 346 85 m 581 211 b 372 464 454 211 372 297 b 599 771 372 636 439 771 b 785 636 711 771 764 725 l 686 626 b 597 683 676 664 649 683 b 478 535 528 683 483 629 b 597 589 497 565 539 589 b 789 401 708 589 789 528 b 581 211 789 281 703 211 m 582 300 b 688 404 649 300 688 342 b 583 504 688 468 651 504 b 479 404 522 504 481 467 b 582 300 478 342 518 300 "},"⑦":{"ha":1156,"x_min":0,"x_max":0,"o":"m 576 -24 b 58 497 290 -24 58 208 b 576 1015 58 783 290 1015 b 1099 497 864 1015 1099 783 b 576 -24 1099 208 864 -24 m 576 85 b 989 497 807 85 989 267 b 576 907 989 726 807 907 b 165 497 346 907 165 726 b 576 85 165 267 346 85 m 493 222 b 650 669 493 385 550 540 l 397 669 l 397 761 l 765 761 l 765 686 b 597 222 658 550 597 410 l 493 222 "},"⑧":{"ha":1156,"x_min":0,"x_max":0,"o":"m 576 -24 b 58 497 290 -24 58 208 b 576 1015 58 783 290 1015 b 1099 497 864 1015 1099 783 b 576 -24 1099 208 864 -24 m 576 85 b 989 497 807 85 989 267 b 576 907 989 726 807 907 b 165 497 346 907 165 726 b 576 85 165 267 346 85 m 581 211 b 371 367 440 211 371 269 b 485 513 371 435 413 486 b 396 632 431 531 396 564 b 581 771 396 718 457 771 b 765 632 706 771 765 718 b 676 513 765 564 732 531 b 790 367 747 485 790 433 b 581 211 790 269 722 211 m 581 550 b 660 619 632 550 660 574 b 581 682 660 658 632 682 b 501 619 529 682 501 658 b 581 550 501 574 531 550 m 581 300 b 683 376 647 300 683 325 b 581 465 683 426 647 465 b 478 376 515 465 478 426 b 581 300 478 325 515 300 "},"⑨":{"ha":1156,"x_min":0,"x_max":0,"o":"m 576 -24 b 58 497 290 -24 58 208 b 576 1015 58 783 290 1015 b 1099 497 864 1015 1099 783 b 576 -24 1099 208 864 -24 m 576 85 b 989 497 807 85 989 267 b 576 907 989 726 807 907 b 165 497 346 907 165 726 b 576 85 165 267 346 85 m 592 771 b 800 518 718 771 800 685 b 572 211 800 346 733 211 b 388 346 461 211 407 257 l 486 356 b 574 299 494 318 522 299 b 694 447 643 299 688 353 b 574 393 675 417 632 393 b 382 581 463 393 382 454 b 592 771 382 701 469 771 m 589 682 b 483 578 522 682 483 640 b 589 478 483 514 521 478 b 692 578 649 478 690 515 b 589 682 693 640 654 682 "},"⁄":{"ha":233,"x_min":0,"x_max":0,"o":"m 394 986 l 511 986 l -161 0 l -278 0 "},"½":{"ha":1132,"x_min":0,"x_max":0,"o":"m 164 788 l 28 786 l 28 867 l 63 867 b 189 988 144 867 189 913 l 271 988 l 271 449 l 164 449 m 799 986 l 915 986 l 243 0 l 126 0 m 694 0 b 836 257 694 126 714 192 l 906 294 b 972 389 956 322 972 340 b 894 460 972 433 939 460 b 794 368 833 460 803 431 l 694 372 b 894 549 706 481 774 549 b 1075 390 1010 549 1075 483 b 944 217 1075 303 1025 258 l 886 186 b 811 92 832 157 811 122 l 1075 92 l 1075 0 l 694 0 "},"⅓":{"ha":1117,"x_min":0,"x_max":0,"o":"m 164 788 l 28 786 l 28 867 l 63 867 b 189 988 144 867 189 913 l 271 988 l 271 449 l 164 449 m 799 986 l 915 986 l 243 0 l 126 0 m 869 -11 b 665 143 719 -11 672 49 l 769 147 b 869 78 774 106 803 78 b 968 157 933 78 968 108 b 864 238 968 206 936 238 l 826 238 l 826 322 l 864 322 b 944 389 913 322 944 344 b 864 458 944 431 919 458 b 778 393 811 458 781 431 l 672 400 b 864 549 683 488 746 549 b 1050 403 990 549 1050 489 b 953 286 1050 338 1015 303 b 1075 153 1043 265 1075 217 b 869 -11 1075 53 993 -11 "},"⅔":{"ha":1206,"x_min":0,"x_max":0,"o":"m 57 449 b 197 706 57 575 76 640 l 268 743 b 335 838 318 771 335 789 b 257 908 335 882 301 908 b 157 817 196 908 165 879 l 57 821 b 256 997 68 929 136 997 b 438 839 372 997 438 932 b 307 665 438 751 388 707 l 247 635 b 174 540 194 606 174 571 l 436 540 l 436 449 l 57 449 m 889 986 l 1006 986 l 333 0 l 217 0 m 960 -11 b 756 143 808 -11 763 49 l 860 147 b 960 78 864 106 892 78 b 1058 157 1024 78 1058 108 b 954 238 1058 206 1026 238 l 917 238 l 917 322 l 954 322 b 1035 389 1003 322 1035 344 b 953 458 1035 431 1010 458 b 867 393 901 458 871 431 l 763 400 b 953 549 774 488 836 549 b 1139 403 1079 549 1139 489 b 1043 286 1139 338 1106 303 b 1164 153 1133 265 1164 217 b 960 -11 1164 53 1083 -11 "},"¼":{"ha":1043,"x_min":0,"x_max":0,"o":"m 164 788 l 28 786 l 28 867 l 63 867 b 189 988 144 867 189 913 l 271 988 l 271 449 l 164 449 m 799 986 l 915 986 l 243 0 l 126 0 m 836 118 l 585 118 l 585 199 l 836 538 l 943 538 l 943 208 l 1015 208 l 1015 118 l 943 118 l 943 0 l 836 0 m 836 208 l 836 394 l 693 208 "},"¾":{"ha":1117,"x_min":0,"x_max":0,"o":"m 232 438 b 28 592 81 438 35 497 l 132 596 b 232 526 136 554 164 526 b 331 606 296 526 331 557 b 226 686 331 654 299 686 l 189 686 l 189 771 l 226 771 b 307 838 275 771 307 793 b 225 907 307 879 282 907 b 139 842 174 907 143 879 l 35 849 b 225 997 46 936 108 997 b 411 851 351 997 411 938 b 315 735 411 786 378 751 b 436 601 406 714 436 665 b 232 438 436 501 356 438 m 872 986 l 989 986 l 317 0 l 200 0 m 910 118 l 658 118 l 658 199 l 910 538 l 1017 538 l 1017 208 l 1089 208 l 1089 118 l 1017 118 l 1017 0 l 910 0 m 910 208 l 910 394 l 767 208 "},"⅕":{"ha":1133,"x_min":0,"x_max":0,"o":"m 164 788 l 28 786 l 28 867 l 63 867 b 189 988 144 867 189 913 l 271 988 l 271 449 l 164 449 m 799 986 l 915 986 l 243 0 l 126 0 m 888 -11 b 693 133 771 -11 701 42 l 797 139 b 889 78 807 97 838 78 b 988 176 951 78 988 114 b 899 275 988 233 957 275 b 803 224 849 275 822 254 l 703 224 l 743 538 l 1057 538 l 1057 449 l 831 449 l 817 321 b 919 357 838 343 874 357 b 1092 176 1036 357 1092 281 b 888 -11 1092 60 1014 -11 "},"⅛":{"ha":1140,"x_min":0,"x_max":0,"o":"m 164 788 l 28 786 l 28 867 l 63 867 b 189 988 144 867 189 913 l 271 988 l 271 449 l 164 449 m 799 986 l 915 986 l 243 0 l 126 0 m 889 -11 b 679 144 749 -11 679 47 b 793 290 679 213 721 264 b 704 410 739 308 704 342 b 889 549 704 496 765 549 b 1074 410 1014 549 1074 496 b 985 290 1074 342 1040 308 b 1099 144 1056 263 1099 211 b 889 -11 1099 47 1031 -11 m 889 328 b 968 397 940 328 968 351 b 889 460 968 436 940 460 b 810 397 838 460 810 436 b 889 328 810 351 839 328 m 889 78 b 992 154 956 78 992 103 b 889 243 992 204 956 243 b 786 154 824 243 786 204 b 889 78 786 103 824 78 "},"⅜":{"ha":1214,"x_min":0,"x_max":0,"o":"m 232 438 b 28 592 81 438 35 497 l 132 596 b 232 526 136 554 164 526 b 331 606 296 526 331 557 b 226 686 331 654 299 686 l 189 686 l 189 771 l 226 771 b 307 838 275 771 307 793 b 225 907 307 879 282 907 b 139 842 174 907 143 879 l 35 849 b 225 997 46 936 108 997 b 411 851 351 997 411 938 b 315 735 411 786 378 751 b 436 601 406 714 436 665 b 232 438 436 501 356 438 m 872 986 l 989 986 l 317 0 l 200 0 m 963 -11 b 753 144 822 -11 753 47 b 867 290 753 213 796 264 b 779 410 813 308 779 342 b 963 549 779 496 839 549 b 1147 410 1089 549 1147 496 b 1058 290 1147 342 1114 308 b 1172 144 1129 263 1172 211 b 963 -11 1172 47 1104 -11 m 963 328 b 1042 397 1014 328 1042 351 b 963 460 1042 436 1015 460 b 883 397 911 460 883 436 b 963 328 883 351 913 328 m 963 78 b 1067 154 1029 78 1067 103 b 963 243 1067 204 1029 243 b 860 154 897 243 860 204 b 963 78 860 103 897 78 "},"⅝":{"ha":1232,"x_min":0,"x_max":0,"o":"m 250 438 b 56 582 133 438 64 490 l 160 588 b 251 526 169 546 200 526 b 350 625 314 526 350 563 b 261 724 350 682 319 724 b 164 672 211 724 185 703 l 65 672 l 106 986 l 419 986 l 419 897 l 193 897 l 179 769 b 282 806 200 792 236 806 b 454 625 397 806 454 729 b 250 438 454 508 376 438 m 890 986 l 1007 986 l 335 0 l 218 0 m 981 -11 b 771 144 840 -11 771 47 b 885 290 771 213 813 264 b 796 410 829 308 796 342 b 981 549 796 496 857 549 b 1165 410 1106 549 1165 496 b 1076 290 1165 342 1132 308 b 1190 144 1147 263 1190 211 b 981 -11 1190 47 1121 -11 m 981 328 b 1060 397 1031 328 1060 351 b 981 460 1060 436 1032 460 b 901 397 929 460 901 436 b 981 328 901 351 931 328 m 981 78 b 1083 154 1046 78 1083 103 b 981 243 1083 204 1046 243 b 878 154 915 243 878 204 b 981 78 878 103 915 78 "},"⅞":{"ha":1118,"x_min":0,"x_max":0,"o":"m 122 447 b 281 894 122 610 181 765 l 28 894 l 28 986 l 396 986 l 396 911 b 228 447 288 775 228 635 l 122 447 m 776 986 l 893 986 l 221 0 l 104 0 m 867 -11 b 657 144 726 -11 657 47 b 771 290 657 213 699 264 b 682 410 717 308 682 342 b 867 549 682 496 743 549 b 1051 410 992 549 1051 496 b 963 290 1051 342 1018 308 b 1076 144 1033 263 1076 211 b 867 -11 1076 47 1008 -11 m 867 328 b 946 397 918 328 946 351 b 867 460 946 436 918 460 b 788 397 815 460 788 436 b 867 328 788 351 817 328 m 867 78 b 969 154 933 78 969 103 b 867 243 969 204 933 243 b 764 154 801 243 764 204 b 867 78 764 103 801 78 "},"₀":{"ha":561,"x_min":0,"x_max":0,"o":"m 281 -150 b 56 131 143 -150 56 -43 b 281 410 56 306 142 410 b 506 131 418 410 506 306 b 281 -150 506 -43 417 -150 m 163 131 b 176 32 163 93 167 60 l 340 301 b 281 318 324 313 303 318 b 163 131 201 318 163 257 m 281 -58 b 399 131 357 -58 399 6 b 385 233 399 171 394 206 l 221 -39 b 281 -58 238 -51 258 -58 "},"₁":{"ha":354,"x_min":0,"x_max":0,"o":"m 164 200 l 28 199 l 28 279 l 63 279 b 189 400 144 279 189 325 l 271 400 l 271 -139 l 164 -139 "},"₂":{"ha":494,"x_min":0,"x_max":0,"o":"m 57 -139 b 197 118 57 -12 76 53 l 268 156 b 335 250 318 183 335 201 b 257 321 335 294 301 321 b 157 229 196 321 165 292 l 57 233 b 256 410 68 342 136 410 b 438 251 372 410 438 344 b 307 78 438 164 388 119 l 247 47 b 174 -47 194 18 174 -17 l 436 -47 l 436 -139 l 57 -139 "},"₃":{"ha":478,"x_min":0,"x_max":0,"o":"m 232 -150 b 28 4 81 -150 35 -90 l 132 8 b 232 -61 136 -33 164 -61 b 331 18 296 -61 331 -31 b 226 99 331 67 299 99 l 189 99 l 189 183 l 226 183 b 307 250 275 183 307 206 b 225 319 307 292 282 319 b 139 254 174 319 143 292 l 35 261 b 225 410 46 349 108 410 b 411 264 351 410 411 350 b 315 147 411 199 378 164 b 436 14 406 126 436 78 b 232 -150 436 -86 356 -150 "},"₄":{"ha":472,"x_min":0,"x_max":0,"o":"m 265 -21 l 14 -21 l 14 60 l 264 399 l 372 399 l 372 69 l 444 69 l 444 -21 l 372 -21 l 372 -139 l 265 -139 m 265 69 l 265 256 l 122 69 "},"₅":{"ha":496,"x_min":0,"x_max":0,"o":"m 250 -150 b 56 -6 133 -150 64 -97 l 160 0 b 251 -61 169 -42 200 -61 b 350 38 314 -61 350 -25 b 261 136 350 94 319 136 b 164 85 211 136 185 115 l 65 85 l 106 399 l 419 399 l 419 310 l 193 310 l 179 182 b 282 218 200 204 236 218 b 454 38 397 218 454 142 b 250 -150 454 -79 376 -150 "},"₆":{"ha":529,"x_min":0,"x_max":0,"o":"m 264 -150 b 56 103 138 -150 56 -64 b 282 410 56 275 122 410 b 468 275 394 410 449 364 l 369 265 b 281 322 360 303 332 322 b 161 174 211 322 167 268 b 281 228 181 204 222 228 b 472 40 393 228 472 167 b 264 -150 472 -81 386 -150 m 265 -61 b 371 43 332 -61 371 -19 b 267 143 371 107 335 143 b 163 43 206 143 164 106 b 265 -61 161 -19 201 -61 "},"₇":{"ha":424,"x_min":0,"x_max":0,"o":"m 122 -139 b 281 308 122 24 181 179 l 28 308 l 28 400 l 396 400 l 396 325 b 228 -139 288 189 228 49 l 122 -139 "},"₈":{"ha":503,"x_min":0,"x_max":0,"o":"m 251 -150 b 42 6 111 -150 42 -92 b 156 151 42 74 83 125 b 67 271 100 169 67 203 b 251 410 67 357 128 410 b 436 271 376 410 436 357 b 347 151 436 203 403 169 b 461 6 418 124 461 72 b 251 -150 461 -92 392 -150 m 251 189 b 331 258 301 189 331 213 b 251 321 331 297 303 321 b 172 258 200 321 172 297 b 251 189 172 213 201 189 m 251 -61 b 354 15 317 -61 354 -36 b 251 104 354 65 317 104 b 149 15 186 104 149 65 b 251 -61 149 -36 186 -61 "},"₉":{"ha":529,"x_min":0,"x_max":0,"o":"m 265 410 b 474 157 392 410 474 324 b 246 -150 474 -15 407 -150 b 61 -15 135 -150 81 -104 l 160 -6 b 247 -62 169 -43 196 -62 b 368 86 318 -62 361 -8 b 247 32 349 56 306 32 b 57 219 136 32 57 93 b 265 410 57 340 143 410 m 264 321 b 158 217 196 321 158 279 b 263 117 158 153 194 117 b 367 217 324 117 365 154 b 264 321 368 279 328 321 "},"⁰":{"ha":561,"x_min":0,"x_max":0,"o":"m 281 438 b 56 718 143 438 56 544 b 281 997 56 893 142 997 b 506 718 418 997 506 893 b 281 438 506 544 417 438 m 163 718 b 176 619 163 681 167 647 l 340 889 b 281 906 324 900 303 906 b 163 718 201 906 163 844 m 281 529 b 399 718 357 529 399 593 b 385 821 399 758 394 793 l 221 549 b 281 529 238 536 258 529 "},"¹":{"ha":354,"x_min":0,"x_max":0,"o":"m 164 788 l 28 786 l 28 867 l 63 867 b 189 988 144 867 189 913 l 271 988 l 271 449 l 164 449 "},"²":{"ha":494,"x_min":0,"x_max":0,"o":"m 57 449 b 197 706 57 575 76 640 l 268 743 b 335 838 318 771 335 789 b 257 908 335 882 301 908 b 157 817 196 908 165 879 l 57 821 b 256 997 68 929 136 997 b 438 839 372 997 438 932 b 307 665 438 751 388 707 l 247 635 b 174 540 194 606 174 571 l 436 540 l 436 449 l 57 449 "},"³":{"ha":478,"x_min":0,"x_max":0,"o":"m 232 438 b 28 592 81 438 35 497 l 132 596 b 232 526 136 554 164 526 b 331 606 296 526 331 557 b 226 686 331 654 299 686 l 189 686 l 189 771 l 226 771 b 307 838 275 771 307 793 b 225 907 307 879 282 907 b 139 842 174 907 143 879 l 35 849 b 225 997 46 936 108 997 b 411 851 351 997 411 938 b 315 735 411 786 378 751 b 436 601 406 714 436 665 b 232 438 436 501 356 438 "},"⁴":{"ha":472,"x_min":0,"x_max":0,"o":"m 265 567 l 14 567 l 14 647 l 264 986 l 372 986 l 372 657 l 444 657 l 444 567 l 372 567 l 372 449 l 265 449 m 265 657 l 265 843 l 122 657 "},"⁵":{"ha":496,"x_min":0,"x_max":0,"o":"m 250 438 b 56 582 133 438 64 490 l 160 588 b 251 526 169 546 200 526 b 350 625 314 526 350 563 b 261 724 350 682 319 724 b 164 672 211 724 185 703 l 65 672 l 106 986 l 419 986 l 419 897 l 193 897 l 179 769 b 282 806 200 792 236 806 b 454 625 397 806 454 729 b 250 438 454 508 376 438 "},"⁶":{"ha":529,"x_min":0,"x_max":0,"o":"m 264 438 b 56 690 138 438 56 524 b 282 997 56 863 122 997 b 468 863 394 997 449 951 l 369 853 b 281 910 360 890 332 910 b 161 761 211 910 167 856 b 281 815 181 792 222 815 b 472 628 393 815 472 754 b 264 438 472 507 386 438 m 265 526 b 371 631 332 526 371 568 b 267 731 371 694 335 731 b 163 631 206 731 164 693 b 265 526 161 568 201 526 "},"⁷":{"ha":424,"x_min":0,"x_max":0,"o":"m 122 447 b 281 894 122 610 181 765 l 28 894 l 28 986 l 396 986 l 396 911 b 228 447 288 775 228 635 l 122 447 "},"⁸":{"ha":503,"x_min":0,"x_max":0,"o":"m 251 438 b 42 593 111 438 42 496 b 156 739 42 661 83 713 b 67 858 100 757 67 790 b 251 997 67 944 128 997 b 436 858 376 997 436 944 b 347 739 436 790 403 757 b 461 593 418 711 461 660 b 251 438 461 496 392 438 m 251 776 b 331 846 301 776 331 800 b 251 908 331 885 303 908 b 172 846 200 908 172 885 b 251 776 172 800 201 776 m 251 526 b 354 603 317 526 354 551 b 251 692 354 653 317 692 b 149 603 186 692 149 653 b 251 526 149 551 186 526 "},"⁹":{"ha":529,"x_min":0,"x_max":0,"o":"m 265 997 b 474 744 392 997 474 911 b 246 438 474 572 407 438 b 61 572 135 438 81 483 l 160 582 b 247 525 169 544 196 525 b 368 674 318 525 361 579 b 247 619 349 643 306 619 b 57 807 136 619 57 681 b 265 997 57 928 143 997 m 264 908 b 158 804 196 908 158 867 b 263 704 158 740 194 704 b 367 804 324 704 365 742 b 264 908 368 867 328 908 "}," ":{"ha":338,"x_min":0,"x_max":0,"o":""}," ":{"ha":338,"x_min":0,"x_max":0,"o":""},".":{"ha":296,"x_min":0,"x_max":0,"o":"m 58 175 l 238 175 l 238 0 l 58 0 "},",":{"ha":296,"x_min":0,"x_max":0,"o":"m 135 0 l 58 0 l 58 175 l 238 175 l 238 21 l 150 -218 l 65 -218 "},":":{"ha":419,"x_min":0,"x_max":0,"o":"m 119 704 l 300 704 l 300 529 l 119 529 m 119 175 l 300 175 l 300 0 l 119 0 "},";":{"ha":419,"x_min":0,"x_max":0,"o":"m 119 704 l 300 704 l 300 529 l 119 529 m 197 0 l 119 0 l 119 175 l 300 175 l 300 21 l 211 -218 l 128 -218 "},"…":{"ha":850,"x_min":0,"x_max":0,"o":"m 58 175 l 238 175 l 238 0 l 58 0 m 335 175 l 515 175 l 515 0 l 335 0 m 613 175 l 793 175 l 793 0 l 613 0 "},"!":{"ha":317,"x_min":0,"x_max":0,"o":"m 114 294 b 88 674 104 392 88 563 l 88 986 l 238 986 l 238 674 b 213 294 238 563 222 392 l 114 294 m 68 175 l 249 175 l 249 0 l 68 0 "},"¡":{"ha":317,"x_min":0,"x_max":0,"o":"m 249 761 l 249 586 l 68 586 l 68 761 m 88 88 b 114 467 88 199 104 369 l 213 467 b 238 88 222 369 238 199 l 238 -225 l 88 -225 "},"?":{"ha":792,"x_min":0,"x_max":0,"o":"m 317 290 b 453 554 317 428 356 497 b 579 724 558 615 579 647 b 415 874 579 810 518 874 b 214 686 292 874 226 808 l 58 694 b 415 1008 75 878 204 1008 b 733 724 610 1008 733 889 b 560 471 733 606 681 547 b 465 290 488 425 465 383 l 317 290 m 299 175 l 478 175 l 478 0 l 299 0 "},"¿":{"ha":792,"x_min":0,"x_max":0,"o":"m 493 608 l 313 608 l 313 783 l 493 783 m 376 -225 b 58 60 181 -225 58 -106 b 232 313 58 178 111 236 b 326 493 304 358 326 400 l 474 493 b 339 229 474 356 436 286 b 213 60 233 168 213 136 b 376 -90 213 -26 274 -90 b 578 97 500 -90 565 -25 l 733 89 b 376 -225 717 -94 588 -225 "},"·":{"ha":296,"x_min":0,"x_max":0,"o":"m 58 510 l 238 510 l 238 333 l 58 333 "},"•":{"ha":457,"x_min":0,"x_max":0,"o":"m 229 263 b 57 429 124 263 57 333 b 229 596 57 526 124 596 b 401 429 333 596 401 526 b 229 263 401 333 333 263 "},"*":{"ha":593,"x_min":0,"x_max":0,"o":"m 128 574 l 217 708 l 58 708 l 58 814 l 217 813 l 128 947 l 213 1000 l 297 858 l 383 1000 l 467 947 l 378 813 l 536 814 l 536 708 l 378 708 l 467 574 l 383 522 l 297 663 l 213 522 "},"#":{"ha":715,"x_min":0,"x_max":0,"o":"m 101 258 l -8 258 l 11 378 l 122 378 l 163 603 l 47 603 l 65 722 l 183 722 l 229 986 l 360 986 l 314 722 l 478 722 l 524 986 l 654 986 l 607 722 l 717 722 l 699 603 l 586 603 l 547 378 l 663 378 l 644 258 l 526 258 l 481 0 l 351 0 l 396 258 l 232 258 l 186 0 l 57 0 m 417 378 l 457 603 l 292 603 l 253 378 "},"/":{"ha":686,"x_min":0,"x_max":0,"o":"m 463 1042 l 604 1042 l 194 -153 l 51 -153 "},"\\":{"ha":653,"x_min":0,"x_max":0,"o":"m 460 -153 l 50 1042 l 193 1042 l 603 -153 "},"-":{"ha":581,"x_min":0,"x_max":0,"o":"m 58 469 l 524 469 l 524 340 l 58 340 "},"–":{"ha":822,"x_min":0,"x_max":0,"o":"m 58 469 l 765 469 l 765 342 l 58 342 "},"—":{"ha":1261,"x_min":0,"x_max":0,"o":"m 58 469 l 1204 469 l 1204 342 l 58 342 "},"_":{"ha":775,"x_min":0,"x_max":0,"o":"m 58 0 l 718 0 l 718 -128 l 58 -128 "},"〜":{"ha":1186,"x_min":0,"x_max":0,"o":"m 826 275 b 571 360 726 275 671 307 b 369 419 504 396 431 419 b 128 297 285 419 215 378 l 58 399 b 375 550 183 514 267 550 b 615 476 440 550 518 526 b 824 406 724 421 753 406 b 1058 525 901 406 960 436 l 1129 422 b 826 275 1026 324 921 275 "},"(":{"ha":403,"x_min":0,"x_max":0,"o":"m 253 -153 b 61 444 126 40 61 242 b 253 1042 61 647 126 849 l 383 1042 b 210 444 268 843 210 643 b 383 -153 210 246 268 47 l 253 -153 "},")":{"ha":403,"x_min":0,"x_max":0,"o":"m 19 -153 b 193 444 135 47 193 246 b 19 1042 193 643 135 843 l 150 1042 b 342 444 278 849 342 647 b 150 -153 342 242 278 40 "},"{":{"ha":549,"x_min":0,"x_max":0,"o":"m 449 -164 b 199 82 292 -164 199 -62 l 199 197 b 61 375 199 315 151 375 l 61 507 b 199 683 151 506 199 565 l 199 799 b 449 1046 199 943 292 1046 l 529 1046 l 529 914 b 339 790 393 918 339 882 l 339 672 b 182 443 339 536 267 460 l 182 440 b 339 208 269 424 339 344 l 339 92 b 529 -35 339 -1 393 -39 l 529 -164 l 449 -164 "},"}":{"ha":549,"x_min":0,"x_max":0,"o":"m 19 -164 l 19 -35 b 210 92 156 -39 210 -1 l 210 208 b 368 440 210 344 281 424 l 368 443 b 210 672 282 460 210 536 l 210 790 b 19 914 210 882 156 918 l 19 1046 l 100 1046 b 350 799 257 1046 350 943 l 350 683 b 488 507 350 565 397 506 l 488 375 b 350 197 397 375 350 315 l 350 82 b 100 -164 350 -62 257 -164 "},"[":{"ha":501,"x_min":0,"x_max":0,"o":"m 119 -153 l 119 1042 l 482 1042 l 482 922 l 260 922 l 260 -33 l 482 -33 l 482 -153 "},"]":{"ha":501,"x_min":0,"x_max":0,"o":"m 19 -33 l 242 -33 l 242 922 l 19 922 l 19 1042 l 382 1042 l 382 -153 l 19 -153 "},"‚":{"ha":296,"x_min":0,"x_max":0,"o":"m 135 0 l 58 0 l 58 175 l 238 175 l 238 21 l 150 -218 l 65 -218 "},"„":{"ha":549,"x_min":0,"x_max":0,"o":"m 388 -3 l 310 -3 l 310 174 l 490 174 l 490 18 l 403 -219 l 318 -219 m 135 -3 l 58 -3 l 58 174 l 238 174 l 238 18 l 150 -219 l 65 -219 "},"“":{"ha":554,"x_min":0,"x_max":0,"o":"m 164 790 l 242 790 l 242 615 l 61 615 l 61 769 l 149 1008 l 233 1008 m 417 790 l 493 790 l 493 615 l 314 615 l 314 769 l 401 1008 l 486 1008 "},"”":{"ha":554,"x_min":0,"x_max":0,"o":"m 392 811 l 314 811 l 314 986 l 493 986 l 493 831 l 406 593 l 322 593 m 139 811 l 61 811 l 61 986 l 242 986 l 242 831 l 153 593 l 69 593 "},"‘":{"ha":303,"x_min":0,"x_max":0,"o":"m 164 790 l 242 790 l 242 615 l 61 615 l 61 769 l 149 1008 l 233 1008 "},"’":{"ha":303,"x_min":0,"x_max":0,"o":"m 139 811 l 61 811 l 61 986 l 242 986 l 242 831 l 153 593 l 69 593 "},"«":{"ha":792,"x_min":0,"x_max":0,"o":"m 253 106 l 58 332 l 58 435 l 253 661 l 425 661 l 186 383 l 425 106 m 561 106 l 367 332 l 367 435 l 561 661 l 735 661 l 496 383 l 735 106 "},"»":{"ha":800,"x_min":0,"x_max":0,"o":"m 603 383 l 365 661 l 538 661 l 732 435 l 732 332 l 538 106 l 365 106 m 294 383 l 56 661 l 229 661 l 424 435 l 424 332 l 229 106 l 56 106 "},"‹":{"ha":483,"x_min":0,"x_max":0,"o":"m 253 106 l 58 332 l 58 435 l 253 661 l 425 661 l 186 383 l 425 106 "},"›":{"ha":483,"x_min":0,"x_max":0,"o":"m 296 383 l 58 661 l 231 661 l 425 435 l 425 332 l 231 106 l 58 106 "},"\"":{"ha":501,"x_min":0,"x_max":0,"o":"m 61 874 l 61 986 l 197 986 l 189 611 l 89 611 m 303 986 l 440 986 l 440 874 l 411 611 l 313 611 "},"'":{"ha":258,"x_min":0,"x_max":0,"o":"m 61 874 l 61 986 l 197 986 l 197 874 l 176 611 l 83 611 "},"ƒ":{"ha":718,"x_min":0,"x_max":0,"o":"m 76 125 l 164 125 b 249 201 214 125 243 151 l 293 606 l 181 606 l 181 726 l 306 726 l 314 796 b 528 986 328 919 403 988 l 667 985 l 667 861 l 539 861 b 454 783 489 861 460 833 l 449 726 l 667 726 l 667 606 l 435 606 l 388 189 b 172 -1 374 65 300 -4 l 76 0 "},"฿":{"ha":918,"x_min":0,"x_max":0,"o":"m 119 986 l 378 986 l 378 1118 l 483 1118 l 483 985 b 796 713 686 971 796 876 b 613 510 796 606 724 528 b 838 279 754 494 838 410 b 485 0 838 106 707 0 l 483 0 l 483 -126 l 378 -126 l 378 0 l 119 0 m 378 565 l 378 851 l 269 851 l 269 565 m 643 707 b 483 849 643 788 588 836 l 483 568 b 643 707 588 579 643 628 m 378 135 l 378 438 l 269 438 l 269 135 m 483 438 l 483 135 l 485 135 b 685 285 610 135 685 190 b 485 438 685 382 614 438 "},"☹":{"ha":1156,"x_min":0,"x_max":0,"o":"m 576 -24 b 58 497 290 -24 58 208 b 576 1015 58 783 290 1015 b 1099 497 864 1015 1099 783 b 576 -24 1099 208 864 -24 m 576 85 b 989 497 807 85 989 267 b 576 907 989 726 807 907 b 165 497 346 907 165 726 b 576 85 165 267 346 85 m 446 572 b 375 644 406 572 375 604 b 446 713 375 682 406 713 b 517 644 485 713 517 682 b 446 572 517 604 485 572 m 725 572 b 654 644 686 572 654 604 b 725 713 654 682 686 713 b 796 644 764 713 796 682 b 725 572 796 604 764 572 m 307 286 b 585 514 340 425 447 514 b 861 286 722 514 829 425 l 756 286 b 585 415 726 369 664 415 b 413 286 504 415 443 369 l 307 286 "},"☺":{"ha":1156,"x_min":0,"x_max":0,"o":"m 576 -24 b 58 497 290 -24 58 208 b 576 1015 58 783 290 1015 b 1099 497 864 1015 1099 783 b 576 -24 1099 208 864 -24 m 576 85 b 989 497 807 85 989 267 b 576 907 989 726 807 907 b 165 497 346 907 165 726 b 576 85 165 267 346 85 m 446 572 b 375 644 406 572 375 604 b 446 713 375 682 406 713 b 517 644 485 713 517 682 b 446 572 517 604 485 572 m 725 572 b 654 644 686 572 654 604 b 725 713 654 682 686 713 b 796 644 764 713 796 682 b 725 572 796 604 764 572 m 585 228 b 286 488 432 228 307 338 l 386 488 b 585 325 407 393 488 325 b 783 488 681 325 761 393 l 885 488 b 585 228 863 338 738 228 "},"":{"ha":833,"x_min":0,"x_max":0,"o":"m 146 0 b 11 135 68 0 11 57 l 11 676 b 146 811 11 754 68 811 l 688 811 b 822 676 765 811 822 754 l 822 135 b 688 0 822 57 765 0 l 146 0 m 713 172 l 415 688 l 119 172 "},"@":{"ha":1285,"x_min":0,"x_max":0,"o":"m 900 -97 b 582 -158 801 -137 699 -158 b 61 346 253 -158 61 28 b 690 986 61 725 318 986 b 1224 492 1013 986 1224 792 b 951 113 1224 264 1113 113 b 797 222 871 113 814 154 b 585 106 753 156 668 106 b 333 361 422 106 333 208 b 625 697 333 550 449 697 b 804 613 707 697 772 664 l 810 693 l 931 693 l 907 407 b 899 276 904 365 899 310 b 965 214 899 236 922 214 b 1113 483 1057 214 1113 314 b 686 881 1113 740 964 881 b 172 350 379 881 172 667 b 586 -53 172 93 321 -53 b 874 4 689 -53 786 -33 l 900 -97 m 608 213 b 792 429 732 213 792 319 b 644 590 792 521 747 590 b 468 371 531 590 468 490 b 608 213 468 279 506 213 "},"&":{"ha":901,"x_min":0,"x_max":0,"o":"m 374 -22 b 53 242 171 -22 53 72 b 251 544 53 368 103 446 b 150 772 188 624 150 686 b 411 1008 150 918 247 1008 b 664 789 575 1008 664 921 b 456 513 664 679 603 606 l 658 257 b 703 446 688 299 703 363 l 851 432 b 753 147 849 322 810 214 l 876 0 l 700 0 l 654 56 b 374 -22 599 8 503 -22 m 378 610 b 510 778 472 668 510 713 b 413 871 510 838 474 871 b 306 769 344 871 306 833 b 378 610 306 719 324 678 m 389 113 b 557 163 472 113 528 133 l 333 442 b 208 250 244 381 208 326 b 389 113 208 167 265 113 "},"¶":{"ha":858,"x_min":0,"x_max":0,"o":"m 371 426 b 61 706 186 426 61 535 b 382 986 61 876 192 986 l 739 986 l 739 0 l 603 0 l 603 863 l 507 863 l 507 0 l 371 0 "},"§":{"ha":789,"x_min":0,"x_max":0,"o":"m 410 -90 b 75 160 211 -90 89 14 l 226 169 b 407 35 239 86 299 35 b 560 128 518 35 560 71 b 363 250 560 182 507 221 b 97 464 171 289 96 353 b 222 635 99 539 140 597 b 100 789 140 672 100 725 b 401 1008 100 925 218 1008 b 713 767 575 1008 692 919 l 564 758 b 390 885 550 839 486 885 b 254 794 311 885 254 847 b 415 683 254 740 293 714 b 713 449 631 635 713 578 b 599 293 713 375 675 324 b 711 121 676 256 711 203 b 410 -90 711 -4 588 -90 m 439 351 b 575 454 521 351 575 392 b 369 574 575 538 464 574 b 238 472 297 574 238 528 b 439 351 238 413 288 353 "},"©":{"ha":1147,"x_min":0,"x_max":0,"o":"m 574 -17 b 61 496 290 -17 61 213 b 574 1008 61 779 290 1008 b 1086 496 857 1008 1086 779 b 574 -17 1086 213 857 -17 m 574 100 b 967 496 788 100 967 275 b 574 892 967 717 788 892 b 181 496 360 892 181 717 b 574 100 181 275 360 100 m 579 206 b 300 496 415 206 300 325 b 579 785 300 667 415 785 b 835 569 718 785 822 696 l 713 563 b 579 678 703 631 649 678 b 422 496 486 678 422 604 b 579 313 422 386 486 313 b 718 439 651 313 707 363 l 840 432 b 579 206 826 300 719 206 "},"®":{"ha":889,"x_min":0,"x_max":0,"o":"m 444 240 b 61 625 232 240 61 413 b 444 1008 61 838 232 1008 b 828 625 657 1008 828 838 b 444 240 828 413 657 240 m 444 322 b 743 625 619 322 743 461 b 444 925 743 789 619 925 b 144 625 269 925 144 789 b 444 322 144 461 269 322 m 289 832 l 436 832 b 608 703 543 832 608 783 b 521 588 608 646 576 603 l 622 417 l 525 417 l 435 575 l 378 575 l 378 417 l 289 417 m 440 646 b 521 704 492 646 521 667 b 440 758 521 740 492 758 l 378 758 l 378 646 "},"℗":{"ha":889,"x_min":0,"x_max":0,"o":"m 444 240 b 61 625 232 240 61 413 b 444 1008 61 838 232 1008 b 828 625 657 1008 828 838 b 444 240 828 413 657 240 m 444 322 b 743 625 619 322 743 461 b 444 925 743 789 619 925 b 144 625 269 925 144 789 b 444 322 144 461 269 322 m 313 832 l 460 832 b 631 703 568 832 631 783 b 460 575 631 619 568 575 l 400 575 l 400 417 l 313 417 m 464 646 b 543 704 514 646 543 667 b 464 758 543 740 514 758 l 400 758 l 400 646 "},"™":{"ha":1249,"x_min":0,"x_max":0,"o":"m 582 986 l 710 986 l 856 599 l 1003 986 l 1129 986 l 1129 499 l 1033 499 l 1033 838 l 910 499 l 801 499 l 678 832 l 678 499 l 582 499 m 269 894 l 119 894 l 119 986 l 518 986 l 518 894 l 369 894 l 369 499 l 269 499 "},"°":{"ha":572,"x_min":0,"x_max":0,"o":"m 286 551 b 58 781 163 551 58 650 b 286 1008 58 910 163 1008 b 514 781 411 1008 514 910 b 286 551 514 650 411 551 m 286 668 b 397 781 347 668 397 714 b 286 894 397 847 346 894 b 175 781 226 894 175 847 b 286 668 175 714 225 668 "},"′":{"ha":314,"x_min":0,"x_max":0,"o":"m 117 986 l 258 986 l 183 667 l 56 667 "},"″":{"ha":510,"x_min":0,"x_max":0,"o":"m 117 986 l 258 986 l 183 667 l 56 667 m 313 986 l 454 986 l 379 667 l 253 667 "},"|":{"ha":381,"x_min":0,"x_max":0,"o":"m 119 1042 l 261 1042 l 261 -153 l 119 -153 "},"¦":{"ha":381,"x_min":0,"x_max":0,"o":"m 119 1042 l 261 1042 l 261 549 l 119 549 m 119 340 l 261 340 l 261 -153 l 119 -153 "},"†":{"ha":813,"x_min":0,"x_max":0,"o":"m 336 615 l 119 615 l 119 739 l 336 739 l 336 986 l 475 986 l 475 739 l 693 739 l 693 615 l 475 615 l 475 0 l 336 0 "},"‡":{"ha":813,"x_min":0,"x_max":0,"o":"m 119 361 l 336 361 l 336 615 l 119 615 l 119 739 l 336 739 l 336 986 l 475 986 l 475 739 l 693 739 l 693 615 l 475 615 l 475 361 l 693 361 l 693 238 l 475 238 l 475 0 l 336 0 l 336 238 l 119 238 "},"№":{"ha":1610,"x_min":0,"x_max":0,"o":"m 119 986 l 310 986 l 765 182 l 765 986 l 915 986 l 915 0 l 718 0 l 269 786 l 269 0 l 119 0 m 1249 233 b 1007 476 1100 233 1007 328 b 1249 719 1007 624 1100 719 b 1490 476 1397 719 1490 622 b 1249 233 1490 328 1397 233 m 1249 331 b 1358 476 1319 331 1358 383 b 1249 622 1358 568 1319 622 b 1139 476 1176 622 1139 565 b 1249 331 1139 385 1176 331 m 1049 115 l 1450 115 l 1450 0 l 1049 0 "},"¢":{"ha":782,"x_min":0,"x_max":0,"o":"m 318 119 b 58 496 157 157 58 297 b 383 881 58 719 185 869 l 393 1008 l 493 1008 l 482 876 b 739 614 622 853 718 760 l 585 606 b 471 744 574 678 532 726 l 428 238 b 585 397 511 244 571 297 l 739 389 b 417 110 715 218 589 110 l 406 -17 l 306 -17 m 211 496 b 329 253 211 372 253 286 l 372 751 b 211 496 269 733 211 640 "},"¤":{"ha":871,"x_min":0,"x_max":0,"o":"m 61 186 l 189 314 b 138 482 157 363 138 419 b 190 650 138 544 157 603 l 61 779 l 140 857 l 268 729 b 435 781 317 761 374 781 b 603 728 497 781 554 761 l 731 857 l 810 779 l 681 650 b 733 482 714 603 733 544 b 682 314 733 419 714 363 l 810 186 l 731 108 l 603 236 b 435 183 556 203 497 183 b 268 236 374 183 315 203 l 140 108 m 435 297 b 621 482 535 297 621 379 b 435 667 621 585 535 667 b 250 482 333 667 250 585 b 435 297 250 379 333 297 "},"$":{"ha":893,"x_min":0,"x_max":0,"o":"m 403 -15 b 75 314 208 7 89 135 l 226 324 b 403 119 240 211 300 140 l 403 438 b 94 710 178 493 94 561 b 403 990 94 868 211 981 l 403 1111 l 508 1111 l 508 985 b 799 676 682 957 781 835 l 649 668 b 508 846 638 754 590 819 l 508 549 b 818 261 739 490 818 397 b 508 -18 818 100 694 -4 l 508 -125 l 403 -125 m 246 717 b 403 575 246 644 279 611 l 403 856 b 246 717 306 849 246 794 m 667 253 b 508 408 667 321 639 365 l 508 115 b 667 253 608 125 667 172 "},"€":{"ha":1028,"x_min":0,"x_max":0,"o":"m 75 432 l 188 432 b 185 492 186 451 185 471 b 186 539 185 507 186 524 l 75 539 l 75 644 l 201 644 b 603 1008 249 863 400 1008 b 967 688 783 1008 924 876 l 810 678 b 601 871 782 793 703 871 b 358 644 474 871 392 781 l 665 644 l 650 539 l 342 539 b 340 492 342 524 340 508 b 343 432 340 471 342 451 l 638 432 l 622 326 l 361 326 b 601 115 397 199 479 115 b 814 328 708 115 790 203 l 974 319 b 603 -22 936 118 797 -22 b 204 326 406 -22 256 117 l 75 326 "},"₴":{"ha":953,"x_min":0,"x_max":0,"o":"m 75 643 l 631 643 b 664 725 653 667 664 692 b 492 872 664 810 604 872 b 297 725 394 872 338 819 l 138 740 b 485 1008 182 906 304 1008 b 818 728 693 1008 818 900 b 794 643 818 694 808 663 l 878 643 l 878 538 l 75 538 m 468 -17 b 142 244 271 -17 142 86 b 158 326 142 279 149 307 l 75 326 l 75 432 l 878 432 l 878 326 l 319 326 b 297 254 307 306 297 283 b 463 119 297 178 364 119 b 668 247 557 119 635 169 l 838 236 b 468 -17 794 81 654 -17 "},"₱":{"ha":978,"x_min":0,"x_max":0,"o":"m 153 515 l 42 515 l 42 613 l 153 613 l 153 678 l 42 678 l 42 775 l 153 775 l 153 986 l 467 986 b 807 775 643 986 763 913 l 936 775 l 936 678 l 824 678 b 825 647 825 668 825 658 b 824 613 825 636 825 624 l 936 613 l 936 515 l 806 515 b 467 304 761 378 642 304 l 303 304 l 303 0 l 153 0 m 303 775 l 642 775 b 463 854 608 829 549 854 l 303 854 m 671 647 b 669 678 671 658 671 668 l 303 678 l 303 613 l 669 613 b 671 647 671 624 671 635 m 463 438 b 640 515 547 438 607 461 l 303 515 l 303 438 "},"₽":{"ha":1001,"x_min":0,"x_max":0,"o":"m 56 267 l 208 267 l 208 986 l 576 986 b 935 679 801 986 935 871 b 576 369 935 486 801 369 l 358 369 l 358 267 l 596 267 l 596 158 l 358 158 l 358 0 l 208 0 l 208 158 l 56 158 m 572 506 b 779 679 708 506 779 565 b 572 849 779 792 708 849 l 358 849 l 358 506 "},"₹":{"ha":958,"x_min":0,"x_max":0,"o":"m 119 371 l 119 503 l 404 503 b 607 621 518 503 586 542 l 119 621 l 119 729 l 608 729 b 404 850 589 810 521 850 l 119 850 l 119 986 l 878 986 l 878 878 l 689 878 b 764 729 728 839 754 789 l 878 729 l 878 621 l 764 621 b 408 372 739 464 610 372 l 314 372 l 722 0 l 519 0 "},"₪":{"ha":1117,"x_min":0,"x_max":0,"o":"m 368 765 l 503 765 l 503 121 l 775 121 b 860 207 828 121 860 154 l 860 986 l 997 986 l 997 208 b 789 0 997 81 917 0 l 368 0 m 119 986 l 540 986 b 747 778 668 986 747 906 l 747 221 l 614 221 l 614 779 b 529 865 614 832 582 865 l 257 865 l 257 0 l 119 0 "},"£":{"ha":865,"x_min":0,"x_max":0,"o":"m 76 128 b 239 385 182 186 239 275 b 233 438 239 401 236 419 l 75 438 l 75 543 l 210 543 b 168 732 185 615 168 676 b 474 1008 168 890 296 1008 b 806 754 682 1008 782 894 l 636 744 b 478 871 615 829 553 871 b 321 713 383 871 321 806 b 361 543 321 668 339 613 l 596 543 l 596 438 l 376 438 b 228 142 375 288 338 196 l 789 142 l 789 1 l 76 0 "},"¥":{"ha":825,"x_min":0,"x_max":0,"o":"m 129 303 l 338 303 l 338 397 l 129 397 l 129 511 l 269 511 l -8 986 l 164 986 l 413 546 l 663 986 l 835 986 l 556 511 l 775 511 l 775 397 l 489 397 l 488 396 l 488 303 l 775 303 l 775 189 l 488 189 l 488 0 l 338 0 l 338 189 l 129 189 "},"+":{"ha":781,"x_min":0,"x_max":0,"o":"m 326 342 l 56 342 l 56 469 l 326 469 l 326 740 l 454 740 l 454 469 l 725 469 l 725 342 l 454 342 l 454 71 l 326 71 "},"−":{"ha":733,"x_min":0,"x_max":0,"o":"m 56 469 l 678 469 l 678 342 l 56 342 "},"×":{"ha":715,"x_min":0,"x_max":0,"o":"m 267 406 l 56 617 l 146 708 l 357 496 l 569 708 l 660 617 l 449 406 l 660 194 l 569 104 l 357 315 l 146 104 l 56 194 "},"÷":{"ha":761,"x_min":0,"x_max":0,"o":"m 381 568 b 283 663 321 568 283 608 b 381 757 283 717 321 757 b 478 663 440 757 478 717 b 381 568 478 608 440 568 m 56 468 l 706 468 l 706 343 l 56 343 m 381 54 b 283 149 321 54 283 94 b 381 243 283 204 321 243 b 478 149 440 243 478 204 b 381 54 478 94 440 54 "},"=":{"ha":756,"x_min":0,"x_max":0,"o":"m 56 625 l 700 625 l 700 497 l 56 497 m 56 328 l 700 328 l 700 200 l 56 200 "},"≠":{"ha":756,"x_min":0,"x_max":0,"o":"m 56 328 l 293 328 l 343 497 l 56 497 l 56 625 l 381 625 l 426 781 l 546 781 l 500 625 l 700 625 l 700 497 l 463 497 l 413 328 l 700 328 l 700 200 l 375 200 l 329 44 l 210 44 l 256 200 l 56 200 "},">":{"ha":758,"x_min":0,"x_max":0,"o":"m 69 178 l 582 403 l 69 628 l 69 765 l 703 486 l 703 319 l 69 40 "},"<":{"ha":758,"x_min":0,"x_max":0,"o":"m 56 319 l 56 486 l 689 765 l 689 628 l 176 403 l 689 178 l 689 40 "},"≥":{"ha":761,"x_min":0,"x_max":0,"o":"m 69 300 l 586 469 l 69 639 l 69 775 l 703 556 l 703 385 l 69 165 m 69 118 l 706 118 l 706 0 l 69 0 "},"≤":{"ha":761,"x_min":0,"x_max":0,"o":"m 58 385 l 58 556 l 692 775 l 692 639 l 176 469 l 692 300 l 692 165 m 56 0 l 56 118 l 692 118 l 692 0 "},"±":{"ha":753,"x_min":0,"x_max":0,"o":"m 313 418 l 56 418 l 56 544 l 313 544 l 313 796 l 440 796 l 440 544 l 697 544 l 697 418 l 440 418 l 440 165 l 313 165 m 56 118 l 697 118 l 697 0 l 56 0 "},"≈":{"ha":726,"x_min":0,"x_max":0,"o":"m 485 482 b 339 563 422 482 392 503 b 247 631 286 626 275 631 b 178 494 203 631 178 583 l 56 494 b 240 749 56 646 129 749 b 388 667 307 749 342 724 b 481 600 433 610 447 600 b 549 736 525 600 549 646 l 671 736 b 485 482 671 583 597 482 m 485 176 b 339 257 422 176 392 197 b 247 325 286 321 275 325 b 178 189 203 325 178 278 l 56 189 b 240 443 56 340 129 443 b 388 361 307 443 342 418 b 481 294 433 304 447 294 b 549 431 525 294 549 340 l 671 431 b 485 176 671 278 597 176 "},"~":{"ha":726,"x_min":0,"x_max":0,"o":"m 485 329 b 339 410 422 329 392 350 b 247 478 286 474 275 478 b 178 342 203 478 178 431 l 56 342 b 240 596 56 493 129 596 b 388 514 307 596 342 571 b 481 447 433 457 447 447 b 549 583 525 447 549 493 l 671 583 b 485 329 671 431 597 329 "},"¬":{"ha":700,"x_min":0,"x_max":0,"o":"m 529 331 l 56 331 l 56 446 l 644 446 l 644 92 l 529 92 "},"^":{"ha":608,"x_min":0,"x_max":0,"o":"m 222 935 l 386 935 l 553 532 l 426 532 l 304 821 l 182 532 l 56 532 "},"∞":{"ha":1156,"x_min":0,"x_max":0,"o":"m 299 128 b 56 376 161 128 56 222 b 299 625 56 524 161 625 b 579 461 415 625 510 568 b 857 625 654 572 732 625 b 1100 376 999 625 1100 515 b 858 128 1100 238 1010 128 b 579 292 744 128 658 168 b 299 128 513 183 414 128 m 319 247 b 519 376 394 247 469 293 b 319 506 468 458 394 506 b 194 376 244 506 194 447 b 319 247 194 294 244 247 m 839 247 b 961 376 914 249 961 306 b 839 504 961 447 914 503 b 635 374 764 506 690 460 b 839 247 689 293 763 246 "},"∫":{"ha":560,"x_min":0,"x_max":0,"o":"m 6 -208 l 18 -83 l 83 -83 b 165 -7 132 -83 158 -67 l 254 796 b 469 986 268 919 343 986 l 553 986 l 540 861 l 481 861 b 394 785 429 861 400 833 l 304 -18 b 89 -208 290 -142 219 -208 "},"∆":{"ha":903,"x_min":0,"x_max":0,"o":"m 28 129 l 368 986 l 536 986 l 875 129 l 875 0 l 28 0 m 743 129 l 453 864 l 161 129 "},"∏":{"ha":861,"x_min":0,"x_max":0,"o":"m 171 856 l 17 856 l 17 986 l 846 986 l 846 856 l 696 856 l 696 -208 l 556 -208 l 556 856 l 311 856 l 311 -208 l 171 -208 "},"∑":{"ha":744,"x_min":0,"x_max":0,"o":"m 39 138 l 278 493 l 39 849 l 39 986 l 707 986 l 707 849 l 194 849 l 438 493 l 194 138 l 707 138 l 707 0 l 39 0 "},"√":{"ha":950,"x_min":0,"x_max":0,"o":"m 31 472 l 169 472 l 301 -31 l 513 986 l 919 986 l 919 861 l 626 861 l 400 -208 l 213 -208 "},"∂":{"ha":750,"x_min":0,"x_max":0,"o":"m 363 -15 b 58 317 172 -15 58 115 b 358 649 58 518 178 649 b 549 579 432 649 497 619 b 139 883 500 750 381 840 l 169 1007 b 689 378 574 940 689 710 b 363 -15 689 126 553 -15 m 363 99 b 550 353 475 99 550 161 b 374 535 550 468 485 535 b 197 317 261 535 197 453 b 363 99 197 179 250 99 "},"%":{"ha":1125,"x_min":0,"x_max":0,"o":"m 278 508 b 58 753 150 508 58 592 b 278 997 58 914 150 997 b 496 753 406 997 496 914 b 278 508 496 592 406 508 m 840 986 l 957 986 l 285 0 l 168 0 m 278 601 b 383 753 347 601 383 656 b 278 904 383 850 347 904 b 172 753 208 904 172 850 b 278 601 172 656 208 601 m 847 -11 b 628 233 719 -11 628 72 b 847 478 628 394 719 478 b 1067 233 975 478 1067 394 b 847 -11 1067 72 975 -11 m 847 82 b 953 233 917 82 953 136 b 847 385 953 331 917 385 b 742 233 778 385 742 331 b 847 82 742 136 778 82 "},"‰":{"ha":1643,"x_min":0,"x_max":0,"o":"m 278 508 b 58 753 150 508 58 592 b 278 997 58 914 150 997 b 496 753 406 997 496 914 b 278 508 496 592 406 508 m 840 986 l 957 986 l 285 0 l 168 0 m 278 601 b 383 753 347 601 383 656 b 278 904 383 850 347 904 b 172 753 208 904 172 850 b 278 601 172 656 208 601 m 847 -11 b 628 233 719 -11 628 72 b 847 478 628 394 719 478 b 1067 233 975 478 1067 394 b 847 -11 1067 72 975 -11 m 1367 -11 b 1147 233 1239 -11 1147 72 b 1367 478 1147 394 1239 478 b 1586 233 1494 478 1586 394 b 1367 -11 1586 72 1494 -11 m 847 82 b 953 233 917 82 953 136 b 847 385 953 331 917 385 b 742 233 778 385 742 331 b 847 82 742 136 778 82 m 1367 82 b 1472 233 1436 82 1472 136 b 1367 385 1472 331 1436 385 b 1261 233 1297 385 1261 331 b 1367 82 1261 136 1297 82 "},"∶":{"ha":419,"x_min":0,"x_max":0,"o":"m 119 843 l 300 843 l 300 668 l 119 668 m 119 314 l 300 314 l 300 139 l 119 139 "},"↑":{"ha":986,"x_min":0,"x_max":0,"o":"m 421 742 l 61 382 l 61 556 l 493 986 l 925 554 l 925 381 l 565 739 l 565 0 l 421 0 "},"↗":{"ha":869,"x_min":0,"x_max":0,"o":"m 586 744 l 76 744 l 199 868 l 808 867 l 808 256 l 686 133 l 685 642 l 163 118 l 61 219 "},"→":{"ha":1108,"x_min":0,"x_max":0,"o":"m 800 421 l 61 421 l 61 565 l 803 565 l 443 925 l 617 925 l 1047 493 l 615 61 l 442 61 "},"↘":{"ha":872,"x_min":0,"x_max":0,"o":"m 585 243 l 61 765 l 163 867 l 688 342 l 688 851 l 811 729 l 810 119 l 199 119 l 76 242 "},"↓":{"ha":986,"x_min":0,"x_max":0,"o":"m 565 986 l 565 247 l 925 606 l 925 432 l 493 0 l 61 431 l 61 604 l 421 244 l 421 986 "},"↙":{"ha":872,"x_min":0,"x_max":0,"o":"m 674 119 l 63 119 l 61 729 l 183 851 l 183 342 l 708 867 l 810 765 l 288 243 l 796 242 "},"←":{"ha":1108,"x_min":0,"x_max":0,"o":"m 493 61 l 61 493 l 492 925 l 665 925 l 306 565 l 1047 565 l 1047 421 l 308 421 l 667 61 "},"↖":{"ha":869,"x_min":0,"x_max":0,"o":"m 61 256 l 61 867 l 671 868 l 794 744 l 285 744 l 810 219 l 708 118 l 185 642 l 185 133 "},"↔":{"ha":1460,"x_min":0,"x_max":0,"o":"m 493 61 l 61 493 l 492 925 l 665 925 l 306 565 l 1156 565 l 794 925 l 968 925 l 1399 493 l 967 61 l 793 61 l 1153 421 l 308 421 l 667 61 "},"↕":{"ha":986,"x_min":0,"x_max":0,"o":"m 421 71 l 421 915 l 61 557 l 61 731 l 493 1163 l 925 732 l 925 558 l 565 918 l 565 68 l 925 428 l 925 254 l 493 -176 l 61 256 l 61 429 "},"↝":{"ha":903,"x_min":0,"x_max":0,"o":"m 515 238 b 353 386 457 238 375 272 b 278 513 339 471 326 513 b 186 422 243 513 207 481 l 61 422 b 283 632 82 544 186 632 b 443 469 367 632 429 571 b 517 357 451 401 472 357 b 618 446 553 357 589 393 l 507 511 l 811 653 l 842 315 l 724 383 b 515 238 668 292 592 238 "},"⇤":{"ha":929,"x_min":0,"x_max":0,"o":"m 61 761 l 174 761 l 174 219 l 61 219 m 222 490 l 499 722 l 500 551 l 868 551 l 868 429 l 500 429 l 500 258 "},"⇥":{"ha":929,"x_min":0,"x_max":0,"o":"m 756 219 l 756 761 l 868 761 l 868 219 m 429 429 l 61 429 l 61 551 l 431 551 l 431 722 l 707 490 l 429 258 "},"↩":{"ha":913,"x_min":0,"x_max":0,"o":"m 294 163 l 61 396 l 292 628 l 454 628 l 282 457 l 539 457 b 728 632 644 457 728 535 b 539 808 728 731 644 808 l 129 808 l 129 931 l 539 931 b 851 632 714 931 851 800 b 539 335 851 464 714 335 l 285 335 l 456 163 "},"↪":{"ha":913,"x_min":0,"x_max":0,"o":"m 628 335 l 372 335 b 61 632 199 335 61 464 b 372 931 61 800 199 931 l 782 931 l 782 808 l 374 808 b 185 632 268 808 185 731 b 374 457 185 535 268 457 l 629 457 l 458 628 l 621 628 l 851 396 l 618 163 l 457 163 "},"↰":{"ha":919,"x_min":0,"x_max":0,"o":"m 61 618 l 346 856 l 346 682 l 858 682 l 858 0 l 731 0 l 731 554 l 346 554 l 347 381 "},"↱":{"ha":919,"x_min":0,"x_max":0,"o":"m 61 0 l 61 682 l 572 682 l 574 856 l 858 618 l 572 381 l 572 554 l 189 554 l 189 0 "},"↳":{"ha":919,"x_min":0,"x_max":0,"o":"m 858 368 l 574 131 l 572 304 l 61 304 l 61 986 l 189 986 l 189 432 l 572 432 l 572 606 "},"↴":{"ha":924,"x_min":0,"x_max":0,"o":"m 399 279 l 569 279 l 569 863 l 61 863 l 61 985 l 692 985 l 692 279 l 863 278 l 631 0 "},"↵":{"ha":919,"x_min":0,"x_max":0,"o":"m 346 432 l 731 432 l 731 986 l 858 986 l 858 304 l 346 304 l 346 131 l 61 368 l 347 606 "},"⇧":{"ha":1146,"x_min":0,"x_max":0,"o":"m 325 464 l 28 464 l 574 1007 l 1118 464 l 824 464 l 824 0 l 325 0 m 700 122 l 700 578 l 840 578 l 574 844 l 307 578 l 447 578 l 447 122 "},"●":{"ha":1169,"x_min":0,"x_max":0,"o":"m 585 -17 b 61 494 289 -17 61 199 b 585 1008 61 793 289 1008 b 1108 494 881 1008 1108 793 b 585 -17 1108 199 881 -17 "},"○":{"ha":1169,"x_min":0,"x_max":0,"o":"m 585 -17 b 61 494 289 -17 61 199 b 585 1008 61 793 289 1008 b 1108 494 881 1008 1108 793 b 585 -17 1108 199 881 -17 m 585 104 b 985 494 811 104 985 268 b 585 888 985 724 811 888 b 185 494 358 888 185 724 b 585 104 185 268 358 104 "},"◌":{"ha":1169,"x_min":0,"x_max":0,"o":"m 483 1019 b 585 1029 517 1025 550 1029 l 585 922 b 504 915 557 922 532 919 m 735 901 b 656 924 710 911 683 918 l 674 1029 b 774 1001 708 1022 742 1014 l 735 901 m 294 942 b 385 990 322 961 353 976 l 425 892 b 354 853 399 881 375 868 m 874 815 b 808 865 853 833 832 850 l 865 956 b 946 893 894 938 921 917 l 874 815 m 149 799 b 214 878 168 828 190 854 l 290 803 b 239 739 271 782 254 763 m 967 685 b 926 753 957 710 942 732 l 1014 817 b 1065 728 1033 789 1051 758 l 967 685 m 71 610 b 100 708 76 644 86 678 l 200 668 b 176 590 189 643 181 617 m 1001 526 b 992 607 1001 556 999 581 l 1097 629 b 1108 528 1104 597 1108 563 l 1001 526 m 72 407 b 61 508 65 439 61 474 l 168 510 b 178 429 168 481 171 456 l 72 407 m 971 368 b 993 446 981 393 989 419 l 1099 426 b 1069 328 1093 392 1083 358 m 156 219 b 104 308 136 247 118 278 l 204 351 b 243 283 214 326 228 304 l 156 219 m 881 233 b 931 297 899 254 915 274 l 1021 238 b 956 158 1001 208 979 182 m 304 81 b 224 143 275 99 249 119 l 297 221 b 361 171 317 203 338 186 l 304 81 m 744 144 b 815 183 771 156 794 168 l 875 94 b 785 46 847 75 817 60 m 496 7 b 396 35 461 14 428 22 l 435 135 b 514 113 461 125 486 118 l 496 7 m 585 114 b 665 121 613 114 638 117 l 686 17 b 585 7 653 11 619 7 "},"◊":{"ha":767,"x_min":0,"x_max":0,"o":"m 61 447 l 296 894 l 471 894 l 706 447 l 471 0 l 296 0 m 383 113 l 560 447 l 383 782 l 207 447 "},"▲":{"ha":1208,"x_min":0,"x_max":0,"o":"m 604 986 l 1174 0 l 36 0 "},"▶":{"ha":1208,"x_min":0,"x_max":0,"o":"m 111 989 l 1097 494 l 111 -1 "},"▼":{"ha":1208,"x_min":0,"x_max":0,"o":"m 1174 986 l 604 0 l 36 986 "},"◀":{"ha":1208,"x_min":0,"x_max":0,"o":"m 111 494 l 1097 989 l 1097 -1 "},"△":{"ha":1208,"x_min":0,"x_max":0,"o":"m 604 986 l 1174 0 l 36 0 m 957 129 l 604 747 l 253 129 "},"▷":{"ha":1208,"x_min":0,"x_max":0,"o":"m 111 989 l 1097 494 l 111 -1 m 826 494 l 232 793 l 232 194 "},"▽":{"ha":1208,"x_min":0,"x_max":0,"o":"m 1174 986 l 604 0 l 36 986 m 604 239 l 957 857 l 253 857 "},"◁":{"ha":1208,"x_min":0,"x_max":0,"o":"m 111 494 l 1097 989 l 1097 -1 m 976 793 l 382 494 l 976 194 "},"̈":{"ha":0,"x_min":0,"x_max":0,"o":"m 58 992 l 206 992 l 206 844 l 58 844 m 318 992 l 467 992 l 467 844 l 318 844 "},"̇":{"ha":0,"x_min":0,"x_max":0,"o":"m 58 993 l 211 993 l 211 846 l 58 846 "},"̀":{"ha":0,"x_min":0,"x_max":0,"o":"m 58 1014 l 213 1014 l 300 828 l 183 828 "},"́":{"ha":0,"x_min":0,"x_max":0,"o":"m 146 1014 l 300 1014 l 175 828 l 58 828 "},"̋":{"ha":0,"x_min":0,"x_max":0,"o":"m 146 1014 l 300 1014 l 175 828 l 58 828 m 350 1014 l 504 1014 l 379 828 l 261 828 "},"̂":{"ha":0,"x_min":0,"x_max":0,"o":"m 186 1021 l 339 1021 l 467 828 l 354 828 l 263 951 l 171 828 l 58 828 "},"̌":{"ha":0,"x_min":0,"x_max":0,"o":"m 171 1021 l 263 897 l 354 1021 l 467 1021 l 339 828 l 186 828 l 58 1021 "},"̆":{"ha":0,"x_min":0,"x_max":0,"o":"m 260 832 b 58 1019 142 832 64 903 l 151 1019 b 260 928 160 956 199 928 b 367 1019 321 928 360 956 l 461 1019 b 260 832 456 903 379 832 "},"̊":{"ha":0,"x_min":0,"x_max":0,"o":"m 190 800 b 58 932 115 800 58 857 b 190 1064 58 1007 115 1064 b 324 932 265 1064 324 1007 b 190 800 324 857 265 800 m 190 875 b 247 932 222 875 247 900 b 190 988 247 964 222 988 b 135 932 158 988 135 964 b 190 875 135 900 158 875 "},"̃":{"ha":0,"x_min":0,"x_max":0,"o":"m 364 843 b 264 882 326 843 296 856 b 199 915 236 906 224 915 b 140 833 167 915 144 897 l 58 833 b 197 1008 60 946 115 1008 b 306 967 242 1008 272 993 b 369 936 332 944 349 936 b 425 1021 401 936 421 954 l 508 1021 b 364 843 504 910 450 843 "},"̄":{"ha":0,"x_min":0,"x_max":0,"o":"m 58 978 l 444 978 l 444 860 l 58 860 "},"̒":{"ha":0,"x_min":0,"x_max":0,"o":"m 58 957 l 142 1100 l 236 1100 l 161 969 l 211 969 l 211 832 l 58 832 "},"̦":{"ha":0,"x_min":0,"x_max":0,"o":"m 133 -208 l 83 -208 l 83 -72 l 236 -72 l 236 -196 l 153 -339 l 58 -339 "},"̧":{"ha":0,"x_min":0,"x_max":0,"o":"m 225 -311 b 58 -200 135 -311 79 -264 l 136 -169 b 222 -225 151 -208 178 -225 b 294 -172 267 -225 294 -206 b 194 -112 294 -137 278 -112 l 149 -67 l 200 14 l 299 14 l 254 -47 b 388 -175 346 -53 388 -104 b 225 -311 388 -260 318 -311 "},"̨":{"ha":0,"x_min":0,"x_max":0,"o":"m 196 -294 b 58 -190 111 -294 58 -258 b 133 -29 58 -136 97 -79 l 176 28 l 276 0 l 229 -62 b 186 -156 197 -107 186 -132 b 225 -190 186 -178 203 -190 b 290 -172 250 -190 274 -183 l 325 -258 b 196 -294 303 -279 249 -294 "},"̵":{"ha":0,"x_min":0,"x_max":0,"o":"m 161 526 l 600 526 l 600 422 l 161 422 "},"̶":{"ha":0,"x_min":0,"x_max":0,"o":"m 28 846 l 989 846 l 989 721 l 28 721 "},"̷":{"ha":0,"x_min":0,"x_max":0,"o":"m 56 513 l 410 679 l 410 572 l 56 406 "},"̸":{"ha":0,"x_min":0,"x_max":0,"o":"m 589 756 l 700 756 l 167 -22 l 56 -22 "},"¨":{"ha":524,"x_min":0,"x_max":0,"o":"m 58 992 l 206 992 l 206 844 l 58 844 m 318 992 l 467 992 l 467 844 l 318 844 "},"˙":{"ha":269,"x_min":0,"x_max":0,"o":"m 58 993 l 211 993 l 211 846 l 58 846 "},"`":{"ha":358,"x_min":0,"x_max":0,"o":"m 58 1014 l 213 1014 l 300 828 l 183 828 "},"´":{"ha":358,"x_min":0,"x_max":0,"o":"m 146 1014 l 300 1014 l 175 828 l 58 828 "},"˝":{"ha":561,"x_min":0,"x_max":0,"o":"m 146 1014 l 300 1014 l 175 828 l 58 828 m 350 1014 l 504 1014 l 379 828 l 261 828 "},"ˆ":{"ha":525,"x_min":0,"x_max":0,"o":"m 186 1021 l 339 1021 l 467 828 l 354 828 l 263 951 l 171 828 l 58 828 "},"ˇ":{"ha":525,"x_min":0,"x_max":0,"o":"m 171 1021 l 263 897 l 354 1021 l 467 1021 l 339 828 l 186 828 l 58 1021 "},"˘":{"ha":519,"x_min":0,"x_max":0,"o":"m 260 832 b 58 1019 142 832 64 903 l 151 1019 b 260 928 160 956 199 928 b 367 1019 321 928 360 956 l 461 1019 b 260 832 456 903 379 832 "},"˚":{"ha":381,"x_min":0,"x_max":0,"o":"m 190 800 b 58 932 115 800 58 857 b 190 1064 58 1007 115 1064 b 324 932 265 1064 324 1007 b 190 800 324 857 265 800 m 190 875 b 247 932 222 875 247 900 b 190 988 247 964 222 988 b 135 932 158 988 135 964 b 190 875 135 900 158 875 "},"˜":{"ha":565,"x_min":0,"x_max":0,"o":"m 364 843 b 264 882 326 843 296 856 b 199 915 236 906 224 915 b 140 833 167 915 144 897 l 58 833 b 197 1008 60 946 115 1008 b 306 967 242 1008 272 993 b 369 936 332 944 349 936 b 425 1021 401 936 421 954 l 508 1021 b 364 843 504 910 450 843 "},"¯":{"ha":503,"x_min":0,"x_max":0,"o":"m 58 978 l 444 978 l 444 860 l 58 860 "},"¸":{"ha":446,"x_min":0,"x_max":0,"o":"m 225 -311 b 58 -200 135 -311 79 -264 l 136 -169 b 222 -225 151 -208 178 -225 b 294 -172 267 -225 294 -206 b 194 -112 294 -137 278 -112 l 149 -67 l 200 14 l 299 14 l 254 -47 b 388 -175 346 -53 388 -104 b 225 -311 388 -260 318 -311 "},"˛":{"ha":383,"x_min":0,"x_max":0,"o":"m 196 -294 b 58 -190 111 -294 58 -258 b 133 -29 58 -136 97 -79 l 176 28 l 276 0 l 229 -62 b 186 -156 197 -107 186 -132 b 225 -190 186 -178 203 -190 b 290 -172 250 -190 274 -183 l 325 -258 b 196 -294 303 -279 249 -294 "},"ʼ":{"ha":303,"x_min":0,"x_max":0,"o":"m 115 986 l 244 986 l 171 636 l 74 636 "},"ʹ":{"ha":353,"x_min":0,"x_max":0,"o":"m 117 986 l 258 986 l 183 667 l 56 667 "},"ˈ":{"ha":258,"x_min":0,"x_max":0,"o":"m 61 876 l 61 986 l 197 986 l 197 876 l 179 636 l 81 636 "}}}
